<svg width="493" height="238" viewBox="0 0 493 238" fill="none" xmlns="http://www.w3.org/2000/svg">
<g clip-path="url(#clip0_1707_5310)">
<path d="M18.9066 158.493C28.6293 162.801 41.4037 155.221 47.4377 141.578C53.4832 127.929 50.4952 113.383 40.7783 109.075C31.0614 104.772 18.2812 112.352 12.2473 125.995C6.20753 139.644 9.18976 154.19 18.9066 158.493Z" fill="white"/>
<path d="M18.9066 158.493C28.6293 162.801 41.4037 155.221 47.4377 141.578C53.4832 127.929 50.4952 113.383 40.7783 109.075C31.0614 104.772 18.2812 112.352 12.2473 125.995C6.20753 139.644 9.18976 154.19 18.9066 158.493Z" fill="white"/>
<path d="M18.9066 158.493C28.6293 162.801 41.4037 155.221 47.4377 141.578C53.4832 127.929 50.4952 113.383 40.7783 109.075C31.0614 104.772 18.2812 112.352 12.2473 125.995C6.20753 139.644 9.18976 154.19 18.9066 158.493Z" fill="url(#paint0_linear_1707_5310)"/>
<path d="M13.5382 158.447C14.54 158.985 15.5592 159.448 16.6015 159.825C7.47528 153.38 4.75945 138.804 10.7297 125.306C15.9935 113.424 25.195 106.382 35.0566 106.428C20.574 102.085 10.3012 108.131 3.63604 120.569C-3.84562 134.542 0.584297 151.504 13.5382 158.447Z" fill="url(#paint1_linear_1707_5310)"/>
<path d="M86.0911 93.955C97.7131 94.9626 100.498 87.4346 100.632 87.0582C101.894 83.7806 101.9 80.6941 100.643 77.8914C99.2302 74.7239 96.4565 72.4423 94.1807 71.0004C95.7674 74.4228 95.7732 79.3159 93.9665 84.1628C92.264 88.7143 89.3165 92.2699 86.0911 93.955Z" fill="url(#paint2_linear_1707_5310)"/>
<path d="M88.6902 68.4409C92.8422 69.9928 94.2436 76.548 91.8115 83.051C89.3793 89.554 84.0229 93.5786 79.8767 92.0267C75.7247 90.4747 74.3234 83.9254 76.7555 77.4224C79.1876 70.9194 84.5441 66.889 88.6902 68.4409Z" fill="url(#paint3_linear_1707_5310)"/>
<path d="M39.7171 73.9653C48.6464 74.0405 50.3199 68.1282 50.401 67.8328C51.1654 65.256 50.9858 62.8991 49.8624 60.8376C48.5943 58.5039 46.3417 56.9289 44.5176 55.9676C45.9305 58.4866 46.2317 62.2158 45.143 66.0261C44.1181 69.599 42.0797 72.4886 39.7171 73.9653Z" fill="url(#paint4_linear_1707_5310)"/>
<path d="M40.1736 54.3404C43.4338 55.2785 44.8988 60.1948 43.428 65.3023C41.9629 70.4097 38.1178 73.8031 34.8576 72.865C31.5974 71.9269 30.1324 67.0164 31.6032 61.9089C33.0741 56.8015 36.9191 53.4081 40.1736 54.3404Z" fill="url(#paint5_linear_1707_5310)"/>
<path d="M29.5328 116.394L32.573 107.083L63.6983 115.815L64.8564 111.599L34.1249 102.323V102.317L36.0532 96.4044L66.0146 104.813L67.1727 100.597L37.5935 91.6676L39.7072 85.1935L69.489 93.2311L70.6472 89.1776L41.1954 80.6246L46.9051 63.1192C54.4331 46.9051 72.9635 53.854 72.9635 53.854L140.136 72.3844L211.942 92.073C228.156 97.8637 226.998 112.92 226.998 112.92L224.056 120.245L142.453 114.078C136.662 113.499 131.45 110.603 132.029 101.917C132.608 93.2311 125.08 90.9148 125.08 90.9148L103.023 85.0893C103.608 82.3155 103.342 79.6634 102.23 77.1734C99.2882 70.6182 91.824 67.8734 91.4939 67.7518L90.55 67.4391C90.1562 67.1843 89.7393 66.9758 89.2992 66.8137C84.2497 64.9259 77.8972 69.4137 75.1292 76.8143C72.3612 84.2149 74.2201 91.7718 79.2638 93.6538C79.5534 93.7639 79.8429 93.8507 80.1382 93.9144C80.144 93.9202 80.1498 93.926 80.1556 93.9202C82.4545 94.9799 86.178 95.5474 88.0194 95.5474C88.9691 95.5474 89.8609 95.4895 90.6948 95.3911L75.274 147.902C60.8492 142.951 51.5377 139.557 51.5377 139.557C20.2676 130.871 29.5328 116.394 29.5328 116.394Z" fill="url(#paint6_linear_1707_5310)"/>
<path d="M115.004 41.1722L119.932 42.4752C122.288 43.1006 123.696 45.5153 123.07 47.8721L118.692 64.3989L105.229 60.8318L109.607 44.305C110.226 41.954 112.647 40.5468 115.004 41.1722Z" fill="url(#paint7_linear_1707_5310)"/>
<path d="M119.242 40.3558L122.149 28.1315C122.983 23.9505 122.409 20.5398 120.435 17.9919C118.483 15.4729 115.669 14.5 113.943 14.1236C113.15 13.9499 112.397 14.5406 112.351 15.3513L112.241 17.3665L112.339 15.635L112.31 16.162C112.27 16.8105 112.698 17.407 113.335 17.5518C114.534 17.8297 116.451 18.5072 117.707 20.146C119.022 21.8543 119.369 24.3038 118.75 27.425L115.86 39.5566L119.242 40.3558Z" fill="url(#paint8_linear_1707_5310)"/>
<path d="M152.875 74.1217L202.948 88.0253C203.232 87.533 203.481 87.0177 203.701 86.4849C207.592 77.017 198.645 61.8221 185.303 58.4866C173.722 55.5912 167.931 54.4331 156.929 65.4355C155.093 67.2712 152.522 71.5564 152.875 74.1217Z" fill="url(#paint9_linear_1707_5310)"/>
<path d="M83.1198 192.172C94.7824 197.337 110.105 188.246 117.349 171.881C124.599 155.511 121.02 138.057 109.358 132.892C97.7009 127.732 82.3728 136.824 75.1286 153.189C67.8843 169.559 71.463 187.012 83.1198 192.172Z" fill="white"/>
<path d="M83.1198 192.172C94.7824 197.337 110.105 188.246 117.349 171.881C124.599 155.511 121.02 138.057 109.358 132.892C97.7009 127.732 82.3728 136.824 75.1286 153.189C67.8843 169.559 71.463 187.012 83.1198 192.172Z" fill="white"/>
<path d="M83.1198 192.172C94.7824 197.337 110.105 188.246 117.349 171.881C124.599 155.511 121.02 138.057 109.358 132.892C97.7009 127.732 82.3728 136.824 75.1286 153.189C67.8843 169.559 71.463 187.012 83.1198 192.172Z" fill="url(#paint10_linear_1707_5310)"/>
<path d="M76.6809 192.114C77.8796 192.757 79.1072 193.313 80.3523 193.77C69.4019 186.04 66.1475 168.557 73.3107 152.361C79.6226 138.104 90.6656 129.661 102.496 129.713C85.1238 124.501 72.8011 131.757 64.8041 146.68C55.8226 163.444 61.1385 183.787 76.6809 192.114Z" fill="url(#paint11_linear_1707_5310)"/>
<path d="M87.0115 183.382C95.217 187.012 105.994 180.619 111.089 169.107C116.191 157.59 113.672 145.313 105.467 141.682C97.2669 138.052 86.4845 144.45 81.3886 155.962C76.2928 167.474 78.8118 179.751 87.0115 183.382Z" fill="url(#paint12_linear_1707_5310)"/>
<path d="M229.863 168.384C238.115 138.387 228.716 109.642 208.866 104.181C189.015 98.7208 166.234 118.612 157.982 148.608C149.73 178.604 159.129 207.35 178.979 212.81C198.83 218.271 221.611 198.38 229.863 168.384Z" fill="url(#paint13_linear_1707_5310)"/>
<path d="M188.853 217.449C257.202 226.401 268.111 181.83 268.111 181.83C284.325 125.08 217.037 106.324 217.037 106.324V106.33C233.17 115.19 239.98 142.146 232.238 170.289C224.831 197.221 206.527 216.4 188.853 217.449Z" fill="url(#paint14_linear_1707_5310)"/>
<path d="M158.968 73.6873L197.239 84.3133C197.453 83.9369 197.644 83.5432 197.812 83.1378C200.789 75.8994 193.95 64.2889 183.752 61.741C174.898 59.5289 170.474 58.6429 162.066 67.0511C160.665 68.4467 158.702 71.7242 158.968 73.6873Z" fill="url(#paint15_linear_1707_5310)"/>
<path d="M142.4 142.551V142.557C142.62 144.12 142.742 145.817 142.742 147.664H150.27C150.27 144.879 150.038 142.348 149.633 140.049L142.4 142.551Z" fill="url(#paint16_linear_1707_5310)"/>
<path d="M140.535 135.631C141.224 137.258 141.809 139.14 142.202 141.312L149.389 138.816C148.873 136.395 148.167 134.247 147.333 132.353L140.535 135.631Z" fill="url(#paint17_linear_1707_5310)"/>
<path d="M136.517 129.412C137.704 130.651 138.954 132.319 140.026 134.508L146.812 131.224C145.567 128.676 144.114 126.626 142.66 124.982L136.517 129.412Z" fill="url(#paint18_linear_1707_5310)"/>
<path d="M132.306 126.233C132.312 126.238 132.323 126.244 132.341 126.25C132.607 126.372 133.968 127.026 135.618 128.532L141.803 124.061C138.514 120.691 135.462 119.394 135.19 119.278L133.765 122.764L132.306 126.233Z" fill="url(#paint19_linear_1707_5310)"/>
<path d="M136.274 144.676L129.07 147.166C129.296 148.55 129.423 150.085 129.423 151.77H136.951C136.951 149.147 136.702 146.79 136.274 144.676Z" fill="url(#paint20_linear_1707_5310)"/>
<path d="M127.542 141.902C128.063 143.072 128.515 144.41 128.845 145.95L136.008 143.466C135.568 141.665 134.994 140.061 134.34 138.625L127.542 141.902Z" fill="url(#paint21_linear_1707_5310)"/>
<path d="M124.935 137.768C125.636 138.573 126.354 139.569 127.002 140.796L133.801 137.513C132.955 135.892 132.011 134.513 131.056 133.355L124.935 137.768Z" fill="url(#paint22_linear_1707_5310)"/>
<path d="M121.294 134.861C121.305 134.867 121.317 134.872 121.34 134.878C121.595 135.006 122.735 135.579 124.079 136.876L130.24 132.423C127.293 129.226 124.432 128.016 124.189 127.912L122.764 131.398L122.73 131.473L121.294 134.861Z" fill="url(#paint23_linear_1707_5310)"/>
<path d="M109.306 101.599C109.52 101.043 109.723 100.881 110.174 100.898C110.522 100.91 110.875 100.898 111.205 100.956C111.865 101.078 112.468 100.979 112.942 100.076C112.977 100.006 113.041 99.9484 113.093 99.8963C113.244 99.7515 113.278 99.5952 113.261 99.3925C113.215 98.7208 113.197 98.0433 113.151 97.3715C113.122 96.8967 113.29 96.5724 113.655 96.3408C114.298 95.9296 114.934 95.5127 115.577 95.1016C116.029 94.8178 116.208 94.8584 116.463 95.2985C116.747 95.7791 117.019 96.2713 117.303 96.7519C117.367 96.862 117.401 97.0009 117.569 96.9662C117.923 96.8967 118.276 96.8504 118.629 96.804C118.762 96.7867 118.832 96.6766 118.907 96.5435C119.33 95.837 119.752 95.1305 120.181 94.4298C120.476 93.9492 120.702 93.8392 121.09 93.9839C121.686 94.204 122.289 94.4356 122.879 94.6673C123.267 94.8178 123.36 95.0494 123.262 95.6054C123.169 96.1149 123.105 96.6303 122.966 97.1283C122.752 97.9101 122.729 98.5586 123.291 98.9292C123.377 98.9872 123.441 99.103 123.493 99.213C123.586 99.3925 123.719 99.4041 123.904 99.3404C124.483 99.1319 125.068 98.9582 125.647 98.7555C126.024 98.6281 126.25 98.7729 126.36 99.1725C126.568 99.9368 126.782 100.701 126.991 101.466C127.101 101.871 126.997 102.218 126.678 102.531C126.371 102.832 126.093 103.185 125.769 103.44C125.126 103.95 124.785 104.564 124.848 105.444C124.866 105.67 124.866 105.832 125.022 105.953C125.491 106.312 125.937 106.7 126.394 107.077C126.788 107.401 126.829 107.633 126.597 108.247C126.296 109.046 125.983 109.839 125.688 110.638C125.514 111.119 125.242 111.321 124.871 111.31C124.426 111.293 123.98 111.304 123.545 111.246C123.036 111.182 122.567 111.211 122.219 111.941C122.185 112.011 122.127 112.074 122.069 112.121C121.744 112.393 121.687 112.723 121.727 113.122C121.785 113.661 121.785 114.223 121.82 114.773C121.849 115.219 121.687 115.543 121.333 115.769C120.679 116.186 120.025 116.603 119.376 117.037C118.988 117.298 118.716 117.216 118.513 116.846C118.247 116.365 117.969 115.896 117.697 115.427C117.523 115.132 116.313 115.323 116.087 115.676C116.035 115.757 115.983 115.838 115.93 115.919C115.554 116.545 115.183 117.17 114.807 117.79C114.512 118.27 114.292 118.375 113.898 118.224C113.319 118.01 112.746 117.79 112.172 117.57C111.703 117.39 111.628 117.188 111.755 116.504C111.9 115.728 112.045 114.946 112.19 114.171C112.242 113.869 111.46 112.827 111.228 112.873C111.165 112.885 111.101 112.914 111.037 112.931C110.545 113.093 110.053 113.256 109.561 113.418C109.41 113.47 109.254 113.522 109.097 113.447C108.947 113.418 108.86 113.267 108.808 113.082C108.582 112.277 108.362 111.472 108.142 110.667C108.049 110.314 108.148 109.995 108.42 109.717C108.646 109.486 108.86 109.225 109.103 109.04C109.862 108.461 110.244 107.725 110.163 106.706C110.146 106.509 110.134 106.376 110.001 106.272C109.514 105.896 109.045 105.496 108.57 105.102C108.223 104.813 108.182 104.558 108.391 103.996C108.692 103.191 108.999 102.392 109.306 101.599ZM115.687 110.928C117.662 111.646 120.059 110.082 121.061 107.43C122.063 104.761 121.299 102.004 119.341 101.269C117.384 100.528 114.981 102.079 113.962 104.737C112.937 107.413 113.718 110.215 115.687 110.928Z" fill="url(#paint24_linear_1707_5310)"/>
<path d="M91.2622 113.024C91.4185 112.613 91.5807 112.497 91.9455 112.514C92.2235 112.532 92.5072 112.532 92.7794 112.584C93.3179 112.688 93.7985 112.63 94.1634 111.964C94.1923 111.912 94.2387 111.872 94.2792 111.831C94.395 111.727 94.4182 111.611 94.4066 111.455C94.3545 110.951 94.3197 110.435 94.2676 109.932C94.2329 109.573 94.3603 109.335 94.6498 109.167C95.1594 108.878 95.6632 108.571 96.1728 108.281C96.526 108.079 96.6766 108.113 96.8908 108.449C97.1282 108.82 97.3657 109.196 97.6031 109.561C97.6552 109.642 97.6899 109.752 97.8231 109.729C98.1069 109.683 98.3906 109.66 98.6744 109.631C98.7844 109.619 98.8307 109.538 98.8944 109.439C99.2187 108.918 99.543 108.397 99.873 107.876C100.099 107.523 100.278 107.447 100.597 107.563C101.083 107.743 101.576 107.934 102.056 108.119C102.375 108.241 102.45 108.415 102.386 108.831C102.323 109.214 102.282 109.596 102.184 109.972C102.027 110.557 102.027 111.044 102.49 111.339C102.56 111.385 102.612 111.472 102.664 111.553C102.745 111.686 102.85 111.704 103 111.657C103.463 111.518 103.927 111.397 104.396 111.258C104.697 111.171 104.882 111.287 104.98 111.588C105.166 112.167 105.357 112.746 105.548 113.325C105.646 113.632 105.571 113.893 105.322 114.118C105.085 114.338 104.865 114.593 104.61 114.779C104.106 115.149 103.846 115.601 103.915 116.267C103.932 116.44 103.938 116.562 104.066 116.655C104.454 116.933 104.824 117.24 105.201 117.535C105.525 117.79 105.565 117.963 105.392 118.415C105.166 119.006 104.934 119.596 104.714 120.193C104.587 120.546 104.372 120.697 104.071 120.679C103.712 120.656 103.353 120.65 103 120.598C102.589 120.535 102.213 120.546 101.946 121.09C101.923 121.143 101.871 121.189 101.83 121.224C101.576 121.421 101.541 121.664 101.581 121.971C101.639 122.376 101.657 122.799 101.697 123.216C101.732 123.552 101.61 123.795 101.327 123.957C100.811 124.252 100.29 124.553 99.7746 124.86C99.4677 125.046 99.2477 124.976 99.0739 124.692C98.8481 124.322 98.6165 123.963 98.3791 123.604C98.2343 123.378 97.2614 123.494 97.0877 123.754C97.0472 123.812 97.0066 123.876 96.9661 123.934C96.6766 124.391 96.3986 124.854 96.1033 125.312C95.8775 125.665 95.7037 125.74 95.3794 125.619C94.9104 125.445 94.4413 125.266 93.9723 125.08C93.5901 124.93 93.5206 124.779 93.6075 124.27C93.7059 123.691 93.8043 123.106 93.9028 122.527C93.9375 122.301 93.2832 121.496 93.0921 121.531C93.04 121.536 92.9936 121.554 92.9415 121.571C92.5478 121.681 92.154 121.791 91.7602 121.901C91.6386 121.936 91.517 121.971 91.3838 121.913C91.2622 121.89 91.1869 121.774 91.1406 121.635C90.9379 121.027 90.741 120.413 90.5441 119.799C90.4573 119.533 90.5326 119.29 90.741 119.093C90.9206 118.925 91.0827 118.734 91.2738 118.6C91.8702 118.184 92.1598 117.639 92.0729 116.869C92.0555 116.718 92.044 116.62 91.9339 116.539C91.5344 116.244 91.1406 115.937 90.7526 115.624C90.4631 115.398 90.4283 115.201 90.5847 114.79C90.8047 114.211 91.0306 113.615 91.2622 113.024ZM96.636 120.199C98.2459 120.789 100.145 119.672 100.886 117.697C101.633 115.711 100.944 113.62 99.3519 113.018C97.7536 112.416 95.8543 113.522 95.0957 115.497C94.3313 117.489 95.0262 119.614 96.636 120.199Z" fill="url(#paint25_linear_1707_5310)"/>
<path d="M219.202 164.614C225.27 142.551 218.356 121.409 203.758 117.39C189.159 113.371 172.401 128.005 166.332 150.067C160.263 172.13 167.178 193.272 181.776 197.291C196.375 201.304 213.133 186.677 219.202 164.614Z" fill="url(#paint26_linear_1707_5310)"/>
<path d="M110.603 13.8978C109.643 13.8978 108.865 13.12 108.865 12.1606C108.865 11.2012 109.643 10.4234 110.603 10.4234C111.562 10.4234 112.34 11.2012 112.34 12.1606C112.34 13.12 111.562 13.8978 110.603 13.8978Z" fill="url(#paint27_linear_1707_5310)"/>
<path d="M121.026 12.7397C120.067 12.7397 119.289 11.9619 119.289 11.0024C119.289 10.043 120.067 9.2652 121.026 9.2652C121.986 9.2652 122.764 10.043 122.764 11.0024C122.764 11.9619 121.986 12.7397 121.026 12.7397Z" fill="url(#paint28_linear_1707_5310)"/>
<path d="M127.396 16.2141C126.436 16.2141 125.658 15.4363 125.658 14.4769C125.658 13.5174 126.436 12.7397 127.396 12.7397C128.355 12.7397 129.133 13.5174 129.133 14.4769C129.133 15.4363 128.355 16.2141 127.396 16.2141Z" fill="url(#paint29_linear_1707_5310)"/>
<path d="M150.56 17.3722C149.6 17.3722 148.822 16.5945 148.822 15.635C148.822 14.6756 149.6 13.8978 150.56 13.8978C151.519 13.8978 152.297 14.6756 152.297 15.635C152.297 16.5945 151.519 17.3722 150.56 17.3722Z" fill="url(#paint30_linear_1707_5310)"/>
<path d="M159.245 19.6886C158.286 19.6886 157.508 18.9108 157.508 17.9513C157.508 16.9919 158.286 16.2141 159.245 16.2141C160.205 16.2141 160.982 16.9919 160.982 17.9513C160.982 18.9108 160.205 19.6886 159.245 19.6886Z" fill="url(#paint31_linear_1707_5310)"/>
<path d="M171.984 15.635C170.705 15.635 169.668 14.598 169.668 13.3187C169.668 12.0395 170.705 11.0024 171.984 11.0024C173.264 11.0024 174.301 12.0395 174.301 13.3187C174.301 14.598 173.264 15.635 171.984 15.635Z" fill="url(#paint32_linear_1707_5310)"/>
<path d="M147.085 30.1119C146.126 30.1119 145.348 29.3342 145.348 28.3747C145.348 27.4153 146.126 26.6375 147.085 26.6375C148.044 26.6375 148.822 27.4153 148.822 28.3747C148.822 29.3342 148.044 30.1119 147.085 30.1119Z" fill="url(#paint33_linear_1707_5310)"/>
<path d="M133.767 13.8978C132.807 13.8978 132.029 13.12 132.029 12.1606C132.029 11.2012 132.807 10.4234 133.767 10.4234C134.726 10.4234 135.504 11.2012 135.504 12.1606C135.504 13.12 134.726 13.8978 133.767 13.8978Z" fill="url(#paint34_linear_1707_5310)"/>
<path d="M134.345 5.79075C132.746 5.79075 131.449 4.49445 131.449 2.89538C131.449 1.2963 132.746 0 134.345 0C135.944 0 137.24 1.2963 137.24 2.89538C137.24 4.49445 135.944 5.79075 134.345 5.79075Z" fill="url(#paint35_linear_1707_5310)"/>
<path d="M166.774 24.9002C164.855 24.9002 163.299 23.3447 163.299 21.4258C163.299 19.5069 164.855 17.9513 166.774 17.9513C168.692 17.9513 170.248 19.5069 170.248 21.4258C170.248 23.3447 168.692 24.9002 166.774 24.9002Z" fill="url(#paint36_linear_1707_5310)"/>
<path d="M181.25 23.7421C178.692 23.7421 176.618 21.668 176.618 19.1095C176.618 16.551 178.692 14.4769 181.25 14.4769C183.809 14.4769 185.883 16.551 185.883 19.1095C185.883 21.668 183.809 23.7421 181.25 23.7421Z" fill="url(#paint37_linear_1707_5310)"/>
<path d="M155.192 30.1119C153.273 30.1119 151.717 28.5564 151.717 26.6375C151.717 24.7186 153.273 23.163 155.192 23.163C157.11 23.163 158.666 24.7186 158.666 26.6375C158.666 28.5564 157.11 30.1119 155.192 30.1119Z" fill="url(#paint38_linear_1707_5310)"/>
<path d="M158.087 9.84427C155.848 9.84427 154.034 8.02944 154.034 5.79074C154.034 3.55204 155.848 1.73721 158.087 1.73721C160.326 1.73721 162.141 3.55204 162.141 5.79074C162.141 8.02944 160.326 9.84427 158.087 9.84427Z" fill="url(#paint39_linear_1707_5310)"/>
<path d="M140.715 15.056C138.796 15.056 137.241 13.5004 137.241 11.5815C137.241 9.66262 138.796 8.10706 140.715 8.10706C142.634 8.10706 144.189 9.66262 144.189 11.5815C144.189 13.5004 142.634 15.056 140.715 15.056Z" fill="url(#paint40_linear_1707_5310)"/>
<path d="M138.399 27.7956C135.84 27.7956 133.766 25.7215 133.766 23.163C133.766 20.6045 135.84 18.5304 138.399 18.5304C140.957 18.5304 143.031 20.6045 143.031 23.163C143.031 25.7215 140.957 27.7956 138.399 27.7956Z" fill="url(#paint41_linear_1707_5310)"/>
<path d="M122.184 7.52797C121.544 7.52797 121.025 7.00945 121.025 6.36982C121.025 5.73019 121.544 5.21167 122.184 5.21167C122.823 5.21167 123.342 5.73019 123.342 6.36982C123.342 7.00945 122.823 7.52797 122.184 7.52797Z" fill="url(#paint42_linear_1707_5310)"/>
<path d="M128.555 10.4234C127.915 10.4234 127.397 9.90484 127.397 9.26521C127.397 8.62558 127.915 8.10706 128.555 8.10706C129.194 8.10706 129.713 8.62558 129.713 9.26521C129.713 9.90484 129.194 10.4234 128.555 10.4234Z" fill="url(#paint43_linear_1707_5310)"/>
<path d="M146.505 7.52799C146.185 7.52799 145.926 7.26873 145.926 6.94892C145.926 6.6291 146.185 6.36984 146.505 6.36984C146.825 6.36984 147.084 6.6291 147.084 6.94892C147.084 7.26873 146.825 7.52799 146.505 7.52799Z" fill="url(#paint44_linear_1707_5310)"/>
<path d="M147.085 22.5839C146.765 22.5839 146.506 22.3247 146.506 22.0049C146.506 21.685 146.765 21.4258 147.085 21.4258C147.405 21.4258 147.664 21.685 147.664 22.0049C147.664 22.3247 147.405 22.5839 147.085 22.5839Z" fill="url(#paint45_linear_1707_5310)"/>
<path d="M115.236 10.4234C114.597 10.4234 114.078 9.90484 114.078 9.26521C114.078 8.62558 114.597 8.10706 115.236 8.10706C115.876 8.10706 116.395 8.62558 116.395 9.26521C116.395 9.90484 115.876 10.4234 115.236 10.4234Z" fill="url(#paint46_linear_1707_5310)"/>
<path d="M299.96 225.26C293.884 225.26 288.958 220.334 288.958 214.258C288.958 208.181 293.884 203.255 299.96 203.255C306.037 203.255 310.963 208.181 310.963 214.258C310.963 220.334 306.037 225.26 299.96 225.26Z" fill="url(#paint47_linear_1707_5310)"/>
<path d="M328.915 202.097C321.879 202.097 316.175 196.394 316.175 189.358C316.175 182.322 321.879 176.618 328.915 176.618C335.951 176.618 341.654 182.322 341.654 189.358C341.654 196.394 335.951 202.097 328.915 202.097Z" fill="url(#paint48_linear_1707_5310)"/>
<path d="M308.647 155.771C303.53 155.771 299.382 151.623 299.382 146.506C299.382 141.389 303.53 137.241 308.647 137.241C313.764 137.241 317.912 141.389 317.912 146.506C317.912 151.623 313.764 155.771 308.647 155.771Z" fill="url(#paint49_linear_1707_5310)"/>
<path d="M284.325 128.555C281.447 128.555 279.114 126.221 279.114 123.343C279.114 120.465 281.447 118.131 284.325 118.131C287.204 118.131 289.537 120.465 289.537 123.343C289.537 126.221 287.204 128.555 284.325 128.555Z" fill="url(#paint50_linear_1707_5310)"/>
<path d="M295.906 177.197C293.348 177.197 291.274 175.123 291.274 172.564C291.274 170.006 293.348 167.932 295.906 167.932C298.465 167.932 300.539 170.006 300.539 172.564C300.539 175.123 298.465 177.197 295.906 177.197Z" fill="url(#paint51_linear_1707_5310)"/>
<path d="M312.7 170.248C309.822 170.248 307.489 167.915 307.489 165.036C307.489 162.158 309.822 159.825 312.7 159.825C315.579 159.825 317.912 162.158 317.912 165.036C317.912 167.915 315.579 170.248 312.7 170.248Z" fill="url(#paint52_linear_1707_5310)"/>
<path d="M331.232 145.927C328.993 145.927 327.178 144.112 327.178 141.873C327.178 139.635 328.993 137.82 331.232 137.82C333.47 137.82 335.285 139.635 335.285 141.873C335.285 144.112 333.47 145.927 331.232 145.927Z" fill="url(#paint53_linear_1707_5310)"/>
<path d="M339.916 160.983C338.637 160.983 337.6 159.946 337.6 158.667C337.6 157.387 338.637 156.35 339.916 156.35C341.195 156.35 342.232 157.387 342.232 158.667C342.232 159.946 341.195 160.983 339.916 160.983Z" fill="url(#paint54_linear_1707_5310)"/>
<path d="M351.499 149.981C350.54 149.981 349.762 149.203 349.762 148.243C349.762 147.284 350.54 146.506 351.499 146.506C352.459 146.506 353.236 147.284 353.236 148.243C353.236 149.203 352.459 149.981 351.499 149.981Z" fill="url(#paint55_linear_1707_5310)"/>
<path d="M372.346 156.35C369.787 156.35 367.713 154.276 367.713 151.718C367.713 149.159 369.787 147.085 372.346 147.085C374.904 147.085 376.979 149.159 376.979 151.718C376.979 154.276 374.904 156.35 372.346 156.35Z" fill="url(#paint56_linear_1707_5310)"/>
<path d="M359.605 170.248C356.726 170.248 354.393 167.915 354.393 165.036C354.393 162.158 356.726 159.825 359.605 159.825C362.483 159.825 364.816 162.158 364.816 165.036C364.816 167.915 362.483 170.248 359.605 170.248Z" fill="url(#paint57_linear_1707_5310)"/>
<path d="M343.97 175.46C341.731 175.46 339.916 173.645 339.916 171.406C339.916 169.168 341.731 167.353 343.97 167.353C346.209 167.353 348.023 169.168 348.023 171.406C348.023 173.645 346.209 175.46 343.97 175.46Z" fill="url(#paint58_linear_1707_5310)"/>
<path d="M357.868 194.569C354.99 194.569 352.657 192.236 352.657 189.358C352.657 186.479 354.99 184.146 357.868 184.146C360.747 184.146 363.08 186.479 363.08 189.358C363.08 192.236 360.747 194.569 357.868 194.569Z" fill="url(#paint59_linear_1707_5310)"/>
<path d="M370.609 225.26C364.532 225.26 359.606 220.334 359.606 214.258C359.606 208.181 364.532 203.255 370.609 203.255C376.685 203.255 381.611 208.181 381.611 214.258C381.611 220.334 376.685 225.26 370.609 225.26Z" fill="url(#paint60_linear_1707_5310)"/>
<path d="M376.977 189.937C371.86 189.937 367.712 185.789 367.712 180.672C367.712 175.555 371.86 171.406 376.977 171.406C382.094 171.406 386.242 175.555 386.242 180.672C386.242 185.789 382.094 189.937 376.977 189.937Z" fill="url(#paint61_linear_1707_5310)"/>
<path d="M393.193 169.669C390.314 169.669 387.981 167.336 387.981 164.457C387.981 161.579 390.314 159.246 393.193 159.246C396.071 159.246 398.404 161.579 398.404 164.457C398.404 167.336 396.071 169.669 393.193 169.669Z" fill="url(#paint62_linear_1707_5310)"/>
<path d="M402.456 192.832C400.218 192.832 398.403 191.017 398.403 188.779C398.403 186.54 400.218 184.725 402.456 184.725C404.695 184.725 406.51 186.54 406.51 188.779C406.51 191.017 404.695 192.832 402.456 192.832Z" fill="url(#paint63_linear_1707_5310)"/>
<path d="M417.513 182.409C415.274 182.409 413.459 180.594 413.459 178.355C413.459 176.117 415.274 174.302 417.513 174.302C419.752 174.302 421.566 176.117 421.566 178.355C421.566 180.594 419.752 182.409 417.513 182.409Z" fill="url(#paint64_linear_1707_5310)"/>
<path d="M424.462 200.36C421.584 200.36 419.25 198.027 419.25 195.148C419.25 192.27 421.584 189.937 424.462 189.937C427.34 189.937 429.674 192.27 429.674 195.148C429.674 198.027 427.34 200.36 424.462 200.36Z" fill="url(#paint65_linear_1707_5310)"/>
<path d="M449.362 170.248C446.803 170.248 444.729 168.174 444.729 165.616C444.729 163.057 446.803 160.983 449.362 160.983C451.92 160.983 453.994 163.057 453.994 165.616C453.994 168.174 451.92 170.248 449.362 170.248Z" fill="url(#paint66_linear_1707_5310)"/>
<path d="M422.725 166.195C418.248 166.195 414.618 162.565 414.618 158.088C414.618 153.61 418.248 149.981 422.725 149.981C427.202 149.981 430.832 153.61 430.832 158.088C430.832 162.565 427.202 166.195 422.725 166.195Z" fill="url(#paint67_linear_1707_5310)"/>
<path d="M445.889 148.822C444.61 148.822 443.572 147.785 443.572 146.506C443.572 145.227 444.61 144.19 445.889 144.19C447.168 144.19 448.205 145.227 448.205 146.506C448.205 147.785 447.168 148.822 445.889 148.822Z" fill="url(#paint68_linear_1707_5310)"/>
<path d="M444.729 196.307C439.612 196.307 435.464 192.158 435.464 187.041C435.464 181.924 439.612 177.776 444.729 177.776C449.846 177.776 453.994 181.924 453.994 187.041C453.994 192.158 449.846 196.307 444.729 196.307Z" fill="url(#paint69_linear_1707_5310)"/>
<path d="M471.947 157.509C469.068 157.509 466.735 155.175 466.735 152.297C466.735 149.419 469.068 147.085 471.947 147.085C474.825 147.085 477.158 149.419 477.158 152.297C477.158 155.175 474.825 157.509 471.947 157.509Z" fill="url(#paint70_linear_1707_5310)"/>
<path d="M490.477 152.876C489.197 152.876 488.16 151.839 488.16 150.56C488.16 149.28 489.197 148.243 490.477 148.243C491.756 148.243 492.793 149.28 492.793 150.56C492.793 151.839 491.756 152.876 490.477 152.876Z" fill="url(#paint71_linear_1707_5310)"/>
<path d="M343.971 203.835C342.692 203.835 341.655 202.798 341.655 201.518C341.655 200.239 342.692 199.202 343.971 199.202C345.25 199.202 346.287 200.239 346.287 201.518C346.287 202.798 345.25 203.835 343.971 203.835Z" fill="url(#paint72_linear_1707_5310)"/>
<path d="M350.92 219.47C349.641 219.47 348.604 218.433 348.604 217.153C348.604 215.874 349.641 214.837 350.92 214.837C352.199 214.837 353.236 215.874 353.236 217.153C353.236 218.433 352.199 219.47 350.92 219.47Z" fill="url(#paint73_linear_1707_5310)"/>
<path d="M389.139 203.255C387.86 203.255 386.822 202.218 386.822 200.939C386.822 199.66 387.86 198.623 389.139 198.623C390.418 198.623 391.455 199.66 391.455 200.939C391.455 202.218 390.418 203.255 389.139 203.255Z" fill="url(#paint74_linear_1707_5310)"/>
<path d="M407.668 212.521C406.389 212.521 405.352 211.484 405.352 210.204C405.352 208.925 406.389 207.888 407.668 207.888C408.947 207.888 409.984 208.925 409.984 210.204C409.984 211.484 408.947 212.521 407.668 212.521Z" fill="url(#paint75_linear_1707_5310)"/>
<path d="M327.756 224.102C323.918 224.102 320.807 220.991 320.807 217.153C320.807 213.316 323.918 210.204 327.756 210.204C331.594 210.204 334.705 213.316 334.705 217.153C334.705 220.991 331.594 224.102 327.756 224.102Z" fill="url(#paint76_linear_1707_5310)"/>
<path d="M339.337 238C336.459 238 334.125 235.667 334.125 232.788C334.125 229.91 336.459 227.577 339.337 227.577C342.215 227.577 344.549 229.91 344.549 232.788C344.549 235.667 342.215 238 339.337 238Z" fill="url(#paint77_linear_1707_5310)"/>
<path d="M274.482 230.472C271.603 230.472 269.27 228.139 269.27 225.26C269.27 222.382 271.603 220.049 274.482 220.049C277.36 220.049 279.693 222.382 279.693 225.26C279.693 228.139 277.36 230.472 274.482 230.472Z" fill="url(#paint78_linear_1707_5310)"/>
<path d="M301.698 198.044C298.82 198.044 296.487 195.71 296.487 192.832C296.487 189.954 298.82 187.62 301.698 187.62C304.577 187.62 306.91 189.954 306.91 192.832C306.91 195.71 304.577 198.044 301.698 198.044Z" fill="url(#paint79_linear_1707_5310)"/>
<path d="M282.009 203.255C279.77 203.255 277.955 201.441 277.955 199.202C277.955 196.963 279.77 195.148 282.009 195.148C284.248 195.148 286.062 196.963 286.062 199.202C286.062 201.441 284.248 203.255 282.009 203.255Z" fill="url(#paint80_linear_1707_5310)"/>
</g>
<defs>
<linearGradient id="paint0_linear_1707_5310" x1="28.0503" y1="165.621" x2="31.2239" y2="109.362" gradientUnits="userSpaceOnUse">
<stop stop-color="#1B242B"/>
<stop offset="0.1964" stop-color="#1E272E"/>
<stop offset="0.3624" stop-color="#283139"/>
<stop offset="0.5174" stop-color="#37424A"/>
<stop offset="0.6656" stop-color="#4E5A63"/>
<stop offset="0.8091" stop-color="#6B7883"/>
<stop offset="0.9471" stop-color="#8E9DA9"/>
<stop offset="1" stop-color="#9DADBA"/>
</linearGradient>
<linearGradient id="paint1_linear_1707_5310" x1="33.3898" y1="104.186" x2="-0.839961" y2="156.946" gradientUnits="userSpaceOnUse">
<stop stop-color="#8893A0"/>
<stop offset="0.4386" stop-color="#ABB7C6"/>
<stop offset="0.6214" stop-color="#C2CBD6"/>
<stop offset="0.8535" stop-color="#D9DFE5"/>
<stop offset="1" stop-color="#E1E6EB"/>
</linearGradient>
<linearGradient id="paint2_linear_1707_5310" x1="92.3749" y1="94.1302" x2="98.037" y2="74.0556" gradientUnits="userSpaceOnUse">
<stop stop-color="#293642"/>
<stop offset="0.2106" stop-color="#323F4A"/>
<stop offset="0.5531" stop-color="#4A5661"/>
<stop offset="0.9827" stop-color="#717B85"/>
<stop offset="1" stop-color="#737D87"/>
</linearGradient>
<linearGradient id="paint3_linear_1707_5310" x1="83.0057" y1="90.6186" x2="85.7509" y2="68.3135" gradientUnits="userSpaceOnUse">
<stop stop-color="#A2AEBA"/>
<stop offset="1" stop-color="#E9EFF4"/>
</linearGradient>
<linearGradient id="paint4_linear_1707_5310" x1="50.8667" y1="64.9664" x2="39.7195" y2="64.9664" gradientUnits="userSpaceOnUse">
<stop stop-color="#293642"/>
<stop offset="0.2106" stop-color="#323F4A"/>
<stop offset="0.5531" stop-color="#4A5661"/>
<stop offset="0.9827" stop-color="#717B85"/>
<stop offset="1" stop-color="#737D87"/>
</linearGradient>
<linearGradient id="paint5_linear_1707_5310" x1="44.0004" y1="63.6046" x2="31.0356" y2="63.6046" gradientUnits="userSpaceOnUse">
<stop stop-color="#A2AEBA"/>
<stop offset="1" stop-color="#E9EFF4"/>
</linearGradient>
<linearGradient id="paint6_linear_1707_5310" x1="227.016" y1="100.138" x2="28.25" y2="100.138" gradientUnits="userSpaceOnUse">
<stop stop-color="#8893A0"/>
<stop offset="0.5061" stop-color="#ABB7C6"/>
<stop offset="1" stop-color="#E1E6EB"/>
</linearGradient>
<linearGradient id="paint7_linear_1707_5310" x1="123.216" y1="52.7136" x2="105.225" y2="52.7136" gradientUnits="userSpaceOnUse">
<stop stop-color="#293642"/>
<stop offset="0.2106" stop-color="#323F4A"/>
<stop offset="0.5531" stop-color="#4A5661"/>
<stop offset="0.9827" stop-color="#717B85"/>
<stop offset="1" stop-color="#737D87"/>
</linearGradient>
<linearGradient id="paint8_linear_1707_5310" x1="122.521" y1="27.2281" x2="112.243" y2="27.2281" gradientUnits="userSpaceOnUse">
<stop stop-color="#293642"/>
<stop offset="0.2106" stop-color="#323F4A"/>
<stop offset="0.5531" stop-color="#4A5661"/>
<stop offset="0.9827" stop-color="#717B85"/>
<stop offset="1" stop-color="#737D87"/>
</linearGradient>
<linearGradient id="paint9_linear_1707_5310" x1="204.617" y1="72.2675" x2="152.842" y2="72.2675" gradientUnits="userSpaceOnUse">
<stop stop-color="#8893A0"/>
<stop offset="0.5061" stop-color="#ABB7C6"/>
<stop offset="1" stop-color="#E1E6EB"/>
</linearGradient>
<linearGradient id="paint10_linear_1707_5310" x1="112.2" y1="188.07" x2="81.3163" y2="138.655" gradientUnits="userSpaceOnUse">
<stop stop-color="#1E2830"/>
<stop offset="0.4086" stop-color="#47515A"/>
<stop offset="0.7907" stop-color="#67717B"/>
<stop offset="1" stop-color="#737D87"/>
</linearGradient>
<linearGradient id="paint11_linear_1707_5310" x1="98.7964" y1="131.643" x2="62.5078" y2="184.661" gradientUnits="userSpaceOnUse">
<stop stop-color="#8893A0"/>
<stop offset="0.5061" stop-color="#ABB7C6"/>
<stop offset="1" stop-color="#E1E6EB"/>
</linearGradient>
<linearGradient id="paint12_linear_1707_5310" x1="107.177" y1="178.282" x2="87.8747" y2="150.486" gradientUnits="userSpaceOnUse">
<stop stop-color="#141F26"/>
<stop offset="0.3531" stop-color="#242F36"/>
<stop offset="1" stop-color="#4A565E"/>
</linearGradient>
<linearGradient id="paint13_linear_1707_5310" x1="203.81" y1="209.857" x2="188.025" y2="127.842" gradientUnits="userSpaceOnUse">
<stop stop-color="#8893A0"/>
<stop offset="0.5061" stop-color="#ABB7C6"/>
<stop offset="1" stop-color="#E1E6EB"/>
</linearGradient>
<linearGradient id="paint14_linear_1707_5310" x1="238.769" y1="215.43" x2="216.807" y2="146.798" gradientUnits="userSpaceOnUse">
<stop stop-color="#141F26"/>
<stop offset="0.3531" stop-color="#242F36"/>
<stop offset="1" stop-color="#4A565E"/>
</linearGradient>
<linearGradient id="paint15_linear_1707_5310" x1="201.04" y1="81.4903" x2="166.038" y2="65.0189" gradientUnits="userSpaceOnUse">
<stop stop-color="#293642"/>
<stop offset="0.2106" stop-color="#323F4A"/>
<stop offset="0.5531" stop-color="#4A5661"/>
<stop offset="0.9827" stop-color="#717B85"/>
<stop offset="1" stop-color="#737D87"/>
</linearGradient>
<linearGradient id="paint16_linear_1707_5310" x1="135.952" y1="122.406" x2="148.477" y2="148.657" gradientUnits="userSpaceOnUse">
<stop stop-color="#2C3945"/>
<stop offset="0.2521" stop-color="#68727C"/>
<stop offset="0.5019" stop-color="#9CA4AC"/>
<stop offset="0.7177" stop-color="#C2C8CE"/>
<stop offset="0.8909" stop-color="#D9DEE3"/>
<stop offset="1" stop-color="#E1E6EB"/>
</linearGradient>
<linearGradient id="paint17_linear_1707_5310" x1="137.526" y1="121.655" x2="150.051" y2="147.906" gradientUnits="userSpaceOnUse">
<stop stop-color="#2C3945"/>
<stop offset="0.2521" stop-color="#68727C"/>
<stop offset="0.5019" stop-color="#9CA4AC"/>
<stop offset="0.7177" stop-color="#C2C8CE"/>
<stop offset="0.8909" stop-color="#D9DEE3"/>
<stop offset="1" stop-color="#E1E6EB"/>
</linearGradient>
<linearGradient id="paint18_linear_1707_5310" x1="137.53" y1="121.653" x2="150.055" y2="147.904" gradientUnits="userSpaceOnUse">
<stop stop-color="#2C3945"/>
<stop offset="0.2521" stop-color="#68727C"/>
<stop offset="0.5019" stop-color="#9CA4AC"/>
<stop offset="0.7177" stop-color="#C2C8CE"/>
<stop offset="0.8909" stop-color="#D9DEE3"/>
<stop offset="1" stop-color="#E1E6EB"/>
</linearGradient>
<linearGradient id="paint19_linear_1707_5310" x1="135.785" y1="122.486" x2="148.31" y2="148.737" gradientUnits="userSpaceOnUse">
<stop stop-color="#2C3945"/>
<stop offset="0.2521" stop-color="#68727C"/>
<stop offset="0.5019" stop-color="#9CA4AC"/>
<stop offset="0.7177" stop-color="#C2C8CE"/>
<stop offset="0.8909" stop-color="#D9DEE3"/>
<stop offset="1" stop-color="#E1E6EB"/>
</linearGradient>
<linearGradient id="paint20_linear_1707_5310" x1="124.748" y1="130.69" x2="137.273" y2="157.8" gradientUnits="userSpaceOnUse">
<stop stop-color="#2C3945"/>
<stop offset="0.2521" stop-color="#68727C"/>
<stop offset="0.5019" stop-color="#9CA4AC"/>
<stop offset="0.7177" stop-color="#C2C8CE"/>
<stop offset="0.8909" stop-color="#D9DEE3"/>
<stop offset="1" stop-color="#E1E6EB"/>
</linearGradient>
<linearGradient id="paint21_linear_1707_5310" x1="125.973" y1="130.125" x2="138.498" y2="157.234" gradientUnits="userSpaceOnUse">
<stop stop-color="#2C3945"/>
<stop offset="0.2521" stop-color="#68727C"/>
<stop offset="0.5019" stop-color="#9CA4AC"/>
<stop offset="0.7177" stop-color="#C2C8CE"/>
<stop offset="0.8909" stop-color="#D9DEE3"/>
<stop offset="1" stop-color="#E1E6EB"/>
</linearGradient>
<linearGradient id="paint22_linear_1707_5310" x1="125.909" y1="130.154" x2="138.434" y2="157.263" gradientUnits="userSpaceOnUse">
<stop stop-color="#2C3945"/>
<stop offset="0.2521" stop-color="#68727C"/>
<stop offset="0.5019" stop-color="#9CA4AC"/>
<stop offset="0.7177" stop-color="#C2C8CE"/>
<stop offset="0.8909" stop-color="#D9DEE3"/>
<stop offset="1" stop-color="#E1E6EB"/>
</linearGradient>
<linearGradient id="paint23_linear_1707_5310" x1="124.464" y1="130.822" x2="136.989" y2="157.931" gradientUnits="userSpaceOnUse">
<stop stop-color="#2C3945"/>
<stop offset="0.2521" stop-color="#68727C"/>
<stop offset="0.5019" stop-color="#9CA4AC"/>
<stop offset="0.7177" stop-color="#C2C8CE"/>
<stop offset="0.8909" stop-color="#D9DEE3"/>
<stop offset="1" stop-color="#E1E6EB"/>
</linearGradient>
<linearGradient id="paint24_linear_1707_5310" x1="116.044" y1="92.733" x2="118.617" y2="115.124" gradientUnits="userSpaceOnUse">
<stop stop-color="#2C3945"/>
<stop offset="0.2521" stop-color="#68727C"/>
<stop offset="0.5019" stop-color="#9CA4AC"/>
<stop offset="0.7177" stop-color="#C2C8CE"/>
<stop offset="0.8909" stop-color="#D9DEE3"/>
<stop offset="1" stop-color="#E1E6EB"/>
</linearGradient>
<linearGradient id="paint25_linear_1707_5310" x1="95.6733" y1="107.746" x2="100.563" y2="126.019" gradientUnits="userSpaceOnUse">
<stop stop-color="#2C3945"/>
<stop offset="0.2521" stop-color="#68727C"/>
<stop offset="0.5019" stop-color="#9CA4AC"/>
<stop offset="0.7177" stop-color="#C2C8CE"/>
<stop offset="0.8909" stop-color="#D9DEE3"/>
<stop offset="1" stop-color="#E1E6EB"/>
</linearGradient>
<linearGradient id="paint26_linear_1707_5310" x1="199.096" y1="201.476" x2="188.407" y2="126.937" gradientUnits="userSpaceOnUse">
<stop stop-color="#141F26"/>
<stop offset="0.2657" stop-color="#18232A"/>
<stop offset="0.5347" stop-color="#242F36"/>
<stop offset="0.8045" stop-color="#37434A"/>
<stop offset="1" stop-color="#4A565E"/>
</linearGradient>
<linearGradient id="paint27_linear_1707_5310" x1="111.871" y1="13.0928" x2="109.201" y2="11.1304" gradientUnits="userSpaceOnUse">
<stop stop-color="#656E77"/>
<stop offset="0.5622" stop-color="#ABB7C6"/>
<stop offset="1" stop-color="#E1E6EB"/>
</linearGradient>
<linearGradient id="paint28_linear_1707_5310" x1="122.295" y1="11.9346" x2="119.625" y2="9.97221" gradientUnits="userSpaceOnUse">
<stop stop-color="#656E77"/>
<stop offset="0.5622" stop-color="#ABB7C6"/>
<stop offset="1" stop-color="#E1E6EB"/>
</linearGradient>
<linearGradient id="paint29_linear_1707_5310" x1="128.664" y1="15.4091" x2="125.994" y2="13.4467" gradientUnits="userSpaceOnUse">
<stop stop-color="#656E77"/>
<stop offset="0.5622" stop-color="#ABB7C6"/>
<stop offset="1" stop-color="#E1E6EB"/>
</linearGradient>
<linearGradient id="paint30_linear_1707_5310" x1="151.828" y1="16.5672" x2="149.158" y2="14.6048" gradientUnits="userSpaceOnUse">
<stop stop-color="#656E77"/>
<stop offset="0.5622" stop-color="#ABB7C6"/>
<stop offset="1" stop-color="#E1E6EB"/>
</linearGradient>
<linearGradient id="paint31_linear_1707_5310" x1="160.514" y1="18.8835" x2="157.843" y2="16.9211" gradientUnits="userSpaceOnUse">
<stop stop-color="#656E77"/>
<stop offset="0.5622" stop-color="#ABB7C6"/>
<stop offset="1" stop-color="#E1E6EB"/>
</linearGradient>
<linearGradient id="paint32_linear_1707_5310" x1="173.676" y1="14.5617" x2="170.115" y2="11.9451" gradientUnits="userSpaceOnUse">
<stop stop-color="#656E77"/>
<stop offset="0.5622" stop-color="#ABB7C6"/>
<stop offset="1" stop-color="#E1E6EB"/>
</linearGradient>
<linearGradient id="paint33_linear_1707_5310" x1="148.353" y1="29.3069" x2="145.683" y2="27.3445" gradientUnits="userSpaceOnUse">
<stop stop-color="#656E77"/>
<stop offset="0.5622" stop-color="#ABB7C6"/>
<stop offset="1" stop-color="#E1E6EB"/>
</linearGradient>
<linearGradient id="paint34_linear_1707_5310" x1="135.035" y1="13.0928" x2="132.365" y2="11.1303" gradientUnits="userSpaceOnUse">
<stop stop-color="#656E77"/>
<stop offset="0.5622" stop-color="#ABB7C6"/>
<stop offset="1" stop-color="#E1E6EB"/>
</linearGradient>
<linearGradient id="paint35_linear_1707_5310" x1="136.459" y1="4.44904" x2="132.009" y2="1.17837" gradientUnits="userSpaceOnUse">
<stop stop-color="#656E77"/>
<stop offset="0.5622" stop-color="#ABB7C6"/>
<stop offset="1" stop-color="#E1E6EB"/>
</linearGradient>
<linearGradient id="paint36_linear_1707_5310" x1="169.31" y1="23.2902" x2="163.97" y2="19.3653" gradientUnits="userSpaceOnUse">
<stop stop-color="#656E77"/>
<stop offset="0.5622" stop-color="#ABB7C6"/>
<stop offset="1" stop-color="#E1E6EB"/>
</linearGradient>
<linearGradient id="paint37_linear_1707_5310" x1="184.633" y1="21.5954" x2="177.512" y2="16.3623" gradientUnits="userSpaceOnUse">
<stop stop-color="#656E77"/>
<stop offset="0.5622" stop-color="#ABB7C6"/>
<stop offset="1" stop-color="#E1E6EB"/>
</linearGradient>
<linearGradient id="paint38_linear_1707_5310" x1="157.728" y1="28.5019" x2="152.388" y2="24.577" gradientUnits="userSpaceOnUse">
<stop stop-color="#656E77"/>
<stop offset="0.5622" stop-color="#ABB7C6"/>
<stop offset="1" stop-color="#E1E6EB"/>
</linearGradient>
<linearGradient id="paint39_linear_1707_5310" x1="161.047" y1="7.96586" x2="154.816" y2="3.38688" gradientUnits="userSpaceOnUse">
<stop stop-color="#656E77"/>
<stop offset="0.5622" stop-color="#ABB7C6"/>
<stop offset="1" stop-color="#E1E6EB"/>
</linearGradient>
<linearGradient id="paint40_linear_1707_5310" x1="143.252" y1="13.4459" x2="137.911" y2="9.52104" gradientUnits="userSpaceOnUse">
<stop stop-color="#656E77"/>
<stop offset="0.5622" stop-color="#ABB7C6"/>
<stop offset="1" stop-color="#E1E6EB"/>
</linearGradient>
<linearGradient id="paint41_linear_1707_5310" x1="141.781" y1="25.6489" x2="134.661" y2="20.4158" gradientUnits="userSpaceOnUse">
<stop stop-color="#656E77"/>
<stop offset="0.5622" stop-color="#ABB7C6"/>
<stop offset="1" stop-color="#E1E6EB"/>
</linearGradient>
<linearGradient id="paint42_linear_1707_5310" x1="123.029" y1="6.99128" x2="121.249" y2="5.68297" gradientUnits="userSpaceOnUse">
<stop stop-color="#656E77"/>
<stop offset="0.5622" stop-color="#ABB7C6"/>
<stop offset="1" stop-color="#E1E6EB"/>
</linearGradient>
<linearGradient id="paint43_linear_1707_5310" x1="129.4" y1="9.88667" x2="127.62" y2="8.57838" gradientUnits="userSpaceOnUse">
<stop stop-color="#656E77"/>
<stop offset="0.5622" stop-color="#ABB7C6"/>
<stop offset="1" stop-color="#E1E6EB"/>
</linearGradient>
<linearGradient id="paint44_linear_1707_5310" x1="146.928" y1="7.25965" x2="146.038" y2="6.60551" gradientUnits="userSpaceOnUse">
<stop stop-color="#656E77"/>
<stop offset="0.5622" stop-color="#ABB7C6"/>
<stop offset="1" stop-color="#E1E6EB"/>
</linearGradient>
<linearGradient id="paint45_linear_1707_5310" x1="147.508" y1="22.3156" x2="146.618" y2="21.6615" gradientUnits="userSpaceOnUse">
<stop stop-color="#656E77"/>
<stop offset="0.5622" stop-color="#ABB7C6"/>
<stop offset="1" stop-color="#E1E6EB"/>
</linearGradient>
<linearGradient id="paint46_linear_1707_5310" x1="116.082" y1="9.88667" x2="114.302" y2="8.57836" gradientUnits="userSpaceOnUse">
<stop stop-color="#656E77"/>
<stop offset="0.5622" stop-color="#ABB7C6"/>
<stop offset="1" stop-color="#E1E6EB"/>
</linearGradient>
<linearGradient id="paint47_linear_1707_5310" x1="309.124" y1="220.992" x2="290.823" y2="207.543" gradientUnits="userSpaceOnUse">
<stop offset="0.0665" stop-color="#353D44"/>
<stop offset="0.1724" stop-color="#3E464D"/>
<stop offset="0.3454" stop-color="#565E64"/>
<stop offset="0.564" stop-color="#7E858B"/>
<stop offset="0.817" stop-color="#B5BBC0"/>
<stop offset="1" stop-color="#E1E6EB"/>
</linearGradient>
<linearGradient id="paint48_linear_1707_5310" x1="339.525" y1="197.156" x2="318.335" y2="181.582" gradientUnits="userSpaceOnUse">
<stop offset="0.0665" stop-color="#353D44"/>
<stop offset="0.1724" stop-color="#3E464D"/>
<stop offset="0.3454" stop-color="#565E64"/>
<stop offset="0.564" stop-color="#7E858B"/>
<stop offset="0.817" stop-color="#B5BBC0"/>
<stop offset="1" stop-color="#E1E6EB"/>
</linearGradient>
<linearGradient id="paint49_linear_1707_5310" x1="316.363" y1="152.177" x2="300.952" y2="140.851" gradientUnits="userSpaceOnUse">
<stop offset="0.0665" stop-color="#353D44"/>
<stop offset="0.1724" stop-color="#3E464D"/>
<stop offset="0.3454" stop-color="#565E64"/>
<stop offset="0.564" stop-color="#7E858B"/>
<stop offset="0.817" stop-color="#B5BBC0"/>
<stop offset="1" stop-color="#E1E6EB"/>
</linearGradient>
<linearGradient id="paint50_linear_1707_5310" x1="288.666" y1="126.533" x2="279.997" y2="120.162" gradientUnits="userSpaceOnUse">
<stop offset="0.0665" stop-color="#353D44"/>
<stop offset="0.1724" stop-color="#3E464D"/>
<stop offset="0.3454" stop-color="#565E64"/>
<stop offset="0.564" stop-color="#7E858B"/>
<stop offset="0.817" stop-color="#B5BBC0"/>
<stop offset="1" stop-color="#E1E6EB"/>
</linearGradient>
<linearGradient id="paint51_linear_1707_5310" x1="299.765" y1="175.4" x2="292.059" y2="169.737" gradientUnits="userSpaceOnUse">
<stop offset="0.0665" stop-color="#353D44"/>
<stop offset="0.1724" stop-color="#3E464D"/>
<stop offset="0.3454" stop-color="#565E64"/>
<stop offset="0.564" stop-color="#7E858B"/>
<stop offset="0.817" stop-color="#B5BBC0"/>
<stop offset="1" stop-color="#E1E6EB"/>
</linearGradient>
<linearGradient id="paint52_linear_1707_5310" x1="317.041" y1="168.227" x2="308.372" y2="161.856" gradientUnits="userSpaceOnUse">
<stop offset="0.0665" stop-color="#353D44"/>
<stop offset="0.1724" stop-color="#3E464D"/>
<stop offset="0.3454" stop-color="#565E64"/>
<stop offset="0.564" stop-color="#7E858B"/>
<stop offset="0.817" stop-color="#B5BBC0"/>
<stop offset="1" stop-color="#E1E6EB"/>
</linearGradient>
<linearGradient id="paint53_linear_1707_5310" x1="334.608" y1="144.355" x2="327.865" y2="139.399" gradientUnits="userSpaceOnUse">
<stop offset="0.0665" stop-color="#353D44"/>
<stop offset="0.1724" stop-color="#3E464D"/>
<stop offset="0.3454" stop-color="#565E64"/>
<stop offset="0.564" stop-color="#7E858B"/>
<stop offset="0.817" stop-color="#B5BBC0"/>
<stop offset="1" stop-color="#E1E6EB"/>
</linearGradient>
<linearGradient id="paint54_linear_1707_5310" x1="341.845" y1="160.085" x2="337.992" y2="157.253" gradientUnits="userSpaceOnUse">
<stop offset="0.0665" stop-color="#353D44"/>
<stop offset="0.1724" stop-color="#3E464D"/>
<stop offset="0.3454" stop-color="#565E64"/>
<stop offset="0.564" stop-color="#7E858B"/>
<stop offset="0.817" stop-color="#B5BBC0"/>
<stop offset="1" stop-color="#E1E6EB"/>
</linearGradient>
<linearGradient id="paint55_linear_1707_5310" x1="352.946" y1="149.307" x2="350.056" y2="147.183" gradientUnits="userSpaceOnUse">
<stop offset="0.0665" stop-color="#353D44"/>
<stop offset="0.1724" stop-color="#3E464D"/>
<stop offset="0.3454" stop-color="#565E64"/>
<stop offset="0.564" stop-color="#7E858B"/>
<stop offset="0.817" stop-color="#B5BBC0"/>
<stop offset="1" stop-color="#E1E6EB"/>
</linearGradient>
<linearGradient id="paint56_linear_1707_5310" x1="376.204" y1="154.553" x2="368.499" y2="148.89" gradientUnits="userSpaceOnUse">
<stop offset="0.0665" stop-color="#353D44"/>
<stop offset="0.1724" stop-color="#3E464D"/>
<stop offset="0.3454" stop-color="#565E64"/>
<stop offset="0.564" stop-color="#7E858B"/>
<stop offset="0.817" stop-color="#B5BBC0"/>
<stop offset="1" stop-color="#E1E6EB"/>
</linearGradient>
<linearGradient id="paint57_linear_1707_5310" x1="363.945" y1="168.227" x2="355.277" y2="161.856" gradientUnits="userSpaceOnUse">
<stop offset="0.0665" stop-color="#353D44"/>
<stop offset="0.1724" stop-color="#3E464D"/>
<stop offset="0.3454" stop-color="#565E64"/>
<stop offset="0.564" stop-color="#7E858B"/>
<stop offset="0.817" stop-color="#B5BBC0"/>
<stop offset="1" stop-color="#E1E6EB"/>
</linearGradient>
<linearGradient id="paint58_linear_1707_5310" x1="347.346" y1="173.887" x2="340.604" y2="168.932" gradientUnits="userSpaceOnUse">
<stop offset="0.0665" stop-color="#353D44"/>
<stop offset="0.1724" stop-color="#3E464D"/>
<stop offset="0.3454" stop-color="#565E64"/>
<stop offset="0.564" stop-color="#7E858B"/>
<stop offset="0.817" stop-color="#B5BBC0"/>
<stop offset="1" stop-color="#E1E6EB"/>
</linearGradient>
<linearGradient id="paint59_linear_1707_5310" x1="362.209" y1="192.548" x2="353.54" y2="186.177" gradientUnits="userSpaceOnUse">
<stop offset="0.0665" stop-color="#353D44"/>
<stop offset="0.1724" stop-color="#3E464D"/>
<stop offset="0.3454" stop-color="#565E64"/>
<stop offset="0.564" stop-color="#7E858B"/>
<stop offset="0.817" stop-color="#B5BBC0"/>
<stop offset="1" stop-color="#E1E6EB"/>
</linearGradient>
<linearGradient id="paint60_linear_1707_5310" x1="379.772" y1="220.992" x2="361.472" y2="207.543" gradientUnits="userSpaceOnUse">
<stop offset="0.0665" stop-color="#353D44"/>
<stop offset="0.1724" stop-color="#3E464D"/>
<stop offset="0.3454" stop-color="#565E64"/>
<stop offset="0.564" stop-color="#7E858B"/>
<stop offset="0.817" stop-color="#B5BBC0"/>
<stop offset="1" stop-color="#E1E6EB"/>
</linearGradient>
<linearGradient id="paint61_linear_1707_5310" x1="384.693" y1="186.343" x2="369.282" y2="175.017" gradientUnits="userSpaceOnUse">
<stop offset="0.0665" stop-color="#353D44"/>
<stop offset="0.1724" stop-color="#3E464D"/>
<stop offset="0.3454" stop-color="#565E64"/>
<stop offset="0.564" stop-color="#7E858B"/>
<stop offset="0.817" stop-color="#B5BBC0"/>
<stop offset="1" stop-color="#E1E6EB"/>
</linearGradient>
<linearGradient id="paint62_linear_1707_5310" x1="397.533" y1="167.647" x2="388.864" y2="161.276" gradientUnits="userSpaceOnUse">
<stop offset="0.0665" stop-color="#353D44"/>
<stop offset="0.1724" stop-color="#3E464D"/>
<stop offset="0.3454" stop-color="#565E64"/>
<stop offset="0.564" stop-color="#7E858B"/>
<stop offset="0.817" stop-color="#B5BBC0"/>
<stop offset="1" stop-color="#E1E6EB"/>
</linearGradient>
<linearGradient id="paint63_linear_1707_5310" x1="405.832" y1="191.26" x2="399.09" y2="186.305" gradientUnits="userSpaceOnUse">
<stop offset="0.0665" stop-color="#353D44"/>
<stop offset="0.1724" stop-color="#3E464D"/>
<stop offset="0.3454" stop-color="#565E64"/>
<stop offset="0.564" stop-color="#7E858B"/>
<stop offset="0.817" stop-color="#B5BBC0"/>
<stop offset="1" stop-color="#E1E6EB"/>
</linearGradient>
<linearGradient id="paint64_linear_1707_5310" x1="420.889" y1="180.836" x2="414.147" y2="175.881" gradientUnits="userSpaceOnUse">
<stop offset="0.0665" stop-color="#353D44"/>
<stop offset="0.1724" stop-color="#3E464D"/>
<stop offset="0.3454" stop-color="#565E64"/>
<stop offset="0.564" stop-color="#7E858B"/>
<stop offset="0.817" stop-color="#B5BBC0"/>
<stop offset="1" stop-color="#E1E6EB"/>
</linearGradient>
<linearGradient id="paint65_linear_1707_5310" x1="428.803" y1="198.338" x2="420.134" y2="191.967" gradientUnits="userSpaceOnUse">
<stop offset="0.0665" stop-color="#353D44"/>
<stop offset="0.1724" stop-color="#3E464D"/>
<stop offset="0.3454" stop-color="#565E64"/>
<stop offset="0.564" stop-color="#7E858B"/>
<stop offset="0.817" stop-color="#B5BBC0"/>
<stop offset="1" stop-color="#E1E6EB"/>
</linearGradient>
<linearGradient id="paint66_linear_1707_5310" x1="453.22" y1="168.451" x2="445.514" y2="162.788" gradientUnits="userSpaceOnUse">
<stop offset="0.0665" stop-color="#353D44"/>
<stop offset="0.1724" stop-color="#3E464D"/>
<stop offset="0.3454" stop-color="#565E64"/>
<stop offset="0.564" stop-color="#7E858B"/>
<stop offset="0.817" stop-color="#B5BBC0"/>
<stop offset="1" stop-color="#E1E6EB"/>
</linearGradient>
<linearGradient id="paint67_linear_1707_5310" x1="429.477" y1="163.05" x2="415.992" y2="153.139" gradientUnits="userSpaceOnUse">
<stop offset="0.0665" stop-color="#353D44"/>
<stop offset="0.1724" stop-color="#3E464D"/>
<stop offset="0.3454" stop-color="#565E64"/>
<stop offset="0.564" stop-color="#7E858B"/>
<stop offset="0.817" stop-color="#B5BBC0"/>
<stop offset="1" stop-color="#E1E6EB"/>
</linearGradient>
<linearGradient id="paint68_linear_1707_5310" x1="447.818" y1="147.924" x2="443.965" y2="145.092" gradientUnits="userSpaceOnUse">
<stop offset="0.0665" stop-color="#353D44"/>
<stop offset="0.1724" stop-color="#3E464D"/>
<stop offset="0.3454" stop-color="#565E64"/>
<stop offset="0.564" stop-color="#7E858B"/>
<stop offset="0.817" stop-color="#B5BBC0"/>
<stop offset="1" stop-color="#E1E6EB"/>
</linearGradient>
<linearGradient id="paint69_linear_1707_5310" x1="452.445" y1="192.713" x2="437.034" y2="181.386" gradientUnits="userSpaceOnUse">
<stop offset="0.0665" stop-color="#353D44"/>
<stop offset="0.1724" stop-color="#3E464D"/>
<stop offset="0.3454" stop-color="#565E64"/>
<stop offset="0.564" stop-color="#7E858B"/>
<stop offset="0.817" stop-color="#B5BBC0"/>
<stop offset="1" stop-color="#E1E6EB"/>
</linearGradient>
<linearGradient id="paint70_linear_1707_5310" x1="476.287" y1="155.487" x2="467.618" y2="149.116" gradientUnits="userSpaceOnUse">
<stop offset="0.0665" stop-color="#353D44"/>
<stop offset="0.1724" stop-color="#3E464D"/>
<stop offset="0.3454" stop-color="#565E64"/>
<stop offset="0.564" stop-color="#7E858B"/>
<stop offset="0.817" stop-color="#B5BBC0"/>
<stop offset="1" stop-color="#E1E6EB"/>
</linearGradient>
<linearGradient id="paint71_linear_1707_5310" x1="492.406" y1="151.977" x2="488.553" y2="149.146" gradientUnits="userSpaceOnUse">
<stop offset="0.0665" stop-color="#353D44"/>
<stop offset="0.1724" stop-color="#3E464D"/>
<stop offset="0.3454" stop-color="#565E64"/>
<stop offset="0.564" stop-color="#7E858B"/>
<stop offset="0.817" stop-color="#B5BBC0"/>
<stop offset="1" stop-color="#E1E6EB"/>
</linearGradient>
<linearGradient id="paint72_linear_1707_5310" x1="345.9" y1="202.936" x2="342.047" y2="200.105" gradientUnits="userSpaceOnUse">
<stop offset="0.0665" stop-color="#353D44"/>
<stop offset="0.1724" stop-color="#3E464D"/>
<stop offset="0.3454" stop-color="#565E64"/>
<stop offset="0.564" stop-color="#7E858B"/>
<stop offset="0.817" stop-color="#B5BBC0"/>
<stop offset="1" stop-color="#E1E6EB"/>
</linearGradient>
<linearGradient id="paint73_linear_1707_5310" x1="352.849" y1="218.571" x2="348.996" y2="215.74" gradientUnits="userSpaceOnUse">
<stop offset="0.0665" stop-color="#353D44"/>
<stop offset="0.1724" stop-color="#3E464D"/>
<stop offset="0.3454" stop-color="#565E64"/>
<stop offset="0.564" stop-color="#7E858B"/>
<stop offset="0.817" stop-color="#B5BBC0"/>
<stop offset="1" stop-color="#E1E6EB"/>
</linearGradient>
<linearGradient id="paint74_linear_1707_5310" x1="391.068" y1="202.357" x2="387.215" y2="199.525" gradientUnits="userSpaceOnUse">
<stop offset="0.0665" stop-color="#353D44"/>
<stop offset="0.1724" stop-color="#3E464D"/>
<stop offset="0.3454" stop-color="#565E64"/>
<stop offset="0.564" stop-color="#7E858B"/>
<stop offset="0.817" stop-color="#B5BBC0"/>
<stop offset="1" stop-color="#E1E6EB"/>
</linearGradient>
<linearGradient id="paint75_linear_1707_5310" x1="409.597" y1="211.622" x2="405.744" y2="208.791" gradientUnits="userSpaceOnUse">
<stop offset="0.0665" stop-color="#353D44"/>
<stop offset="0.1724" stop-color="#3E464D"/>
<stop offset="0.3454" stop-color="#565E64"/>
<stop offset="0.564" stop-color="#7E858B"/>
<stop offset="0.817" stop-color="#B5BBC0"/>
<stop offset="1" stop-color="#E1E6EB"/>
</linearGradient>
<linearGradient id="paint76_linear_1707_5310" x1="333.544" y1="221.407" x2="321.985" y2="212.912" gradientUnits="userSpaceOnUse">
<stop offset="0.0665" stop-color="#353D44"/>
<stop offset="0.1724" stop-color="#3E464D"/>
<stop offset="0.3454" stop-color="#565E64"/>
<stop offset="0.564" stop-color="#7E858B"/>
<stop offset="0.817" stop-color="#B5BBC0"/>
<stop offset="1" stop-color="#E1E6EB"/>
</linearGradient>
<linearGradient id="paint77_linear_1707_5310" x1="343.678" y1="235.978" x2="335.009" y2="229.607" gradientUnits="userSpaceOnUse">
<stop offset="0.0665" stop-color="#353D44"/>
<stop offset="0.1724" stop-color="#3E464D"/>
<stop offset="0.3454" stop-color="#565E64"/>
<stop offset="0.564" stop-color="#7E858B"/>
<stop offset="0.817" stop-color="#B5BBC0"/>
<stop offset="1" stop-color="#E1E6EB"/>
</linearGradient>
<linearGradient id="paint78_linear_1707_5310" x1="278.822" y1="228.45" x2="270.153" y2="222.079" gradientUnits="userSpaceOnUse">
<stop offset="0.0665" stop-color="#353D44"/>
<stop offset="0.1724" stop-color="#3E464D"/>
<stop offset="0.3454" stop-color="#565E64"/>
<stop offset="0.564" stop-color="#7E858B"/>
<stop offset="0.817" stop-color="#B5BBC0"/>
<stop offset="1" stop-color="#E1E6EB"/>
</linearGradient>
<linearGradient id="paint79_linear_1707_5310" x1="306.039" y1="196.022" x2="297.37" y2="189.651" gradientUnits="userSpaceOnUse">
<stop offset="0.0665" stop-color="#353D44"/>
<stop offset="0.1724" stop-color="#3E464D"/>
<stop offset="0.3454" stop-color="#565E64"/>
<stop offset="0.564" stop-color="#7E858B"/>
<stop offset="0.817" stop-color="#B5BBC0"/>
<stop offset="1" stop-color="#E1E6EB"/>
</linearGradient>
<linearGradient id="paint80_linear_1707_5310" x1="285.385" y1="201.683" x2="278.643" y2="196.728" gradientUnits="userSpaceOnUse">
<stop offset="0.0665" stop-color="#353D44"/>
<stop offset="0.1724" stop-color="#3E464D"/>
<stop offset="0.3454" stop-color="#565E64"/>
<stop offset="0.564" stop-color="#7E858B"/>
<stop offset="0.817" stop-color="#B5BBC0"/>
<stop offset="1" stop-color="#E1E6EB"/>
</linearGradient>
<clipPath id="clip0_1707_5310">
<rect width="492.793" height="238" fill="white" transform="matrix(-1 0 0 1 492.793 0)"/>
</clipPath>
</defs>
</svg>
