<svg width="16" height="16" viewBox="0 0 16 16" fill="none" xmlns="http://www.w3.org/2000/svg">
<g clip-path="url(#clip0_7_594)">
<path d="M2.5 6.99992H13.5C13.599 7.0001 13.6959 6.97087 13.7783 6.91594C13.8606 6.86101 13.9249 6.78286 13.9628 6.69138C14.0007 6.59991 14.0106 6.49924 13.9912 6.40213C13.9719 6.30502 13.9241 6.21585 13.854 6.14592L9.854 2.14592C9.78407 2.07581 9.6949 2.02805 9.59779 2.00868C9.50068 1.98931 9.40001 1.99922 9.30854 2.03713C9.21706 2.07505 9.13891 2.13928 9.08398 2.22166C9.02905 2.30405 8.99982 2.4009 9 2.49992V4.99992H2.5C2.36739 4.99992 2.24021 5.0526 2.14645 5.14636C2.05268 5.24013 2 5.36731 2 5.49992V6.49992C2 6.63253 2.05268 6.7597 2.14645 6.85347C2.24021 6.94724 2.36739 6.99992 2.5 6.99992Z" fill="white"/>
<path d="M13.4999 9H2.49992C2.4009 8.99982 2.30405 9.02905 2.22166 9.08398C2.13928 9.13891 2.07505 9.21706 2.03713 9.30854C1.99922 9.40001 1.98931 9.50068 2.00868 9.59779C2.02805 9.6949 2.07581 9.78407 2.14592 9.854L6.14592 13.854C6.19244 13.9004 6.24765 13.9372 6.30839 13.9622C6.36913 13.9873 6.43421 14.0001 6.49992 14C6.56549 14.0003 6.63044 13.9873 6.69092 13.962C6.78235 13.9242 6.86052 13.8601 6.91553 13.7779C6.97053 13.6957 6.9999 13.5989 6.99992 13.5V11H13.4999C13.6325 11 13.7597 10.9473 13.8535 10.8536C13.9472 10.7598 13.9999 10.6326 13.9999 10.5V9.5C13.9999 9.36739 13.9472 9.24022 13.8535 9.14645C13.7597 9.05268 13.6325 9 13.4999 9Z" fill="white"/>
</g>
<defs>
<clipPath id="clip0_7_594">
<rect width="12" height="12" fill="white" transform="translate(2 2)"/>
</clipPath>
</defs>
</svg>
