<svg width="24" height="25" viewBox="0 0 24 25" fill="none" xmlns="http://www.w3.org/2000/svg">
<g clip-path="url(#clip0_401_1094)">
<path d="M14.25 3.5H4.6875C3.7875 3.5 3 4.2875 3 5.1875C3 6.0875 3.7875 6.875 4.6875 6.875H14.25V3.5Z" fill="white"/>
<path d="M19.875 9.125H3V19.25C3 20.4875 4.0125 21.5 5.25 21.5H19.875C20.55 21.5 21 21.05 21 20.375V10.25C21 9.575 20.55 9.125 19.875 9.125ZM17.0625 17C16.1625 17 15.375 16.2125 15.375 15.3125C15.375 14.4125 16.1625 13.625 17.0625 13.625C17.9625 13.625 18.75 14.4125 18.75 15.3125C18.75 16.2125 17.9625 17 17.0625 17Z" fill="white"/>
</g>
<defs>
<clipPath id="clip0_401_1094">
<rect width="18" height="18" fill="white" transform="translate(3 3.5)"/>
</clipPath>
</defs>
</svg>
