<svg xmlns="http://www.w3.org/2000/svg" width="24" height="24" viewBox="0 0 24 24">
  <g id="medium" transform="translate(-130.281 18.063)">
    <rect id="Rectangle_294" data-name="Rectangle 294" width="24" height="24" transform="translate(130.281 -18.063)" fill="none"/>
    <path id="medium-2" data-name="medium" d="M22.085,4.733,24,2.9V2.5H17.366L12.638,14.268,7.259,2.5H.3v.4L2.54,5.594a.939.939,0,0,1,.3.783V16.96a1.207,1.207,0,0,1-.323,1.05L0,21.064v.4H7.145v-.4L4.625,18.01a1.244,1.244,0,0,1-.347-1.05V7.806L10.55,21.465h.729L16.672,7.806V18.687c0,.287,0,.346-.188.534L14.544,21.1v.4h9.412v-.4l-1.87-1.831a.556.556,0,0,1-.214-.534V5.267a.554.554,0,0,1,.213-.534Z" transform="translate(130.281 -17.563)" fill="#fdd284"/>
  </g>
</svg>
