<svg width="22" height="22" viewBox="0 0 22 22" fill="none" xmlns="http://www.w3.org/2000/svg">
<path d="M12.8333 -5.34058e-05H9.16667C8.66067 -5.34058e-05 8.25 0.410613 8.25 0.916613V4.58328C8.25 5.08928 8.66067 5.49995 9.16667 5.49995H12.8333C13.3393 5.49995 13.75 5.08928 13.75 4.58328V0.916613C13.75 0.410613 13.3393 -5.34058e-05 12.8333 -5.34058e-05Z" fill="#2E2E2E"/>
<path d="M4.58333 8.25H0.916667C0.410667 8.25 0 8.66067 0 9.16667V12.8333C0 13.3393 0.410667 13.75 0.916667 13.75H4.58333C5.08933 13.75 5.5 13.3393 5.5 12.8333V9.16667C5.5 8.66067 5.08933 8.25 4.58333 8.25Z" fill="#2E2E2E"/>
<path d="M4.58333 16.5H0.916667C0.410667 16.5 0 16.9107 0 17.4167V21.0833C0 21.5893 0.410667 22 0.916667 22H4.58333C5.08933 22 5.5 21.5893 5.5 21.0833V17.4167C5.5 16.9107 5.08933 16.5 4.58333 16.5Z" fill="#2E2E2E"/>
<path d="M4.58333 -6.10352e-05H0.916667C0.410667 -6.10352e-05 0 0.410606 0 0.916606V4.58327C0 5.08927 0.410667 5.49994 0.916667 5.49994H4.58333C5.08933 5.49994 5.5 5.08927 5.5 4.58327V0.916606C5.5 0.410606 5.08933 -6.10352e-05 4.58333 -6.10352e-05Z" fill="#2E2E2E"/>
<path d="M12.8333 8.25H9.16667C8.66067 8.25 8.25 8.66067 8.25 9.16667V12.8333C8.25 13.3393 8.66067 13.75 9.16667 13.75H12.8333C13.3393 13.75 13.75 13.3393 13.75 12.8333V9.16667C13.75 8.66067 13.3393 8.25 12.8333 8.25Z" fill="#2E2E2E"/>
<path d="M12.8333 16.5H9.16667C8.66067 16.5 8.25 16.9107 8.25 17.4167V21.0833C8.25 21.5893 8.66067 22 9.16667 22H12.8333C13.3393 22 13.75 21.5893 13.75 21.0833V17.4167C13.75 16.9107 13.3393 16.5 12.8333 16.5Z" fill="#2E2E2E"/>
<path d="M21.0833 -5.34058e-05H17.4167C16.9107 -5.34058e-05 16.5 0.410613 16.5 0.916613V4.58328C16.5 5.08928 16.9107 5.49995 17.4167 5.49995H21.0833C21.5893 5.49995 22 5.08928 22 4.58328V0.916613C22 0.410613 21.5893 -5.34058e-05 21.0833 -5.34058e-05Z" fill="#2E2E2E"/>
<path d="M21.0833 8.25H17.4167C16.9107 8.25 16.5 8.66067 16.5 9.16667V12.8333C16.5 13.3393 16.9107 13.75 17.4167 13.75H21.0833C21.5893 13.75 22 13.3393 22 12.8333V9.16667C22 8.66067 21.5893 8.25 21.0833 8.25Z" fill="#2E2E2E"/>
<path d="M21.0833 16.5H17.4167C16.9107 16.5 16.5 16.9107 16.5 17.4167V21.0833C16.5 21.5893 16.9107 22 17.4167 22H21.0833C21.5893 22 22 21.5893 22 21.0833V17.4167C22 16.9107 21.5893 16.5 21.0833 16.5Z" fill="#2E2E2E"/>
</svg>
