<svg width="22" height="22" viewBox="0 0 22 22" fill="none" xmlns="http://www.w3.org/2000/svg">
<g clip-path="url(#clip0)">
<path d="M4.58333 0H0.916667C0.410667 0 0 0.410667 0 0.916667V4.58333C0 5.08933 0.410667 5.5 0.916667 5.5H4.58333C5.08933 5.5 5.5 5.08933 5.5 4.58333V0.916667C5.5 0.410667 5.08933 0 4.58333 0Z" fill="#FAC668"/>
<path d="M21.0833 -7.62939e-06H8.25001C7.74401 -7.62939e-06 7.33334 0.410659 7.33334 0.916659V4.58333C7.33334 5.08933 7.74401 5.49999 8.25001 5.49999H21.0833C21.5893 5.49999 22 5.08933 22 4.58333V0.916659C22 0.410659 21.5893 -7.62939e-06 21.0833 -7.62939e-06Z" fill="#FAC668"/>
<path d="M4.58333 8.25H0.916667C0.410667 8.25 0 8.66067 0 9.16667V12.8333C0 13.3393 0.410667 13.75 0.916667 13.75H4.58333C5.08933 13.75 5.5 13.3393 5.5 12.8333V9.16667C5.5 8.66067 5.08933 8.25 4.58333 8.25Z" fill="#FAC668"/>
<path d="M21.0833 8.25H8.25001C7.74401 8.25 7.33334 8.66067 7.33334 9.16667V12.8333C7.33334 13.3393 7.74401 13.75 8.25001 13.75H21.0833C21.5893 13.75 22 13.3393 22 12.8333V9.16667C22 8.66067 21.5893 8.25 21.0833 8.25Z" fill="#FAC668"/>
<path d="M4.58333 16.5H0.916667C0.410667 16.5 0 16.9107 0 17.4167V21.0833C0 21.5893 0.410667 22 0.916667 22H4.58333C5.08933 22 5.5 21.5893 5.5 21.0833V17.4167C5.5 16.9107 5.08933 16.5 4.58333 16.5Z" fill="#FAC668"/>
<path d="M21.0833 16.5H8.25001C7.74401 16.5 7.33334 16.9107 7.33334 17.4167V21.0833C7.33334 21.5893 7.74401 22 8.25001 22H21.0833C21.5893 22 22 21.5893 22 21.0833V17.4167C22 16.9107 21.5893 16.5 21.0833 16.5Z" fill="#FAC668"/>
</g>
<defs>
<clipPath id="clip0">
<rect width="22" height="22" fill="white"/>
</clipPath>
</defs>
</svg>
