<svg width="24" height="24" viewBox="0 0 18 18" fill="none" xmlns="http://www.w3.org/2000/svg">
<g clip-path="url(#clip0)">
<path d="M4.57869 4.86096L3.01924 4.98144C2.58531 5.01498 2.19884 5.2424 1.95886 5.60538L0.16039 8.32547C-0.0216121 8.60074 -0.0505455 8.94523 0.0829417 9.24701C0.216464 9.54879 0.490856 9.75909 0.816928 9.80961L2.24479 10.0307C2.5788 8.25818 3.37839 6.48998 4.57869 4.86096Z" fill="#FAC668"/>
<path d="M7.96924 15.7552L8.1904 17.1831C8.24092 17.5091 8.45123 17.7835 8.75297 17.917C8.87851 17.9726 9.0114 18 9.14362 18C9.32935 18 9.51378 17.9459 9.67454 17.8396L12.3947 16.0411C12.7577 15.8011 12.9851 15.4146 13.0186 14.9808L13.1391 13.4213C11.51 14.6216 9.74183 15.4212 7.96924 15.7552Z" fill="#FAC668"/>
<path d="M7.43211 14.7655C7.48167 14.7655 7.53153 14.7614 7.58127 14.7531C8.32391 14.629 9.03968 14.4198 9.72248 14.146L3.85389 8.27739C3.5801 8.96016 3.37092 9.67593 3.24675 10.4186C3.19781 10.7113 3.296 11.0096 3.50585 11.2195L6.78042 14.494C6.95465 14.6682 7.18981 14.7655 7.43211 14.7655Z" fill="#FAC668"/>
<path d="M16.5646 7.98051C18.0007 5.2041 18.0539 2.27013 17.9789 0.894122C17.9532 0.422645 17.5773 0.0467574 17.1058 0.0210584C16.8817 0.00882415 16.6162 0 16.3169 0C14.7783 0 12.3437 0.233049 10.0194 1.43528C8.17221 2.39071 5.75006 4.49448 4.32104 7.25922C4.33792 7.2724 4.35441 7.28639 4.36995 7.30193L10.698 13.63C10.7136 13.6455 10.7275 13.662 10.7407 13.6789C13.5054 12.2498 15.6092 9.82768 16.5646 7.98051ZM10.4658 3.80528C11.4938 2.77729 13.1665 2.77718 14.1946 3.80528C14.6926 4.30327 14.9669 4.96543 14.9669 5.66971C14.9669 6.37399 14.6926 7.03615 14.1946 7.53414C13.6807 8.04808 13.0053 8.30511 12.3302 8.30518C11.6549 8.30521 10.9799 8.04822 10.4658 7.53414C9.96776 7.03615 9.69348 6.37399 9.69348 5.66971C9.69348 4.96543 9.96776 4.30327 10.4658 3.80528Z" fill="#FAC668"/>
<path d="M11.2117 6.78836C11.8285 7.40517 12.8322 7.40521 13.449 6.78836C13.7478 6.48953 13.9124 6.09226 13.9124 5.66969C13.9124 5.24711 13.7478 4.84984 13.449 4.55105C13.1406 4.24262 12.7355 4.08843 12.3303 4.08843C11.9252 4.08843 11.5201 4.24262 11.2117 4.55105C10.9129 4.84984 10.7483 5.24711 10.7483 5.66969C10.7483 6.09226 10.9129 6.48956 11.2117 6.78836Z" fill="#FAC668"/>
<path d="M0.538103 14.8337C0.673068 14.8337 0.808033 14.7822 0.910971 14.6792L2.63268 12.9575C2.83862 12.7516 2.83862 12.4177 2.63268 12.2117C2.42677 12.0058 2.09285 12.0058 1.88691 12.2117L0.165201 13.9334C-0.0407441 14.1394 -0.0407441 14.4733 0.165201 14.6792C0.268174 14.7822 0.403139 14.8337 0.538103 14.8337Z" fill="#FAC668"/>
<path d="M4.21061 13.7895C4.0047 13.5836 3.67079 13.5836 3.46484 13.7895L0.154703 17.0997C-0.0512422 17.3056 -0.0512422 17.6395 0.154703 17.8454C0.257676 17.9484 0.392641 17.9999 0.527605 17.9999C0.66257 17.9999 0.797535 17.9484 0.900473 17.8454L4.21057 14.5353C4.41655 14.3294 4.41655 13.9955 4.21061 13.7895Z" fill="#FAC668"/>
<path d="M5.04239 15.3674L3.32072 17.0891C3.11477 17.295 3.11477 17.6289 3.32072 17.8348C3.42369 17.9378 3.55866 17.9893 3.69359 17.9893C3.82851 17.9893 3.96351 17.9378 4.06645 17.8348L5.78816 16.1131C5.9941 15.9072 5.9941 15.5733 5.78816 15.3674C5.58225 15.1614 5.24833 15.1614 5.04239 15.3674Z" fill="#FAC668"/>
</g>
<defs>
<clipPath id="clip0">
<rect width="24" height="24" fill="white"/>
</clipPath>
</defs>
</svg>
