<svg width="512" height="512" viewBox="0 0 512 512" fill="none" xmlns="http://www.w3.org/2000/svg">
<g clip-path="url(#clip0)">
<path fill-rule="evenodd" clip-rule="evenodd" d="M17.4401 87.36C0 121.6 0 166.4 0 256C0 345.6 0 390.4 17.4401 424.641C32.8001 454.721 57.28 479.2 87.36 494.56C121.6 512 166.4 512 256 512C345.6 512 390.4 512 424.641 494.56C454.721 479.2 479.2 454.721 494.56 424.641C512 390.4 512 345.6 512 256C512 166.4 512 121.6 494.56 87.36C479.2 57.28 454.721 32.8001 424.641 17.4401C390.4 0 345.6 0 256 0C166.4 0 121.6 0 87.36 17.4401C57.28 32.8001 32.8001 57.28 17.4401 87.36ZM383.76 138.08C388.24 138.08 392.48 139.92 395.601 143.041C398.72 146.241 400.481 150.56 400.4 154.959C399.601 202.64 397.761 239.12 394.321 268C390.961 296.881 385.92 318.32 378.321 335.681C373.201 347.28 366.88 356.88 359.44 365.04C349.44 375.84 338.001 383.681 325.52 391.121C320.185 394.311 314.637 397.462 308.818 400.767C296.402 407.817 282.751 415.57 267.28 425.921C261.681 429.68 254.401 429.68 248.801 425.921C233.093 415.449 219.261 407.601 206.732 400.493C203.946 398.913 201.224 397.369 198.56 395.841C183.921 387.36 170.721 379.28 159.201 367.6C151.521 359.92 144.881 350.56 139.601 339.44C132.401 324.56 127.521 306.56 123.921 283.28C119.121 252.16 116.721 211.44 115.841 154.959C115.761 150.56 117.441 146.241 120.561 143.041C123.681 139.92 128.001 138.08 132.481 138.08H139.361C160.561 138.161 207.36 136.08 247.84 104.56C253.84 99.92 262.241 99.92 268.241 104.56C308.721 136.08 355.521 138.161 376.801 138.08H383.76ZM346.561 325.041C351.76 314.319 356.081 299.52 359.361 278.24C363.28 252.8 365.681 218.24 366.801 171.201C341.841 170.48 298.961 165.681 258.08 138.161C217.201 165.6 174.321 170.4 149.441 171.201C150.321 210.08 152.08 240.321 154.88 264.08C158.08 291.121 162.641 309.441 168.32 322.32C172.081 330.88 176.241 337.04 181.201 342.479C187.841 349.761 196.24 355.761 207.681 362.64C212.426 365.487 217.658 368.449 223.353 371.673C233.5 377.415 245.117 383.991 258.08 392.241C270.805 384.125 282.255 377.618 292.283 371.917C295.307 370.199 298.2 368.554 300.96 366.96C315.04 358.88 325.441 352.16 333.2 344.32C338.401 338.96 342.641 333.121 346.561 325.041Z" fill="#3375BB"/>
</g>
<defs>
<clipPath id="clip0">
<rect width="512" height="512" fill="white"/>
</clipPath>
</defs>
</svg>
