<svg id="Layer_1" data-name="Layer 1" xmlns="http://www.w3.org/2000/svg" xmlns:xlink="http://www.w3.org/1999/xlink" viewBox="0 0 48 48"><defs><style>.cls-1{fill:url(#linear-gradient);}.cls-2{fill:url(#linear-gradient-2);}.cls-3{fill:url(#linear-gradient-3);}.cls-4{fill:url(#linear-gradient-4);}.cls-5{fill:url(#linear-gradient-5);}.cls-6{fill:url(#linear-gradient-6);}.cls-7{fill:url(#linear-gradient-7);}.cls-8{fill:url(#linear-gradient-8);}.cls-9{fill:url(#linear-gradient-9);}.cls-10{fill:url(#linear-gradient-10);}.cls-11{fill:url(#linear-gradient-11);}.cls-12{fill:url(#linear-gradient-12);}.cls-13{fill:url(#linear-gradient-13);}.cls-14{fill:url(#linear-gradient-14);}.cls-15{fill:url(#linear-gradient-15);}.cls-16{fill:url(#linear-gradient-16);}.cls-17{fill:url(#linear-gradient-17);}.cls-18{fill:url(#linear-gradient-18);}.cls-19{fill:url(#linear-gradient-19);}.cls-20{fill:url(#linear-gradient-20);}.cls-21{fill:url(#linear-gradient-21);}.cls-22{fill:#fff;}.cls-23{fill:url(#linear-gradient-22);}</style><linearGradient id="linear-gradient" x1="45.72" y1="42.93" x2="3.35" y2="6.09" gradientUnits="userSpaceOnUse"><stop offset="0.12" stop-color="#ef070e"/><stop offset="0.26" stop-color="#bd060b"/><stop offset="0.49" stop-color="#6d0306"/><stop offset="0.68" stop-color="#320103"/><stop offset="0.82" stop-color="#0e0001"/><stop offset="0.9"/></linearGradient><linearGradient id="linear-gradient-2" x1="40.45" y1="25.34" x2="16" y2="4.09" gradientUnits="userSpaceOnUse"><stop offset="0.14" stop-color="#ed0f14"/><stop offset="0.56" stop-color="#fff"/><stop offset="0.97" stop-color="#250000"/></linearGradient><linearGradient id="linear-gradient-3" x1="39.29" y1="48.38" x2="4.31" y2="17.98" xlink:href="#linear-gradient-2"/><linearGradient id="linear-gradient-4" x1="31.81" y1="43.83" x2="7.36" y2="22.58" xlink:href="#linear-gradient-2"/><linearGradient id="linear-gradient-5" x1="44.17" y1="26.78" x2="15.31" y2="1.69" xlink:href="#linear-gradient-2"/><linearGradient id="linear-gradient-6" x1="31.81" y1="29.92" x2="11.32" y2="12.11" xlink:href="#linear-gradient-2"/><linearGradient id="linear-gradient-7" x1="32.49" y1="46.22" x2="3.62" y2="21.12" xlink:href="#linear-gradient-2"/><linearGradient id="linear-gradient-8" x1="36.5" y1="35.82" x2="16.01" y2="18.01" xlink:href="#linear-gradient-2"/><linearGradient id="linear-gradient-9" x1="38.68" y1="29.12" x2="14.24" y2="7.87" xlink:href="#linear-gradient-2"/><linearGradient id="linear-gradient-10" x1="40.15" y1="44.61" x2="5.17" y2="14.2" xlink:href="#linear-gradient-2"/><linearGradient id="linear-gradient-11" x1="33.57" y1="40.05" x2="9.13" y2="18.8" xlink:href="#linear-gradient-2"/><linearGradient id="linear-gradient-12" x1="42.61" y1="33.69" x2="7.63" y2="3.28" xlink:href="#linear-gradient-2"/><linearGradient id="linear-gradient-13" x1="32.85" y1="31.23" x2="12.36" y2="13.41" xlink:href="#linear-gradient-2"/><linearGradient id="linear-gradient-14" x1="35.08" y1="41.92" x2="6.21" y2="16.82" xlink:href="#linear-gradient-2"/><linearGradient id="linear-gradient-15" x1="35.46" y1="34.51" x2="14.97" y2="16.7" xlink:href="#linear-gradient-2"/><linearGradient id="linear-gradient-16" x1="41.59" y1="31.08" x2="12.72" y2="5.99" xlink:href="#linear-gradient-2"/><linearGradient id="linear-gradient-17" x1="40.78" y1="41.78" x2="5.8" y2="11.38" xlink:href="#linear-gradient-2"/><linearGradient id="linear-gradient-18" x1="34.9" y1="37.22" x2="10.45" y2="15.97" xlink:href="#linear-gradient-2"/><linearGradient id="linear-gradient-19" x1="41.97" y1="36.51" x2="6.99" y2="6.11" xlink:href="#linear-gradient-2"/><linearGradient id="linear-gradient-20" x1="43.46" y1="29.91" x2="8.48" y2="-0.49" xlink:href="#linear-gradient-2"/><linearGradient id="linear-gradient-21" x1="37.36" y1="31.95" x2="12.91" y2="10.69" xlink:href="#linear-gradient-2"/><linearGradient id="linear-gradient-22" x1="43.24" y1="47.85" x2="3.26" y2="-1.51" gradientUnits="userSpaceOnUse"><stop offset="0.07" stop-color="#ed0f14"/><stop offset="0.12" stop-color="#f14347"/><stop offset="0.17" stop-color="#f57477"/><stop offset="0.22" stop-color="#f89fa1"/><stop offset="0.27" stop-color="#fac2c3"/><stop offset="0.32" stop-color="#fcdddd"/><stop offset="0.37" stop-color="#fef0f0"/><stop offset="0.43" stop-color="#fffbfb"/><stop offset="0.48" stop-color="#fff"/><stop offset="0.61" stop-color="#9e8d8d"/><stop offset="0.72" stop-color="#472828"/><stop offset="0.77" stop-color="#250000"/></linearGradient></defs><title>logo 48x48px-01-01</title><circle class="cls-1" cx="23.94" cy="23.99" r="20.55"/><path class="cls-2" d="M33.33,11.45l.05.05a.75.75,0,0,0,.48.18A.74.74,0,0,0,34.6,11a.72.72,0,0,0-.2-.49.52.52,0,0,0-.11-.1,14.94,14.94,0,0,0-21,1,15,15,0,0,1,20,.09Z"/><path class="cls-3" d="M11.4,14.61l0-.06a.71.71,0,0,0,.18-.48.73.73,0,0,0-.73-.73.71.71,0,0,0-.49.19l-.1.11a14.94,14.94,0,0,0,1,21,15,15,0,0,1,.09-20Z"/><path class="cls-4" d="M14.56,36.54l-.06,0A.67.67,0,0,0,14,36.3a.74.74,0,0,0-.74.74.71.71,0,0,0,.19.49.52.52,0,0,1,.11.1,15,15,0,0,0,21-1,15,15,0,0,1-20-.09Z"/><path class="cls-5" d="M37,22.32s0-.08,0-.11A11.5,11.5,0,0,0,25,11.32a11.51,11.51,0,0,1,10.85,11v.06a.58.58,0,0,0,.17.36.56.56,0,0,0,.79,0A.53.53,0,0,0,37,22.32Z"/><path class="cls-6" d="M22.27,10.94h-.11a11.52,11.52,0,0,0-10.89,12,11.51,11.51,0,0,1,11-10.86h.06a.56.56,0,0,0,0-1.12Z"/><path class="cls-7" d="M10.89,25.66a.49.49,0,0,0,0,.12,11.48,11.48,0,0,0,12,10.88A11.51,11.51,0,0,1,12,25.71v-.06a.56.56,0,0,0-1-.36A.61.61,0,0,0,10.89,25.66Z"/><path class="cls-8" d="M25.62,37.05h.11a11.5,11.5,0,0,0,10.89-12,11.53,11.53,0,0,1-11,10.85H25.6a.56.56,0,0,0-.36,1A.58.58,0,0,0,25.62,37.05Z"/><path class="cls-9" d="M30.06,15.93a8.86,8.86,0,0,0-12.42.59,8.84,8.84,0,0,1,11.85.06l0,0a.49.49,0,0,0,.29.11.44.44,0,0,0,.32-.73Z"/><path class="cls-10" d="M16.56,18.41a.39.39,0,0,0,.11-.28.44.44,0,0,0-.73-.32l-.06.06a8.85,8.85,0,0,0,.6,12.42,8.81,8.81,0,0,1,.05-11.84Z"/><path class="cls-11" d="M30.24,31.46a8.84,8.84,0,0,1-11.84-.05l0,0a.39.39,0,0,0-.28-.11.43.43,0,0,0-.43.43.42.42,0,0,0,.11.29l.07.06a8.82,8.82,0,0,0,12.41-.59Z"/><path class="cls-12" d="M31.33,29.57a.43.43,0,0,0,.32.72.4.4,0,0,0,.29-.11l.06-.07a8.83,8.83,0,0,0-.59-12.42,8.85,8.85,0,0,1-.05,11.85Z"/><path class="cls-13" d="M23,16.72H23a6.41,6.41,0,0,0-6.07,6.67A6.43,6.43,0,0,1,23,17.34h0a.28.28,0,0,0,.2-.09.31.31,0,0,0,0-.44A.29.29,0,0,0,23,16.72Z"/><path class="cls-14" d="M18.54,29.18a6.4,6.4,0,0,0,4.8,1.88A6.43,6.43,0,0,1,17.29,25v0a.27.27,0,0,0-.09-.2.31.31,0,0,0-.44,0,.28.28,0,0,0-.09.2V25A6.36,6.36,0,0,0,18.54,29.18Z"/><path class="cls-15" d="M24.88,31.27h.06A6.43,6.43,0,0,0,31,24.59a6.41,6.41,0,0,1-6.11,6.05h0a.37.37,0,0,0-.2.09.33.33,0,0,0,0,.45A.29.29,0,0,0,24.88,31.27Z"/><path class="cls-16" d="M29.35,18.8a6.42,6.42,0,0,0-4.81-1.87A6.41,6.41,0,0,1,30.59,23v0a.4.4,0,0,0,.09.2.33.33,0,0,0,.45,0,.29.29,0,0,0,.09-.21V23A6.43,6.43,0,0,0,29.35,18.8Z"/><path class="cls-17" d="M20.38,21.3a.24.24,0,0,0,.05-.14.21.21,0,0,0-.21-.21.2.2,0,0,0-.14.06l0,0a4.28,4.28,0,0,0,.29,6,4.28,4.28,0,0,1,0-5.73Z"/><path class="cls-18" d="M27,27.6a4.27,4.27,0,0,1-5.73,0h0a.24.24,0,0,0-.14,0,.21.21,0,0,0-.21.21.2.2,0,0,0,.06.14l0,0A4.2,4.2,0,0,0,23.84,29,4.26,4.26,0,0,0,27,27.6Z"/><path class="cls-19" d="M27.51,26.69a.19.19,0,0,0-.05.13.21.21,0,0,0,.21.21.24.24,0,0,0,.14-.05l0,0a4.28,4.28,0,0,0-.29-6,4.25,4.25,0,0,1,0,5.72Z"/><path class="cls-20" d="M36.58,13.33a15,15,0,0,1-.09,20.05l-.05,0a.71.71,0,0,0-.19.48.73.73,0,0,0,.74.73.71.71,0,0,0,.49-.19l.1-.11a15,15,0,0,0-1-21Z"/><path class="cls-21" d="M20.9,20.39a4.27,4.27,0,0,1,5.72,0l0,0a.19.19,0,0,0,.13.05.21.21,0,0,0,.21-.21.22.22,0,0,0-.05-.14l0,0a4.28,4.28,0,0,0-6,.29Z"/><path d="M30.1,19.59a24.57,24.57,0,0,1,3-2.4.14.14,0,0,1,0-.26,4.57,4.57,0,0,0,1.07-.88,1.45,1.45,0,0,1,.16,1.22h-.16c.47.48,0,2.8.16,3.12-.08.05-.08.05-.27.08s-.16,0-.43,0v-.08c.19,0,.16,0,.27.08.21-.14.11,0,.16-.27-.51,0-.51-.08-.53.27l-.35-.08v.16c.35,0,.72.08,1.07.1l.08.08v.46a5.42,5.42,0,0,1-1.42-.27h-.45a.35.35,0,0,1,.11.08,3.32,3.32,0,0,0,1.68.34l.08.11c-.06.32,0,.24-.27.35a.62.62,0,0,0,.27.08c0,.45,0,.66-.27.8.13.21,0,.1.27.18v.08L34,23a.71.71,0,0,0,.35.27c-.08.08,0,.05-.16.1a4.34,4.34,0,0,0,.42.54V24l-.88-.08c.16.24.11.08.08.42.24-.1.11,0,.19-.26a1.18,1.18,0,0,1,1.06.37l.11,0s0,0,.08.05c-.51.27-.56.82-1.25.88a.56.56,0,0,0,.35.1v1.95a9.64,9.64,0,0,1-2.75-.54c-.34-.07-.4.16-.61.19a3,3,0,0,1-.19-.26c-.34-.16-.58.15-.87,0h-.19V25.79a12.6,12.6,0,0,0,3.73.43c-.56-.4-1.44-.14-2.21-.35a11.76,11.76,0,0,0-3.73-.45c.35.24,1,.13,1.41.37h.45v.08c-.74.48-1.33,1.17-2.05,1.68a5.15,5.15,0,0,0-1.22,1,6.46,6.46,0,0,0-.88,0l.08.08c.11.08.11,0,.27.08s.1.06.1.06,0,0,.08.05c-.26.1-.32.1-.45.34a3.28,3.28,0,0,1-2.39-.79h-.08v-.08c.47.16,1.33.08,1.75.34h.53v-.08c-.85-.4-1.94-.21-2.74-.53,0-.19-.08,0,0-.19-.21-.32-.8-.37-1.06-.69h-.19V27a5.07,5.07,0,0,1,1.71.27H23c-.32-.56-1.58-.16-2.21-.42a8.83,8.83,0,0,1-1.68-1.44h-.19a1.66,1.66,0,0,1,.27,1.06A3.17,3.17,0,0,1,18,26.32v.08s-.08.06-.1.08a7,7,0,0,0,1.33.27c0,.53-.11.82,0,.9v.62a4.19,4.19,0,0,0-.53-.11c.18.29.42.08.53.27.32.5-.16,1.35.26,1.86-.08.08-.08.05-.26.11a2.65,2.65,0,0,0,2.47.69,1.38,1.38,0,0,1-1.49,1.25c.08.08,0,0,.19.08v.11c-1.36.34-2.13.5-3.3-.19,0-.21,0-.08,0-.35-.43-.16-1.23,0-1.57-.26H15.3v.16a2.73,2.73,0,0,1,1,.18h.53v.08c-.26.19-.48.51-.8.64a5.12,5.12,0,0,1-3.27-.53c-.32-.19-.53-.72-.8-1V31c1.36.53,1.73-.43,2.58-.45-.26-.4,0-2.29,0-3.44a3,3,0,0,1,1.23.16h.18V27.2A2.68,2.68,0,0,0,14.5,27v-.26h.35v-.08l-.35-.08c0-.48-.05-.88-.08-1.25a.75.75,0,0,1,.35.08H15v-.08a2.47,2.47,0,0,0-.72-.08c-.06-.16,0-.11-.08-.19.1-.08.13-.08.34-.08v-.1c-.4-.06-.56,0-.8-.35h-.18c.16-.08.13-.08.26,0a2.14,2.14,0,0,0,.72-1.76,3.48,3.48,0,0,1,1.33.16H16v-.08a3.78,3.78,0,0,0-1.49-.26V20.28h.27c-.13-.13,0-.11-.27-.16v-.8l.11.08s0,.08.08.19c.13-.06.08,0,.16-.11A.35.35,0,0,1,15,19.4h-.11a1.05,1.05,0,0,1-.08-.18H14.5a8.45,8.45,0,0,0,0-1.95V16.05a27.78,27.78,0,0,1,3.28,2.63,7.92,7.92,0,0,1,1.86,1.52,19,19,0,0,0-3.81-.45c.32.24.78.08,1.23.18a15.9,15.9,0,0,1,3.46.88V21a24,24,0,0,0-5.67-.8v.19a13.19,13.19,0,0,1,2.21.34c.48.08,1.33.06,1.86.19.69.08,1.36.16,2,.27.32.13.53.58.8.79s.83.46,1.23.8c.18.14-.08.22.1.35l.43.08a10,10,0,0,0,1,.8c.16.08.32-.06.46-.27a.81.81,0,0,1,.61.35H26V24a1.55,1.55,0,0,1-.64-.46l-.08-.08c.43-.29.8-.82,1.23-1.06H27c-.27-.08.18-.56.26-.61a2.52,2.52,0,0,1,1.42-.72c-.08,0-.08,0-.27-.08A6.28,6.28,0,0,1,30.1,19.59ZM12.91,31.46h-.19a.71.71,0,0,0,.19.08Zm1.86,1.33v-.18h-.35a2.52,2.52,0,0,1,.27.18Zm.8-5.93a.35.35,0,0,0-.08-.11c-.16-.19-.24-.21-.53-.27,0,.3,0,.14.26.38Zm-.27.95a1.31,1.31,0,0,0-.34-.08,3.25,3.25,0,0,0,.26.27h.08Zm-.18,3.38H15c.08.06,0,0,.16.08Zm.37-13.73H15c.05.16,0,.08.08.16v.1a.74.74,0,0,0,.26-.1.31.31,0,0,1,.11-.08Zm-.37,11c.1.08.08.08.26.1C15.3,28.45,15.3,28.48,15.12,28.43Zm.37,2.23v-.1l-.37-.08v.18Zm-.11-10.91c.16-.08.11,0,0-.16Zm0,3.38h.27a.81.81,0,0,0,.18.08v-.08h-.18V23l-.27-.08Zm.53,5.48c-.1-.08-.21-.08-.42-.08C15.59,28.61,15.7,28.61,15.91,28.61Zm-.18-6.55h-.16c.08.08,0,0,.16.08Zm.21,4.29s0,0,.05,0h.46v-.1l-.88-.16c.13.16.1.18.34.26Zm-.37,4.74c.13.1.08.16.16,0Zm.08-13.47c0,.26-.06.13.18.18v-.18Zm.18,2.05h-.18c.1.08,0,0,.18.08Zm0,7.34v-.15h-.18V27Zm0,3.73v-.18h-.18v.18ZM16,27.92c-.08-.08-.08-.08-.26-.11C15.83,27.89,15.83,27.87,16,27.92Zm-.08.16h-.18c.1.08,0,0,.18.08Zm.19-8.68h-.19c.11.08,0,0,.19.08Zm.16,3.81H16.1c.08.08,0,0,.16.08Zm-.16,3.91c.19-.05.11-.08.27,0h.42c-.13-.21-.45-.21-.69-.26Zm.08,4.23c.16-.08.11,0,0-.16Zm.53-13a.71.71,0,0,0-.34-.08l.16.16h.18Zm-.34,12.4c.13.11.05.13.16,0Zm.08-7.53c.1.08.08.05.26.08C16.63,23.23,16.63,23.23,16.45,23.21Zm0,4.71a.51.51,0,0,0,.18.08v-.08ZM17,30h-.53a2,2,0,0,0,.45.19v-.08H17Zm-.45-7.16V23h.18v-.16Zm.53.88c-.08-.08-.13-.08-.35-.08A1.13,1.13,0,0,0,17.06,23.74Zm-.27,2.66c-.05-.16,0-.08-.08-.18v.18Zm.46-1.78c-.11-.08-.22-.08-.46-.08A.79.79,0,0,0,17.25,24.62Zm-.08,3.11v-.08a.21.21,0,0,1,.08-.1,1,1,0,0,0-.46-.08A.58.58,0,0,0,17.17,27.73Zm.08-5.32a1.21,1.21,0,0,0-.35-.08c.13.16.08.13.35.19ZM17.17,31c-.14-.22,0-.11-.27-.19C17,31,17,30.93,17.17,31Zm.08-5.14c-.11-.08-.08-.05-.27-.08A.62.62,0,0,0,17.25,25.87Zm.18,5.67h.35c-.14-.21-.53-.24-.8-.27C17,31.57,17.14,31.35,17.43,31.54Zm-.37-11.95a2,2,0,0,0,1.06.16c.11.08.08.05.27.1-.08-.08-.08-.05-.27-.1A1.76,1.76,0,0,0,17.06,19.59Zm0,1.41.11.08c.13.08.24.05.42.11v-.11L17.7,21a1.13,1.13,0,0,0-.45-.08C17.17,21,17.22,21,17.06,21Zm.45,4.26h-.45c.16.16.13.13.45.16Zm-.18,1.14c-.08-.08-.08,0-.27-.08a.43.43,0,0,0,.27.08.65.65,0,0,1,.18.19h.19V26.4Zm.53.8V27a2.37,2.37,0,0,1-.8,0C17.17,27.28,17.43,27.25,17.86,27.2Zm-.53,2h-.16c.08.08,0,.06.16.11Zm-.08-10.8c.1.08.08.08.26.1C17.41,18.44,17.43,18.47,17.25,18.42Zm.26,5.85a.57.57,0,0,0-.26-.08A.4.4,0,0,0,17.51,24.27Zm-.26,4.42c.1.08.08.08.26.11C17.41,28.72,17.43,28.75,17.25,28.69ZM17.7,32c-.19,0-.19,0-.27.08h-.18c.08.06.29.11.34.19C17.67,32.15,17.64,32.15,17.7,32Zm-.37-1.86c.13.13.05.11.26.16C17.46,30.08,17.62,30.18,17.33,30.13Zm.37-4.26c-.11-.08-.08-.05-.27-.08C17.51,25.84,17.51,25.84,17.7,25.87Zm.88,5.22a2.67,2.67,0,0,0-1.15-.16c.13.1.37.16.53.26h.62ZM18,22.68V22.6a.88.88,0,0,0-.45-.08C17.75,22.68,17.72,22.65,18,22.68Zm-.26,1.51h-.19a.49.49,0,0,0,.19.08Zm-.19,5a.38.38,0,0,0,.27.11C17.78,29.25,17.78,29.28,17.59,29.22Zm.64,3.46a.85.85,0,0,0-.45-.07C17.88,32.68,18,32.68,18.23,32.68ZM17.86,19c.1.08.08.08.26.11C18,19,18,19,17.86,19Zm0,2.5H18c-.05-.29,0-.24-.18-.37Zm.37,2.48v-.11a2.76,2.76,0,0,0-.37-.08v.19Zm.27,1.49h-.11c-.13-.08-.21-.06-.53-.08,0,.24.16.18.64.18Zm-.38.45-.26-.08c.13.13.05.08.26.16Zm0,6.12c-.13.22,0,.11-.26.08v.19c.53,0,.72,0,1.33,0A1.53,1.53,0,0,0,18.12,32Zm.64-6.84v-.08h-.64V25H18a.46.46,0,0,0,.16.08.52.52,0,0,0,.46.08Zm-.1-.8L18,24.27a2.22,2.22,0,0,1,.27.19h.35Zm-.27,3.81h-.16c.08.08,0,.05.16.11Zm-.08,2.05c-.11.13,0,.27.19.19Zm0-7.08a.62.62,0,0,0,.27.08A.43.43,0,0,0,18.31,23.13Zm.19,2.93v-.19h-.19v.19Zm-.19,1.06a1.13,1.13,0,0,0,.35.08C18.55,27.12,18.52,27.12,18.31,27.12Zm.08,1.76c.11.08.16.08.37.08A.75.75,0,0,0,18.39,28.88Zm.19-7.43h.08c-.06-.16,0-.11-.08-.19Zm.53,9.9v-.16c-.16,0-.29-.08-.45-.1.1.13.24.16.37.26Zm.19-8.06v-.16h-.38l-.08.08c0,.05.32.05.35.08ZM19,19.85h-.19c.08.06,0,0,.19.08Zm.16,2.29-.08-.08c-.11-.21.05,0-.19-.18C19,22.12,18.82,22.06,19.19,22.14Zm.11,3a3,3,0,0,0-.38-.08c0,.24,0,.16.38.19Zm0-5.22h-.19c.08.08,0,0,.19.08Zm.26,11.42a1,1,0,0,1-.19-.16C19.24,31.3,19.32,31.43,19.56,31.35Zm.27-5.83a.18.18,0,0,1-.11-.1c-.11-.14,0-.11-.27-.16a2.49,2.49,0,0,0,.11.26ZM20,23.93l-.27-.11c.05.16,0,.11.11.19v.08H20Zm-.16.61c.08.08.13.08.34.08A1.06,1.06,0,0,0,19.83,24.54Zm.26-3.28h-.18c.08.08,0,0,.18.08Zm-.18.72c.08.06.08.06.26.08C20.07,22,20.09,22,19.91,22Zm1.14,3.62v-.18l-1.14-.08c.13.24.4.13.61.26Zm-.69.54c-.11-.08-.16-.08-.37-.08A1.08,1.08,0,0,0,20.36,26.14Zm-.19-3.28c.08.08,0,0,.19.08v-.08Zm.19,1.23h-.19c.08.08,0,.05.19.1Zm0,7.37h-.19c.08.05,0,0,.19.08Zm0-9.48c.13.22.19.16.51.16A1.53,1.53,0,0,0,20.36,22Zm.77,2.83a1.61,1.61,0,0,0-.69-.19C20.63,24.81,20.79,24.81,21.13,24.81Zm-.42,1.41a.43.43,0,0,0-.27-.08C20.52,26.19,20.52,26.19,20.71,26.22Zm-.08-2.4c-.08-.13,0-.08-.11-.16v.16Zm.16-.88h-.16c.08.08,0,0,.16.08Zm-.08,9H21v-.1l-.26-.08Zm.42-5.77H21c.08.08,0,.05.16.1Zm-.08,5.24c.14.13.06.08.27.16C21.19,31.41,21.34,31.51,21.05,31.46Zm.61-8.33H21.5a.76.76,0,0,0,.16.08Zm1.52,3.09c.64.29.56-.38,1,.1h.34c-.08-.13-.18-.24-.26-.37-.54,0-.59-.11-.8.19-.24-.16-.14,0-.08-.27-.56-.08-1.12-.19-1.71-.27.32.56.94.16,1.26.27Zm-.26.37v-.11h-.35a.81.81,0,0,0,.16.27v-.16Zm0-.45c-.11-.08-.08-.06-.27-.08A.62.62,0,0,0,22.92,26.14ZM23.1,28c-.13-.21,0-.11-.26-.19C22.94,28,22.89,27.92,23.1,28Zm.16-1.41H23.1c-.05.13,0,.08-.1.16.1.08.08.05.26.11Zm3.2,1.22h-.19l-.08-.08a10.48,10.48,0,0,0-3-.53c.64.53,2.4.16,2.85.61h.24a.63.63,0,0,0,.19.11Zm-3.09-1.22c.08.05,0,0,.16.08v-.08Zm.42.27a.76.76,0,0,0-.26-.11c0,.24-.06.13.26.18ZM23.9,25h-.19c.08.05,0,0,.19.08ZM24,28c-.11-.11-.08-.05-.27-.08C23.87,28,23.77,28.11,24,28Zm.08.8v-.11l-.27-.08v.19Zm1.06.53a.73.73,0,0,0-.34.27,1.55,1.55,0,0,1-.88-.54l1.22.16ZM24,23.93c.11.13.05.1.27.16C24.11,23.87,24.27,24,24,23.93Zm.88,4.23c-.08-.05-.08-.05-.27-.08C24.7,28.16,24.67,28.13,24.86,28.16ZM24.7,26.4c.27,0,.29,0,.69,0,.05-.16,0-.08.11-.18a.33.33,0,0,0-.38,0,1.54,1.54,0,0,1-.42-.16Zm.42,1.76H25c.08.08,0,.05.15.11Zm.11-1.3h-.18c.07.05,0,0,.18.07Zm.43-.54H25.5v.16h.16Zm.18-2h-.18c.1.08,0,.06.18.11Zm.19.27c-.16,0-.16-.05-.37-.08a1.11,1.11,0,0,1,.18.19H26Zm-.11,1.6h-.16v.18h.16Zm.35-3.36h-.16c.08.08,0,0,.16.08Zm.11,1.07V24h.16v-.19l-.27-.08A.63.63,0,0,0,26.38,23.93Zm.42,2.74v-.08a1.51,1.51,0,0,0-.34-.11v.19Zm0-1.94h-.16a.76.76,0,0,0,.16.08Zm1.79-.54a11.24,11.24,0,0,0-1.68-.1c.37.26,1.2.1,1.6.37A.62.62,0,0,0,28.59,24.19Zm-1-1.51c-.08-.19-.24-.24-.43-.35a1.27,1.27,0,0,0,.16.35Zm4.87,4.87v.1s.06.16.11-.18c.29.08.21.05.34.26.08-.18,0-.08,0-.26.43.05,1,.37,1.34.18h.08c0,.8.08,1.6.1,2.29a2.29,2.29,0,0,1-.9-.18h-.27c.08.16,0,.1.11.18a2.14,2.14,0,0,0,1.14.19c.24.19.27.61.53.8s1,.16,1.41.42a3.8,3.8,0,0,0,.35-.34h.11c0,.56-.22.8-.8.8.08.05.08.05.27.08-.32.74-3.81,1.65-4.26.18-.38.16-.56.56-1,.72-1.84.67-3.33-.66-4-1.52V31a2.11,2.11,0,0,0,2.21-.45,12.16,12.16,0,0,0,.35-3.36,14.69,14.69,0,0,0,2.13.35c.13-.06.16-.19.35-.27Zm-5.14-4.42c.16-.08.11,0,0-.19Zm.19.34h-.19c.11.08,0,0,.19.08Zm.27-.45H27.6c.11.08,0,.06.19.11Zm-.08-.34H28V22.6l-.26-.08Zm.08-.43h.26v-.11l-.26-.08Zm.08-.53a1.08,1.08,0,0,0,.37.08c.11.08.21.08.43.08a.66.66,0,0,0-.43-.08C28.13,21.72,28.08,21.72,27.87,21.72Zm.37,4.07h-.19c.08.05,0,0,.19.08Zm0-3.46h.08a.71.71,0,0,0-.08-.19Zm.27.35h-.19c.08.08,0,0,.19.1Zm0,9.47h-.19c.08.08,0,0,.19.11Zm1.22-8.68v-.08l-1.14-.18c.16.24.47.13.71.26Zm-1.14.08v.19h.18v-.19ZM32.74,25v-.1A4.71,4.71,0,0,0,31,24.62a7.85,7.85,0,0,0-2.21-.43v.27a19.49,19.49,0,0,1,3.54.53ZM29.2,21.53H29c.08.08,0,0,.16.08Zm.26,2.29c-.13-.21,0-.08-.26-.16C29.33,23.79,29.25,23.77,29.46,23.82Zm0-2.74H29.3c.08.08,0,.05.16.11Zm0,10.27H29.3c.08.08,0,.06.16.11Zm.19-.42A1.13,1.13,0,0,0,30,31C29.89,30.93,29.86,30.93,29.65,30.93Zm.08-10.28a.43.43,0,0,0,.27.08C29.92,20.65,29.92,20.68,29.73,20.65Zm0,.54a.52.52,0,0,0,.27.07C29.92,21.19,29.92,21.21,29.73,21.19Zm.19,1.33h-.19l.19.08ZM32.66,32v-.1a10.3,10.3,0,0,0-2.93-.43c.59.51,1.65.16,2.21.53Zm-2.82-9.93a5.11,5.11,0,0,0,2.55.35A6.79,6.79,0,0,0,29.84,22.06ZM30,23.47l.18.19h.19v-.19Zm0,4.45h.37v-.19h-.19c-.1.08,0,0-.18.08Zm.18-6.73c-.08.07,0,.07.08.07a.52.52,0,0,1,.11-.07Zm.27.69c-.13-.22,0-.11-.27-.16l.19.16Zm-.19-1.23a.8.8,0,0,0,.38.08C30.53,20.65,30.48,20.65,30.26,20.65Zm.19,8.23h-.19c.11.08,0,0,.19.08Zm0,1.52h-.19l.19.08Zm-.08-.91c.08.08,0,.05.16.11v-.11Zm.35-8.15v-.08l-.27-.07v.15Zm-.08,9.14h.26c-.13-.22,0-.11-.26-.19Zm.26-8.68h-.18c.07.08,0,0,.18.08Zm.61-1a2.94,2.94,0,0,0-.72-.16c0,.27.08.06.38.27.16-.05.16,0,.24-.11Zm-.53.53c.08.08.08.06.27.11A.38.38,0,0,0,31,21.34ZM31.51,24c.16-.08.11,0,0-.19v-.08l.08-.08h-.08a.7.7,0,0,0-.1-.19h-.24a1,1,0,0,0-.11.35.86.86,0,0,1,.45,0Zm1.23-2.4a3,3,0,0,0-1.23-.35c-.1-.07-.08-.05-.26-.07.08,0,.08,0,.26.07.16.3.51.19.8.35Zm-.61-2.21a2.25,2.25,0,0,0-.8-.18c.13.21.26.15.45.26h.35Zm-.62.35h-.18c.1.08,0,.05.18.1Zm-.1-.88c.1.08.1.05.26.08C31.59,18.9,31.59,18.9,31.41,18.87Zm.18,9.74h-.18c.1.08,0,0,.18.08Zm-.08,2.48c.16.18.19.18.54.18A1.72,1.72,0,0,0,31.51,31.09ZM31.59,22a.75.75,0,0,0,.35.08C31.86,22,31.81,22,31.59,22Zm.19,1.57c0,.16,0,.11.08.19v.08s.05.19.08-.16h.19v-.11Zm.43,6.13a1.46,1.46,0,0,0-.27-.08c.13.13,0,.1.27.16Zm.1-10.54c-.13-.22,0-.11-.26-.19a1,1,0,0,0,.16.19Zm-.18,11.52v.08h.08c-.06-.21,0-.13-.16-.26C32.1,30.64,32.05,30.56,32.13,30.66Zm.34-10.38h-.34c.21.21,0,.11.34.11Zm.91,3.65c.13-.06.08,0,.16-.11l-.08-.08c-.35,0-.38,0-.54.19h-.26l.18-.19-.45-.08c-.08.05-.08.05-.26.08a.49.49,0,0,0,.08.19A1,1,0,0,0,33.38,23.93ZM32.31,28.8h-.18a.81.81,0,0,0,.18.08Zm.08-6.74h-.18c.1.08,0,0,.18.08Zm.35,7.7a2.3,2.3,0,0,0-.43-.16,1.6,1.6,0,0,1,.08.26h.35Zm.37-10.62a2.69,2.69,0,0,0-.72-.19c.11.21.14.13.27.27h.45Zm-.27,9.66h-.45a1.38,1.38,0,0,1,.27.16h.18Zm-.37-9.21h.37V19.4h-.37Zm.72,11.07c-.16,0-.29-.08-.45-.1v-.08h-.16c.08.08,0,0,.16.08s.1.37.37.18Zm-.45,1.87v-.19h-.16v.19Zm.37-12.06v-.08a2.51,2.51,0,0,1-.37-.19,2.76,2.76,0,0,0-.08.27Zm.27,2.13a1,1,0,0,0-.72-.19A.92.92,0,0,0,33.38,22.6Zm1.94,9.66-2.48-.37a6.81,6.81,0,0,0,2.4.45Zm-2.4-7.19h.27c-.13-.21,0-.1-.27-.18Zm.35.27c-.11-.08-.13-.08-.35-.08A1.13,1.13,0,0,0,33.27,25.34ZM33,29.76v.18h.19v-.18Zm.19-10.62c.13.13.05.1.27.18C33.32,19.08,33.48,19.22,33.19,19.14Zm.88.53c-.29-.06-.59-.11-.88-.19.19.29.4.29.88.27Zm-.88.45c.13.11.08.13.19,0Zm.19,10.44h-.19c.08.08,0,.05.19.1Zm0-8.76h.42v-.08a2.76,2.76,0,0,0-.53-.19C33.3,21.77,33.22,21.56,33.38,21.8Zm.16,4.87v-.08a1,1,0,0,0-.27-.11v.19Zm-.27,4.6c0,.3.16.3.72.27A3.45,3.45,0,0,0,33.27,31.27Zm.53-5.93-.34-.08c0,.18-.08.08.08.16v.1c.18,0,.13-.05.18-.1Zm-.34-8.15a.4.4,0,0,0,.26.08A.57.57,0,0,0,33.46,17.19ZM34.18,29h-.64c.08.08.21.13.26.18h.38Zm-.38-5.67h-.16c.08.08,0,.05.16.1Zm.11,7.37a2.64,2.64,0,0,1-.27-.1c.11.16.06.1.27.18Zm.16-12.78h-.16c.08.08,0,.06.16.11Zm-.16,5.78v.16h.16v-.16Zm0,3.27c.16-.07.08,0,0-.18Zm.35-.71h-.19c.11.08,0,.05.19.1Zm-.08-1.68h.08a1.35,1.35,0,0,0-.08-.19Zm.16,8.14h-.16c.08.08,0,0,.16.11Zm-.08-1.14a.57.57,0,0,0,.26.08A.57.57,0,0,0,34.26,31.54Zm.34-6.73h.19c-.08-.3.05-.14-.19-.27Zm.11,6.81c.1.08.13.08.34.11C35,31.65,34.89,31.65,34.71,31.62Zm.42-.27a1,1,0,0,0,.46.11,1,1,0,0,0,.18.16h.16v-.08a1.06,1.06,0,0,0-.34-.08A.93.93,0,0,0,35.13,31.35Zm.91.54v-.08l-.27-.08v.16Z"/><path class="cls-22" d="M29.19,19.07a24.57,24.57,0,0,1,3-2.4.16.16,0,0,1,0-.27,4.34,4.34,0,0,0,1.07-.87,1.42,1.42,0,0,1,.16,1.22h-.16c.48.48,0,2.79.16,3.11-.08.06-.08.06-.27.08s-.16,0-.42,0v-.08c.18,0,.15,0,.26.08.21-.13.11,0,.16-.26-.5,0-.5-.08-.53.26l-.35-.08V20l1.07.11.08.08v.45A5.3,5.3,0,0,1,32,20.4h-.46a.24.24,0,0,1,.11.08,3.32,3.32,0,0,0,1.68.34l.08.11c-.06.32,0,.24-.27.35a.52.52,0,0,0,.27.07c0,.46,0,.67-.27.8.13.22,0,.11.27.19v.08l-.35.08a.71.71,0,0,0,.35.27c-.08.08,0,.05-.16.1a3.62,3.62,0,0,0,.42.53v.08l-.88-.08c.16.24.11.08.08.43.24-.11.11,0,.19-.27a1.19,1.19,0,0,1,1.07.38l.1,0s0,0,.08.06c-.5.26-.56.82-1.25.88a.56.56,0,0,0,.35.1V27a9.5,9.5,0,0,1-2.74-.54c-.35-.08-.4.16-.62.19l-.18-.27c-.35-.16-.59.16-.88,0h-.19V25.27a12.25,12.25,0,0,0,3.73.42c-.56-.4-1.44-.13-2.21-.34a11.76,11.76,0,0,0-3.73-.45c.35.24,1,.13,1.41.37h.46v.08c-.75.48-1.34,1.17-2.05,1.68a4.59,4.59,0,0,0-1.23,1,4.31,4.31,0,0,0-.88,0l.08.08c.11.08.11,0,.27.08a.26.26,0,0,0,.11,0s0,0,.08.06c-.27.1-.32.1-.46.34a3.26,3.26,0,0,1-2.39-.8h-.08v-.08c.48.16,1.33.08,1.75.35h.54V28c-.86-.4-1.95-.21-2.75-.53,0-.19-.08,0,0-.19-.21-.32-.79-.37-1.06-.69h-.19v-.11a5.07,5.07,0,0,1,1.71.27h.16c-.32-.56-1.57-.16-2.21-.43A8.44,8.44,0,0,1,18.2,24.9H18A1.64,1.64,0,0,1,18.28,26a3.28,3.28,0,0,1-1.22-.16v.08L17,26a7,7,0,0,0,1.33.27c0,.53-.11.82,0,.9v.61a4,4,0,0,0-.53-.1c.18.29.42.08.53.26.32.51-.16,1.36.27,1.87-.08.08-.08.05-.27.1a2.64,2.64,0,0,0,2.48.7,1.38,1.38,0,0,1-1.49,1.25c.08.08,0,0,.18.08V32c-1.36.35-2.13.51-3.3-.18,0-.22,0-.08,0-.35-.43-.16-1.22,0-1.57-.27h-.19v.16a2.93,2.93,0,0,1,1,.19h.53v.08c-.26.19-.47.51-.79.64a5.14,5.14,0,0,1-3.28-.53c-.32-.19-.53-.72-.8-1v-.26c1.36.53,1.73-.43,2.59-.46-.27-.4,0-2.29,0-3.43a3,3,0,0,1,1.22.16H15v-.08a2.71,2.71,0,0,0-1.41-.19v-.26h.34v-.08l-.34-.08c0-.48-.06-.88-.08-1.25a.71.71,0,0,1,.34.08h.19v-.08a2.47,2.47,0,0,0-.72-.08c-.05-.16,0-.11-.08-.19.11-.08.13-.08.35-.08v-.11c-.4-.05-.56,0-.8-.34h-.19c.16-.08.13-.08.27,0a2.22,2.22,0,0,0,.72-1.76,3.53,3.53,0,0,1,1.33.16h.16v-.08a3.86,3.86,0,0,0-1.49-.27V19.76h.26c-.13-.14,0-.11-.26-.16v-.8c.05.05.08.05.1.08s0,.08.08.19c.13-.06.08,0,.16-.11a.35.35,0,0,1,.11-.08h-.11a1.21,1.21,0,0,1-.08-.19H13.6a9.74,9.74,0,0,0,0-1.94V15.53a27.48,27.48,0,0,1,3.27,2.63,7.92,7.92,0,0,1,1.86,1.52,19,19,0,0,0-3.8-.45c.32.23.77.08,1.22.18a15.75,15.75,0,0,1,3.46.88v.19a24,24,0,0,0-5.67-.8v.18a12,12,0,0,1,2.21.35c.48.08,1.33.05,1.86.19.7.08,1.36.16,2,.26.32.14.54.59.8.8a14.27,14.27,0,0,1,1.23.8c.18.13-.08.21.1.35l.43.08a10.91,10.91,0,0,0,1,.79c.16.08.32-.05.46-.26a.84.84,0,0,1,.61.34h.45v-.08a1.53,1.53,0,0,1-.64-.45L24.4,23c.43-.29.8-.82,1.23-1.06h.45c-.27-.08.19-.56.27-.61a2.46,2.46,0,0,1,1.41-.72c-.08-.06-.08-.06-.27-.08A6.1,6.1,0,0,1,29.19,19.07ZM12,30.94h-.19L12,31Zm1.86,1.33v-.19h-.34c.05.06.18.11.26.19Zm.8-5.94a.29.29,0,0,0-.08-.1.67.67,0,0,0-.53-.27c0,.29,0,.13.26.37Zm-.27,1a1.31,1.31,0,0,0-.34-.08,3.25,3.25,0,0,0,.26.27h.08Zm-.18,3.38h-.16c.08.06,0,0,.16.08Zm.37-13.73h-.45c0,.16,0,.08.08.16v.1a.74.74,0,0,0,.26-.1.31.31,0,0,1,.11-.08Zm-.37,11c.1.08.08.08.26.11C14.39,27.93,14.39,28,14.21,27.9Zm.37,2.24V30L14.21,30v.19Zm-.11-10.91c.16-.08.11,0,0-.16Zm0,3.38h.27l.19.08v-.08h-.19V22.5l-.27-.08ZM15,28.09a.66.66,0,0,0-.43-.08C14.69,28.09,14.79,28.09,15,28.09Zm-.19-6.55h-.16c.08.08,0,0,.16.08ZM15,25.83s0,0,.06,0h.45v-.11l-.88-.16c.13.16.11.19.35.27Zm-.37,4.74c.13.1.08.16.16,0Zm.08-13.47c0,.26-.05.13.19.18V17.1Zm.19,2h-.19c.11.08,0,0,.19.08Zm0,7.34v-.16h-.19v.16Zm0,3.73V30h-.19v.19Zm.16-2.82c-.08-.08-.08-.08-.27-.11C14.93,27.37,14.93,27.34,15.09,27.4Zm-.08.16h-.19c.11.08,0,0,.19.08Zm.18-8.68H15c.1.08,0,0,.18.08Zm.16,3.81h-.16c.08.08,0,0,.16.08Zm-.16,3.91c.19-.05.11-.08.27,0h.42c-.13-.21-.45-.21-.69-.27Zm.08,4.23c.16-.08.11,0,0-.16Zm.53-13a1.06,1.06,0,0,0-.34-.08l.16.16h.18Zm-.34,12.41c.13.11,0,.13.16,0Zm.08-7.53c.11.08.08,0,.26.08C15.72,22.71,15.72,22.71,15.54,22.69Zm0,4.71.18.08V27.4Zm.53,2.1h-.53a3,3,0,0,0,.45.19v-.08h.08Zm-.45-7.16v.16h.18v-.16Zm.53.88c-.08-.08-.13-.08-.35-.08A1.13,1.13,0,0,0,16.15,23.22Zm-.27,2.66c-.05-.16,0-.08-.08-.19v.19Zm.46-1.78c-.11-.08-.22-.08-.46-.08A.79.79,0,0,0,16.34,24.1Zm-.08,3.11v-.08a.21.21,0,0,1,.08-.1,1,1,0,0,0-.46-.08A.58.58,0,0,0,16.26,27.21Zm.08-5.32a.79.79,0,0,0-.35-.08c.13.16.08.13.35.18Zm-.08,8.6c-.14-.22,0-.11-.27-.19C16.1,30.46,16,30.41,16.26,30.49Zm.08-5.14c-.11-.08-.08-.06-.27-.08A.62.62,0,0,0,16.34,25.35ZM16.52,31h.35c-.13-.21-.53-.24-.8-.27C16.07,31,16.23,30.83,16.52,31Zm-.37-11.95a2,2,0,0,0,1.07.16c.1.08.08.05.26.1-.08-.08-.08,0-.26-.1A1.8,1.8,0,0,0,16.15,19.07Zm0,1.41a.31.31,0,0,1,.11.08c.13.08.24.05.42.1v-.1l.11-.08a1,1,0,0,0-.45-.08C16.26,20.45,16.31,20.42,16.15,20.48Zm.45,4.26h-.45c.16.16.13.13.45.16Zm-.18,1.14c-.08-.08-.08-.05-.27-.08a.62.62,0,0,0,.27.08.55.55,0,0,1,.18.19h.19v-.19Zm.53.8v-.19a2.37,2.37,0,0,1-.8,0C16.26,26.76,16.52,26.73,17,26.68Zm-.53,2h-.16c.08.08,0,.06.16.11Zm-.08-10.81c.1.08.08.08.26.11C16.5,17.92,16.52,18,16.34,17.89Zm.26,5.86a.57.57,0,0,0-.26-.08A.57.57,0,0,0,16.6,23.75Zm-.26,4.42c.1.08.08.08.26.11C16.5,28.2,16.52,28.22,16.34,28.17Zm.45,3.3c-.19,0-.19,0-.27.08h-.18c.08.05.29.11.34.19C16.76,31.63,16.74,31.63,16.79,31.47Zm-.37-1.86c.13.13,0,.1.26.16C16.55,29.55,16.71,29.66,16.42,29.61Zm.37-4.26c-.11-.08-.08-.06-.27-.08C16.6,25.32,16.6,25.32,16.79,25.35Zm.88,5.22a2.65,2.65,0,0,0-1.15-.16c.14.1.38.16.54.26h.61Zm-.53-8.42v-.08a1.08,1.08,0,0,0-.46-.08C16.84,22.15,16.82,22.13,17.14,22.15Zm-.27,1.52h-.19a.71.71,0,0,0,.19.08Zm-.19,5a.38.38,0,0,0,.27.11C16.87,28.73,16.87,28.76,16.68,28.7Zm.64,3.46a.76.76,0,0,0-.45-.08C17,32.16,17.08,32.16,17.32,32.16ZM17,18.43c.11.08.08.08.27.1C17.14,18.45,17.14,18.48,17,18.43Zm0,2.5h.19c-.06-.29,0-.24-.19-.37Zm.37,2.47v-.1a2.76,2.76,0,0,0-.37-.08v.18Zm.27,1.5h-.11c-.13-.08-.21-.06-.53-.08,0,.24.16.18.64.18Zm-.37.45a1.46,1.46,0,0,0-.27-.08c.13.13.05.08.27.16Zm0,6.12c-.14.21,0,.11-.27.08v.19c.53,0,.72,0,1.33,0A1.47,1.47,0,0,0,17.22,31.47Zm.63-6.84v-.08h-.63v-.08h-.16a.38.38,0,0,0,.16.08.5.5,0,0,0,.45.08Zm-.1-.8-.61-.08a1.43,1.43,0,0,1,.26.19h.35Zm-.27,3.81h-.16c.08.08,0,.05.16.1Zm-.08,2.05c-.1.13,0,.26.19.18Zm0-7.08a.62.62,0,0,0,.27.08A.43.43,0,0,0,17.4,22.61Zm.19,2.92v-.18H17.4v.18ZM17.4,26.6a1.13,1.13,0,0,0,.35.08C17.64,26.6,17.61,26.6,17.4,26.6Zm.08,1.76c.11.08.16.08.37.08A.75.75,0,0,0,17.48,28.36Zm.19-7.43h.08c-.06-.16,0-.11-.08-.19Zm.53,9.9v-.16c-.16,0-.29-.08-.45-.1.1.13.24.16.37.26Zm.19-8.06v-.16H18l-.08.08s.32,0,.35.08Zm-.27-3.44h-.19c.08.06,0,0,.19.08Zm.16,2.29-.08-.08c-.11-.21.05-.05-.19-.19C18,21.59,17.91,21.54,18.28,21.62Zm.11,3a3,3,0,0,0-.38-.08c0,.24,0,.16.38.19Zm0-5.22H18.2c.08.08,0,0,.19.08Zm.26,11.42a.71.71,0,0,1-.18-.16C18.33,30.78,18.41,30.91,18.65,30.83ZM18.92,25a.21.21,0,0,1-.11-.1c-.1-.14,0-.11-.26-.16a1.24,1.24,0,0,0,.1.26Zm.16-1.6-.27-.1c.06.16,0,.1.11.18v.08h.16Zm-.16.62c.08.08.13.08.35.08A.75.75,0,0,0,18.92,24Zm.27-3.28H19c.08.08,0,0,.19.08Zm-.19.72c.08.05.08.05.27.08C19.16,21.46,19.19,21.49,19,21.46Zm1.14,3.62V24.9L19,24.82c.13.24.4.13.61.26Zm-.69.53c-.1-.08-.16-.08-.37-.08A.78.78,0,0,0,19.45,25.61Zm-.18-3.27c.08.08,0,0,.18.08v-.08Zm.18,1.22h-.18c.08.08,0,.06.18.11Zm0,7.38h-.18c.08,0,0,0,.18.08Zm0-9.48c.13.21.19.16.51.16A1.53,1.53,0,0,0,19.45,21.46Zm.77,2.82a1.62,1.62,0,0,0-.69-.18C19.72,24.28,19.88,24.28,20.22,24.28Zm-.42,1.41a.62.62,0,0,0-.27-.08C19.61,25.67,19.61,25.67,19.8,25.69Zm-.08-2.39c-.08-.13,0-.08-.11-.16v.16Zm.16-.88h-.16c.08.08,0,0,.16.08Zm-.08,9h.26v-.11a1.6,1.6,0,0,1-.26-.08Zm.42-5.78h-.16c.08.08,0,.06.16.11Zm-.08,5.25c.14.13.06.08.27.16C20.28,30.88,20.44,31,20.14,30.94Zm.62-8.33H20.6a.56.56,0,0,0,.16.08Zm1.51,3.08c.64.3.56-.37,1,.11h.34c-.08-.13-.18-.24-.26-.37-.53,0-.59-.11-.8.18-.24-.16-.13,0-.08-.26-.56-.08-1.12-.19-1.7-.27.32.56.93.16,1.25.27Zm-.26.38V26h-.35a.81.81,0,0,0,.16.27v-.16Zm0-.46c-.11-.08-.08-.05-.27-.08A.43.43,0,0,0,22,25.61Zm.18,1.87c-.13-.22,0-.11-.26-.19C22,27.42,22,27.4,22.19,27.48Zm.16-1.41h-.16c-.05.13,0,.08-.1.16.1.08.08.05.26.1Zm3.2,1.22h-.19l-.08-.08a10.48,10.48,0,0,0-3-.53c.64.53,2.4.16,2.85.61h.24a.63.63,0,0,0,.19.11Zm-3.09-1.22c.08.05,0,0,.16.08v-.08Zm.43.26a.72.72,0,0,0-.27-.1c0,.24-.05.13.27.18Zm.1-1.86h-.18c.08.05,0,0,.18.08Zm.08,3c-.1-.11-.08-.06-.26-.08C23,27.5,22.86,27.58,23.07,27.48Zm.08.8v-.11l-.26-.08v.19Zm1.07.53a.75.75,0,0,0-.35.26,1.57,1.57,0,0,1-.88-.53l1.23.16ZM23.07,23.4c.11.14.06.11.27.16C23.21,23.35,23.36,23.48,23.07,23.4ZM24,27.64c-.08-.06-.08-.06-.27-.08C23.79,27.64,23.76,27.61,24,27.64Zm-.16-1.76a5.19,5.19,0,0,1,.69,0c.06-.16,0-.08.11-.19a.32.32,0,0,0-.37,0,1.25,1.25,0,0,1-.43-.16Zm.43,1.76h-.16c.08.08,0,.05.16.1Zm.1-1.31h-.18c.08.06,0,0,.18.08Zm.43-.53h-.16V26h.16Zm.19-2h-.19c.11.08,0,.05.19.11Zm.18.27a2.33,2.33,0,0,0-.37-.08,1.53,1.53,0,0,1,.19.18h.18ZM25,25.69h-.16v.19H25Zm.34-3.35H25.2c.08.08,0,0,.16.08Zm.11,1.06v.08h.16V23.3l-.27-.08C25.44,23.38,25.39,23.3,25.47,23.4Zm.42,2.75v-.08a1.13,1.13,0,0,0-.34-.11v.19Zm0-1.95h-.16c.08.06,0,0,.16.08Zm1.79-.53A12.7,12.7,0,0,0,26,23.56c.37.27,1.2.11,1.6.38A.62.62,0,0,0,27.68,23.67Zm-1-1.52c-.08-.18-.24-.24-.42-.34.05.21.08.18.16.34ZM31.56,27v.1s.06.16.11-.18c.29.08.21.05.35.26.08-.18,0-.08,0-.26.42.05,1,.37,1.33.18h.08c0,.8.08,1.6.1,2.29a2.29,2.29,0,0,1-.9-.19h-.27c.08.16,0,.11.11.19a2.24,2.24,0,0,0,1.14.19c.24.18.27.61.54.8s1,.16,1.41.42a3.63,3.63,0,0,0,.34-.34H36c0,.55-.21.79-.8.79.08.06.08.06.27.08-.32.75-3.81,1.65-4.26.19-.37.16-.56.56-1,.72-1.84.66-3.33-.67-4-1.52v-.26A2.11,2.11,0,0,0,28.48,30a12.07,12.07,0,0,0,.34-3.35A14.69,14.69,0,0,0,31,27c.13-.06.16-.19.35-.27Zm-5.13-4.42c.16-.08.1,0,0-.19Zm.18.34h-.18c.1.08,0,0,.18.08Zm.27-.45h-.19c.11.08,0,.05.19.11Zm-.08-.35h.26v-.08A1.6,1.6,0,0,1,26.8,22Zm.08-.42h.26v-.11l-.26-.08ZM27,21.2a1.08,1.08,0,0,0,.37.08.73.73,0,0,0,.43.07.74.74,0,0,0-.43-.07C27.22,21.2,27.17,21.2,27,21.2Zm.37,4.07h-.19c.08.05,0,0,.19.08Zm0-3.46h.08a.71.71,0,0,0-.08-.19Zm.27.34h-.19c.08.08,0,0,.19.11Zm0,9.48h-.19c.08.08,0,0,.19.11ZM28.82,23v-.08l-1.14-.18c.16.24.48.13.72.26ZM27.68,23v.19h.18V23Zm4.15,1.44v-.11a4.91,4.91,0,0,0-1.76-.26,7.2,7.2,0,0,0-2.21-.43v.27a18.54,18.54,0,0,1,3.54.53ZM28.29,21h-.16c.08.08,0,0,.16.08Zm.27,2.29c-.14-.21,0-.08-.27-.16C28.42,23.27,28.34,23.25,28.56,23.3Zm0-2.74H28.4c.08.08,0,.05.16.1Zm0,10.27H28.4c.08.08,0,.05.16.11Zm.18-.42a1.13,1.13,0,0,0,.35.08C29,30.41,29,30.41,28.74,30.41Zm.08-10.28a.62.62,0,0,0,.27.08C29,20.13,29,20.16,28.82,20.13Zm0,.53a.43.43,0,0,0,.27.08C29,20.66,29,20.69,28.82,20.66ZM29,22h-.19a.49.49,0,0,0,.19.08Zm2.74,9.48v-.11a10.32,10.32,0,0,0-2.93-.42c.59.5,1.65.16,2.21.53Zm-2.82-9.93a5.22,5.22,0,0,0,2.55.35A6.59,6.59,0,0,0,28.93,21.54ZM29.09,23l.18.19h.19V23Zm0,4.45h.37v-.19h-.19c-.1.08,0,0-.18.08Zm.18-6.74c-.08.08,0,.08.08.08l.11-.08Zm.27.69c-.13-.21,0-.1-.27-.15a1.57,1.57,0,0,0,.19.15Zm-.19-1.22a1.15,1.15,0,0,0,.38.08C29.62,20.13,29.57,20.13,29.35,20.13Zm.19,8.23h-.19c.11.08,0,0,.19.08Zm0,1.51h-.19a.49.49,0,0,0,.19.08Zm-.08-.9c.08.08,0,.05.16.1V29Zm.35-8.15v-.08l-.27-.08v.16ZM29.73,30H30c-.13-.21,0-.1-.26-.18ZM30,21.28h-.18c.08.07,0,0,.18.07Zm.62-1a3.16,3.16,0,0,0-.72-.16c0,.27.08.05.37.27.16-.06.16,0,.24-.11Zm-.54.53c.08.08.08.06.27.11A.38.38,0,0,0,30.07,20.82Zm.54,2.66c.16-.08.1,0,0-.18v-.08l.08-.08h-.08A1.3,1.3,0,0,0,30.5,23h-.24a1.31,1.31,0,0,0-.11.35.89.89,0,0,1,.46,0Zm1.22-2.39a3,3,0,0,0-1.22-.35c-.11-.08-.08,0-.27-.08.08.06.08.06.27.08.16.3.5.19.79.35Zm-.61-2.21a2.19,2.19,0,0,0-.8-.19c.13.22.27.16.45.27h.35Zm-.61.35h-.19c.11.08,0,.05.19.1Zm-.11-.88c.11.08.11,0,.27.08C30.69,18.37,30.69,18.37,30.5,18.35Zm.19,9.74H30.5c.11.08,0,0,.19.08Zm-.08,2.48c.16.18.18.18.53.18A1.74,1.74,0,0,0,30.61,30.57Zm.08-9.11a1.06,1.06,0,0,0,.34.08C31,21.46,30.9,21.46,30.69,21.46ZM30.87,23c.05.16,0,.11.08.19v.08s.05.18.08-.16h.19V23Zm.43,6.12L31,29.07c.13.14,0,.11.27.16Zm.1-10.54c-.13-.21,0-.1-.26-.18a.71.71,0,0,0,.16.18Zm-.18,11.53v.08h.08c-.06-.21,0-.13-.16-.27C31.19,30.11,31.14,30,31.22,30.14Zm.34-10.38h-.34c.21.21.05.1.34.1Zm.91,3.64c.13,0,.08,0,.16-.1l-.08-.08c-.35,0-.37,0-.53.18h-.27l.19-.18-.46-.08c-.08.05-.08.05-.26.08.05.16,0,.08.08.18A1,1,0,0,0,32.47,23.4ZM31.4,28.28h-.18a.81.81,0,0,0,.18.08Zm.08-6.74H31.3c.1.08,0,0,.18.08Zm.35,7.69c-.16-.05-.21-.1-.43-.16a1.46,1.46,0,0,1,.08.27h.35Zm.37-10.62a2.3,2.3,0,0,0-.72-.18c.11.21.14.13.27.26h.45Zm-.26,9.67h-.46a1.38,1.38,0,0,1,.27.16h.19Zm-.38-9.21h.38v-.19h-.38Zm.72,11.07L31.83,30V30h-.16c.08.08,0,0,.16.08s.11.38.37.19ZM31.83,32v-.18h-.16V32Zm.37-12.06v-.08a2.57,2.57,0,0,1-.37-.18c0,.08,0,.18-.08.26Zm.27,2.13a1,1,0,0,0-.72-.18A.94.94,0,0,0,32.47,22.07Zm1.94,9.67c-.82-.14-1.65-.24-2.47-.38a6.55,6.55,0,0,0,2.39.46ZM32,24.55h.26c-.13-.21,0-.11-.26-.19Zm.34.27c-.1-.08-.13-.08-.34-.08A1.06,1.06,0,0,0,32.36,24.82Zm-.26,4.41v.19h.18v-.19Zm.18-10.62c.14.14.06.11.27.19C32.42,18.56,32.58,18.69,32.28,18.61Zm.88.54c-.29-.06-.58-.11-.88-.19.19.29.4.29.88.27Zm-.88.45c.14.1.08.13.19,0ZM32.47,30h-.19c.08.08,0,.06.19.11Zm0-8.75h.42V21.2a2.54,2.54,0,0,0-.53-.19C32.39,21.25,32.31,21,32.47,21.28Zm.16,4.87v-.08a.73.73,0,0,0-.27-.11v.19Zm-.27,4.6c0,.29.16.29.72.27A3.45,3.45,0,0,0,32.36,30.75Zm.53-5.93-.34-.08c0,.18-.08.08.08.16V25c.18,0,.13-.05.18-.1Zm-.34-8.15a.61.61,0,0,0,.26.08A.52.52,0,0,0,32.55,16.67Zm.72,11.77h-.64c.08.08.21.13.26.18h.38Zm-.38-5.67h-.15c.07.08,0,.05.15.1ZM33,30.14a1.69,1.69,0,0,1-.26-.11c.1.16,0,.11.26.19Zm.16-12.78H33c.08.08,0,.06.16.11ZM33,23.14v.16h.16v-.16Zm0,3.27c.16-.08.08,0,0-.18Zm.35-.72h-.19c.11.08,0,.06.19.11ZM33.27,24h.08a1.35,1.35,0,0,0-.08-.19Zm.16,8.14h-.16c.08.08,0,0,.16.11ZM33.35,31a.57.57,0,0,0,.26.08A.4.4,0,0,0,33.35,31Zm.34-6.74h.19c-.08-.29,0-.13-.19-.26Zm.11,6.82c.11.08.13.08.35.1A.56.56,0,0,0,33.8,31.1Zm.43-.27a1,1,0,0,0,.45.11,1.54,1.54,0,0,0,.18.16H35V31a.71.71,0,0,0-.34-.08C34.57,30.86,34.47,30.86,34.23,30.83Zm.9.53v-.08a1.46,1.46,0,0,1-.27-.08v.16Z"/><path class="cls-23" d="M43.91,11.08a.52.52,0,0,0-1,.26.43.43,0,0,0,.07.25h0l0,0,0,0a22.68,22.68,0,1,1-5-5.53.51.51,0,0,0,.85-.39.52.52,0,0,0-.25-.44,23.73,23.73,0,1,0,5.32,5.8Z"/></svg>