<svg id="Layer_1" data-name="Layer 1" xmlns="http://www.w3.org/2000/svg" xmlns:xlink="http://www.w3.org/1999/xlink" viewBox="0 0 3800 1000"><defs><style>.cls-1{fill:url(#linear-gradient);}.cls-2{fill:url(#linear-gradient-2);}.cls-3{fill:url(#linear-gradient-3);}.cls-4{fill:url(#linear-gradient-4);}.cls-5{fill:url(#linear-gradient-5);}.cls-6{fill:url(#linear-gradient-6);}.cls-7{fill:url(#linear-gradient-7);}.cls-8{fill:url(#linear-gradient-8);}.cls-9{fill:url(#linear-gradient-9);}.cls-10{fill:url(#linear-gradient-10);}.cls-11{fill:url(#linear-gradient-11);}.cls-12{fill:url(#linear-gradient-12);}.cls-13{fill:url(#linear-gradient-13);}.cls-14{fill:url(#linear-gradient-14);}.cls-15{fill:url(#linear-gradient-15);}.cls-16{fill:url(#linear-gradient-16);}.cls-17{fill:url(#linear-gradient-17);}.cls-18{fill:url(#linear-gradient-18);}.cls-19{fill:url(#linear-gradient-19);}.cls-20{fill:url(#linear-gradient-20);}.cls-21{fill:url(#linear-gradient-21);}.cls-22{fill:#fff;}.cls-23{fill:url(#linear-gradient-22);}</style><linearGradient id="linear-gradient" x1="960.36" y1="894.29" x2="77.62" y2="126.94" gradientUnits="userSpaceOnUse"><stop offset="0.12" stop-color="#ef070e"/><stop offset="0.26" stop-color="#bd060b"/><stop offset="0.49" stop-color="#6d0306"/><stop offset="0.68" stop-color="#320103"/><stop offset="0.82" stop-color="#0e0001"/><stop offset="0.9"/></linearGradient><linearGradient id="linear-gradient-2" x1="850.5" y1="527.93" x2="341.16" y2="85.17" gradientUnits="userSpaceOnUse"><stop offset="0.14" stop-color="#ed0f14"/><stop offset="0.56" stop-color="#fff"/><stop offset="0.97" stop-color="#250000"/></linearGradient><linearGradient id="linear-gradient-3" x1="826.41" y1="1007.98" x2="97.66" y2="374.48" xlink:href="#linear-gradient-2"/><linearGradient id="linear-gradient-4" x1="670.45" y1="913.14" x2="161.1" y2="470.37" xlink:href="#linear-gradient-2"/><linearGradient id="linear-gradient-5" x1="928.06" y1="557.99" x2="326.64" y2="35.18" xlink:href="#linear-gradient-2"/><linearGradient id="linear-gradient-6" x1="670.48" y1="623.35" x2="243.59" y2="252.26" xlink:href="#linear-gradient-2"/><linearGradient id="linear-gradient-7" x1="684.68" y1="962.87" x2="83.26" y2="440.06" xlink:href="#linear-gradient-2"/><linearGradient id="linear-gradient-8" x1="768.28" y1="746.27" x2="341.39" y2="375.17" xlink:href="#linear-gradient-2"/><linearGradient id="linear-gradient-9" x1="813.69" y1="606.69" x2="304.35" y2="163.92" xlink:href="#linear-gradient-2"/><linearGradient id="linear-gradient-10" x1="844.17" y1="929.31" x2="115.42" y2="295.82" xlink:href="#linear-gradient-2"/><linearGradient id="linear-gradient-11" x1="707.26" y1="834.38" x2="197.92" y2="391.61" xlink:href="#linear-gradient-2"/><linearGradient id="linear-gradient-12" x1="895.5" y1="701.88" x2="166.75" y2="68.39" xlink:href="#linear-gradient-2"/><linearGradient id="linear-gradient-13" x1="692.12" y1="650.55" x2="265.23" y2="279.46" xlink:href="#linear-gradient-2"/><linearGradient id="linear-gradient-14" x1="738.54" y1="873.27" x2="137.12" y2="350.47" xlink:href="#linear-gradient-2"/><linearGradient id="linear-gradient-15" x1="746.64" y1="719.07" x2="319.74" y2="347.97" xlink:href="#linear-gradient-2"/><linearGradient id="linear-gradient-16" x1="874.2" y1="647.58" x2="272.78" y2="124.78" xlink:href="#linear-gradient-2"/><linearGradient id="linear-gradient-17" x1="857.44" y1="870.52" x2="128.69" y2="237.02" xlink:href="#linear-gradient-2"/><linearGradient id="linear-gradient-18" x1="734.78" y1="775.51" x2="225.43" y2="332.75" xlink:href="#linear-gradient-2"/><linearGradient id="linear-gradient-19" x1="882.23" y1="760.68" x2="153.48" y2="127.19" xlink:href="#linear-gradient-2"/><linearGradient id="linear-gradient-20" x1="913.26" y1="623.22" x2="184.51" y2="-10.28" xlink:href="#linear-gradient-2"/><linearGradient id="linear-gradient-21" x1="786.18" y1="665.55" x2="276.83" y2="222.79" xlink:href="#linear-gradient-2"/><linearGradient id="linear-gradient-22" x1="908.59" y1="996.97" x2="75.75" y2="-31.51" gradientUnits="userSpaceOnUse"><stop offset="0.07" stop-color="#ed0f14"/><stop offset="0.12" stop-color="#f14347"/><stop offset="0.17" stop-color="#f57477"/><stop offset="0.22" stop-color="#f89fa1"/><stop offset="0.27" stop-color="#fac2c3"/><stop offset="0.32" stop-color="#fcdddd"/><stop offset="0.37" stop-color="#fef0f0"/><stop offset="0.43" stop-color="#fffbfb"/><stop offset="0.48" stop-color="#fff"/><stop offset="0.61" stop-color="#9e8d8d"/><stop offset="0.72" stop-color="#472828"/><stop offset="0.77" stop-color="#250000"/></linearGradient></defs><title>logo RGB white</title><circle class="cls-1" cx="506.6" cy="499.85" r="428.22"/><path class="cls-2" d="M702.11,238.52l1.13,1a15.23,15.23,0,0,0,21.31-21.71l-2.3-2.09A311.58,311.58,0,0,0,284.5,236.63a311.6,311.6,0,0,1,417.61,1.89Z"/><path class="cls-3" d="M245.28,304.34c.34-.38.7-.75,1.05-1.13a15.23,15.23,0,0,0-21.71-21.31l-2.09,2.3A311.58,311.58,0,0,0,243.39,722a311.57,311.57,0,0,1,1.89-417.61Z"/><path class="cls-4" d="M311.1,761.17l-1.13-1a15.23,15.23,0,0,0-21.31,21.71l2.3,2.09a311.58,311.58,0,0,0,437.75-20.86,311.57,311.57,0,0,1-417.61-1.89Z"/><path class="cls-5" d="M778.56,465c0-.8-.07-1.59-.11-2.39A239.71,239.71,0,0,0,529,235.83,239.71,239.71,0,0,1,755.12,464c0,.4,0,.79,0,1.19a11.72,11.72,0,0,0,23.4-.22Z"/><path class="cls-6" d="M471.77,227.89l-2.39.11A239.71,239.71,0,0,0,242.59,477.48,239.71,239.71,0,0,1,470.8,251.33l1.19-.05a11.6,11.6,0,0,0,7.5-3.36,11.76,11.76,0,0,0,0-16.64A11.62,11.62,0,0,0,471.77,227.89Z"/><path class="cls-7" d="M234.64,534.68l.12,2.39A239.71,239.71,0,0,0,484.24,763.86,239.71,239.71,0,0,1,258.09,535.65c0-.39,0-.79,0-1.19a11.72,11.72,0,0,0-23.4.22Z"/><path class="cls-8" d="M541.44,771.81l2.39-.12A239.71,239.71,0,0,0,770.62,522.21,239.71,239.71,0,0,1,542.41,748.36l-1.19,0a11.72,11.72,0,0,0,.22,23.4Z"/><path class="cls-9" d="M634.07,331.94a184.15,184.15,0,0,0-258.75,12.33,184.18,184.18,0,0,1,246.85,1.11l.66.62a9,9,0,0,0,12.6-12.83Z"/><path class="cls-10" d="M352.76,383.62A9,9,0,0,0,339.93,371l-1.24,1.36A184.18,184.18,0,0,0,351,631.13a184.17,184.17,0,0,1,1.12-246.85Z"/><path class="cls-11" d="M637.89,655.43A184.17,184.17,0,0,1,391,654.31l-.67-.62a8.94,8.94,0,0,0-5.9-2.25,9,9,0,0,0-6.69,15.08l1.36,1.24a184.18,184.18,0,0,0,258.75-12.33Z"/><path class="cls-12" d="M660.45,616.08a8.94,8.94,0,0,0-2.25,5.9,9,9,0,0,0,15.08,6.69l1.23-1.36a184.15,184.15,0,0,0-12.33-258.75,184.18,184.18,0,0,1-1.11,246.85C660.86,615.63,660.65,615.85,660.45,616.08Z"/><path class="cls-13" d="M487.18,348.25l-1.33.06A133.61,133.61,0,0,0,359.44,487.38,133.59,133.59,0,0,1,486.65,361.32l.66,0a6.44,6.44,0,0,0,4.18-1.88,6.53,6.53,0,0,0-4.31-11.16Z"/><path class="cls-14" d="M394,608a133.28,133.28,0,0,0,100.12,39A133.63,133.63,0,0,1,368.07,519.8c0-.22,0-.44,0-.66a6.44,6.44,0,0,0-1.88-4.18A6.53,6.53,0,0,0,355,519.27l.06,1.33A133.15,133.15,0,0,0,394,608Z"/><path class="cls-15" d="M526,651.44l1.33-.06A133.63,133.63,0,0,0,653.77,512.31,133.63,133.63,0,0,1,526.56,638.38l-.66,0a6.44,6.44,0,0,0-4.18,1.88,6.55,6.55,0,0,0,0,9.27A6.48,6.48,0,0,0,526,651.44Z"/><path class="cls-16" d="M619.19,391.7a133.27,133.27,0,0,0-100.12-39A133.61,133.61,0,0,1,645.13,479.89l0,.66a6.48,6.48,0,0,0,1.87,4.18,6.57,6.57,0,0,0,9.28,0,6.48,6.48,0,0,0,1.89-4.3l-.06-1.33A133.11,133.11,0,0,0,619.19,391.7Z"/><path class="cls-17" d="M432.3,443.71a4.29,4.29,0,0,0,1.09-2.85,4.37,4.37,0,0,0-4.37-4.37,4.32,4.32,0,0,0-2.91,1.14l-.6.66a89,89,0,0,0,6,125A89,89,0,0,1,432,444C432.1,443.93,432.21,443.82,432.3,443.71Z"/><path class="cls-18" d="M570,575a89,89,0,0,1-119.22-.54c-.11-.09-.21-.2-.32-.3a4.35,4.35,0,0,0-7.22,3.29,4.32,4.32,0,0,0,1.14,2.91l.66.6a89,89,0,0,0,125-6Z"/><path class="cls-19" d="M580.9,556a4.35,4.35,0,0,0,3.28,7.22,4.33,4.33,0,0,0,2.92-1.14l.6-.66a89,89,0,0,0-6-125,89,89,0,0,1-.54,119.22Z"/><path class="cls-20" d="M769.82,277.74a311.6,311.6,0,0,1-1.89,417.61l-1,1.13a15.23,15.23,0,0,0,21.71,21.31l2.09-2.3a311.58,311.58,0,0,0-20.86-437.75Z"/><path class="cls-21" d="M443.2,424.71a88.94,88.94,0,0,1,119.21.54l.33.3a4.35,4.35,0,0,0,6.08-6.2l-.66-.6a89,89,0,0,0-125,6Z"/><path d="M634.93,408.08c21.63-16.64,37.71-36.05,62.67-49.91-2.22-1.67-2.22-3.89,0-5.55,7.76-6.1,16.64-10,22.19-18.3,1.66,1.11,8.31,17.19,3.32,25.51h-3.32c10,10,.55,58.23,3.32,64.89-1.66,1.11-1.66,1.11-5.54,1.66-3.33,1.67-3.33.56-8.88,0v-1.66c3.89.55,3.33,0,5.55,1.66,4.44-2.77,2.22.56,3.33-5.55-10.54,0-10.54-1.66-11.1,5.55-2.21-.55-5-1.11-7.21-1.66v3.33c7.21.55,15,1.66,22.19,2.21l1.66,1.67v9.42c-11.64-1.66-23.29-2.21-29.39-5.54h-9.43a7.73,7.73,0,0,1,2.22,1.66c6.65,5.55,23.85,7.21,34.94,7.21a7.73,7.73,0,0,1,1.66,2.22c-1.11,6.66.56,5-5.54,7.21,2.22,1.11,1.66,1.11,5.54,1.66.56,9.43,1.11,13.87-5.54,16.64,2.77,4.44,0,2.22,5.54,3.88V478c-2.22.55-5,1.11-7.21,1.66,2.22,3.33,3.89,3.88,7.21,5.55-1.66,1.66-.55,1.11-3.32,2.22,2.77,3.32,5.54,8.32,8.87,11.09v1.66l-18.3-1.66c3.32,5,2.22,1.66,1.66,8.87,5-2.22,2.22.56,3.88-5.54,11.65,0,16.64,1.66,22.19,7.76a8.76,8.76,0,0,0,2.22.55c.55,0,.55.56,1.66,1.11-10.54,5.55-11.65,17.2-26.07,18.3,2.22,1.67,3.33,1.67,7.21,2.22v40.49c-27.17,0-36.05-6.66-57.12-11.09-7.21-1.67-8.32,3.32-12.76,3.88a65.81,65.81,0,0,1-3.88-5.55c-7.21-3.32-12.2,3.33-18.3,0h-3.88V537.3c23.29,7.76,56.57,9.43,77.64,8.87-11.65-8.32-29.95-2.77-46-7.21-26.62-7.21-46.59-10-77.64-9.43,7.21,5,21.63,2.78,29.39,7.77H620V539c-15.53,10-27.73,24.41-42.71,34.94-8.87,6.66-19.41,11.65-25.51,20.52a101.69,101.69,0,0,0-18.3,0l1.66,1.67c2.22,1.66,2.22-.56,5.55,1.66,1.67,1.11,2.22,1.11,2.22,1.11.55,0,.55.55,1.66,1.11-5.54,2.22-6.65,2.22-9.43,7.21-22.18-1.11-38.26-4.44-49.91-16.64h-1.66v-1.66c10,3.32,27.73,1.66,36.6,7.21h11.09v-1.67c-17.75-8.32-40.48-4.43-57.12-11.09-.55-3.88-1.66-.55,0-3.88-4.44-6.66-16.64-7.77-22.18-14.42H448v-2.22c10,.56,28.29,1.11,35.5,5.55h3.32c-6.65-11.65-32.72-3.33-46-8.88-6.65-2.77-30.5-23.84-34.94-30H402c3.33,7.22,6.1,10,5.55,22.19-11.09,0-18.3-.56-25.51-3.33v1.66c-.56.56-1.67,1.11-2.22,1.67,8.32,2.22,18.3,5,27.73,5.55,0,11.09-2.22,17.19,0,18.85v12.76c-4.44-1.67-7.21-1.11-11.09-2.22,3.88,6.1,8.87,1.66,11.09,5.54,6.65,10.54-3.33,28.29,5.54,38.83-1.66,1.66-1.66,1.1-5.54,2.21C418.64,646,437.5,651,459.13,647.66c-1.67,15.53-13.32,26.07-31.06,26.07,1.66,1.66.55.55,3.88,1.66v2.22c-28.28,7.21-44.37,10.54-68.77-3.88-.55-4.44,0-1.66,0-7.21-8.87-3.33-25.51-1.11-32.72-5.55h-3.88v3.33c5,.56,16.08,1.11,20,3.88h11.09v1.67c-5.54,3.88-10,10.53-16.63,13.31-17.75,6.65-51-2.22-68.22-11.09-6.65-3.89-11.09-15-16.64-20.52V646c28.29,11.09,36.05-8.87,53.8-9.43-5.55-8.32,0-47.69,0-71.54,7.21,0,20.52,0,25.51,3.33h3.88v-1.67c-10.53-4.43-15-4.43-29.39-3.88v-5.54h7.21V555.6c-2.22-.55-5-1.11-7.21-1.66,0-10-1.11-18.3-1.66-26.07,3.88.56,5,.56,7.2,1.66h3.89v-1.66a55.89,55.89,0,0,0-15-1.66c-1.11-3.33-.55-2.22-1.66-3.88,2.22-1.67,2.77-1.67,7.21-1.67v-2.22c-8.32-1.11-11.65-.55-16.64-7.21h-3.88c3.33-1.66,2.77-1.66,5.54,0,8.88-9.42,15.53-18.3,15-36.6,7.76,0,22.18,0,27.73,3.33H341v-1.67c-9.43-3.88-22.19-6.1-31.06-5.54V422.5h5.54c-2.77-2.78-1.1-2.22-5.54-3.33V402.53a22.62,22.62,0,0,0,2.22,1.67c.55.55.55,1.66,1.66,3.88,2.77-1.11,1.66-.56,3.33-2.22a7.59,7.59,0,0,1,2.22-1.66h-2.22a26.86,26.86,0,0,1-1.67-3.89h-5.54c.55-17.19,2.22-37.71,0-40.48V334.32c25.51,13.31,45.48,38.26,68.21,54.9,12.76,10,30,18.3,38.83,31.61-16.09-5-59.9-9.42-79.31-9.42,6.65,5,16.08,1.66,25.51,3.88,22.74,5.54,54.91,8.32,72.1,18.3v3.88c-33.83-8.32-79.86-17.19-118.13-16.64v3.89c17.75,0,32.17,5,46,7.21,10,1.66,27.73,1.11,38.82,3.88,14.42,1.66,28.29,3.33,42.71,5.54,6.65,2.78,11.09,12.21,16.63,16.64,8.32,6.1,17.2,9.43,25.51,16.64,3.89,2.77-1.66,4.44,2.22,7.21,2.78.55,6.1,1.11,8.88,1.66,7.21,5,12.2,12.21,20.52,16.64,3.32,1.67,6.65-1.11,9.42-5.54,7.77,1.11,8.88,3.32,12.76,7.21h9.43v-1.67c-5-1.66-10-5.54-13.31-9.43l-1.67-1.66c8.88-6.1,16.64-17.19,25.52-22.18H570c-5.54-1.67,3.89-11.65,5.55-12.76,10.54-7.76,16.64-13.87,29.39-15-1.66-1.11-1.66-1.11-5.54-1.67C607.76,424.72,622.73,417,634.93,408.08ZM276.66,655.43h-3.88a13.36,13.36,0,0,0,3.88,1.66Zm38.82,27.73v-3.88h-7.2c1.1,1.1,3.88,2.21,5.54,3.88Zm16.64-123.68a7.52,7.52,0,0,0-1.66-2.21c-3.33-3.89-5-4.44-11.09-5.55,0,6.1,0,2.77,5.54,7.76Zm-5.54,20c-2.78-1.11-3.33-1.11-7.21-1.66,1.66,1.66,3.33,3.88,5.54,5.54h1.67Zm-3.88,70.43h-3.33c1.66,1.11,0,.56,3.33,1.67Zm7.76-286.17H321c1.11,3.33.56,1.67,1.67,3.33v2.22a16.71,16.71,0,0,0,5.54-2.22,7.55,7.55,0,0,1,2.22-1.66ZM322.7,592.2c2.21,1.67,1.66,1.67,5.54,2.22C326.58,592.76,326.58,593.31,322.7,592.2Zm7.76,46.59v-2.22c-2.77-.55-5-1.11-7.76-1.66v3.88Zm-2.22-227.38c3.33-1.67,2.22-.56,0-3.33Zm0,70.43h5.55a13.11,13.11,0,0,0,3.88,1.66v-1.66h-3.88v-2.22c-1.67-.55-3.33-1.11-5.55-1.66Zm11.09,114.25c-2.22-1.67-4.43-1.67-8.87-1.67C332.68,596.09,334.9,596.09,339.33,596.09Zm-3.88-136.43h-3.33c1.67,1.66.56.55,3.33,1.66ZM339.89,549s0-.56,1.11-.56h9.42v-2.22l-18.3-3.32c2.78,3.32,2.22,3.88,7.21,5.54Zm-7.77,98.71c2.78,2.22,1.67,3.33,3.33,0ZM333.79,367c.55,5.54-1.11,2.77,3.88,3.88V367Zm3.88,42.7h-3.88c2.21,1.67.55.56,3.88,1.67Zm0,153.07v-3.33h-3.88v3.33Zm0,77.64v-3.88h-3.88v3.88ZM341,581.67c-1.67-1.67-1.67-1.67-5.55-2.22C337.67,581.11,337.67,580.56,341,581.67ZM339.33,585h-3.88c2.22,1.67.55.56,3.88,1.67Zm3.89-180.79h-3.89c2.22,1.66.56.55,3.89,1.66Zm3.32,79.3h-3.32c1.66,1.67.55.56,3.32,1.67ZM343.22,565c3.88-1.11,2.21-1.66,5.54,0h8.87c-2.77-4.44-9.42-4.44-14.41-5.55Zm1.66,88.18c3.33-1.66,2.22-.55,0-3.33ZM356,382c-2.77-1.11-2.77-1.11-7.21-1.66l3.33,3.33H356Zm-7.21,258.44c2.77,2.22,1.11,2.78,3.33,0Zm1.66-157c2.22,1.67,1.67,1.11,5.55,1.67C354.31,484.06,354.31,484.06,350.42,483.5Zm0,98.17a13.32,13.32,0,0,0,3.89,1.66v-1.66Zm11.1,43.81h-11.1c2.22,1.66,6.66,2.77,9.43,3.88V627.7h1.67Zm-9.43-149.19v3.33H356v-3.33Zm11.09,18.31c-1.66-1.67-2.77-1.67-7.21-1.67C358.19,494,359.3,494,363.18,494.6Zm-5.55,55.45c-1.11-3.32,0-1.66-1.66-3.88v3.88Zm9.43-37.15c-2.22-1.67-4.43-1.67-9.43-1.67C360.41,512.9,362.63,512.9,367.06,512.9Zm-1.66,64.89v-1.67a7.73,7.73,0,0,1,1.66-2.22c-2.77-1.11-4.43-1.66-9.43-1.66C360.41,576.12,361,576.12,365.4,577.79Zm1.66-110.92c-2.77-1.11-2.77-1.11-7.21-1.67,2.78,3.33,1.67,2.78,7.21,3.89ZM365.4,646c-2.77-4.44.55-2.22-5.55-3.88C362.07,645.45,361,644.34,365.4,646Zm1.66-107c-2.22-1.66-1.66-1.11-5.54-1.66C363.74,538.41,363.18,538.41,367.06,539Zm3.88,118.13h7.21c-2.77-4.43-11.09-5-16.63-5.54C361.52,657.65,364.84,653.21,370.94,657.09Zm-7.76-249c5,3.33,14.42,3.88,22.18,3.33,2.22,1.66,1.67,1.11,5.55,2.21-1.66-1.66-1.66-1.1-5.55-2.21C380.93,408.08,372.05,407.52,363.18,408.08Zm0,29.39a7.73,7.73,0,0,1,2.22,1.67c2.77,1.66,5,1.1,8.87,2.21v-2.21c.56-.56,1.67-1.11,2.22-1.67a22.11,22.11,0,0,0-9.43-1.66C365.4,436.92,366.51,436.36,363.18,437.47Zm9.43,88.74h-9.43c3.33,3.32,2.77,2.77,9.43,3.32Zm-3.88,23.84c-1.67-1.66-1.67-1.1-5.55-1.66,2.22,1.11,1.66,1.11,5.55,1.66a13,13,0,0,1,3.88,3.89h3.88v-3.89Zm11.09,16.64v-3.88c-6.66,1.11-8.32.56-16.64,0C365.4,568.36,370.94,567.8,379.82,566.69Zm-11.09,42.15H365.4c1.66,1.67.55,1.11,3.33,2.22Zm-1.67-225.16c2.22,1.66,1.67,1.66,5.55,2.22C370.39,384.23,370.94,384.79,367.06,383.68Zm5.55,122c-2.22-1.11-1.67-1.11-5.55-1.67C369.28,505.13,368.73,505.13,372.61,505.69Zm-5.55,92.06c2.22,1.66,1.67,1.66,5.55,2.22C370.39,598.31,370.94,598.86,367.06,597.75Zm9.43,68.77c-3.88.56-3.88,0-5.55,1.66h-3.88c1.67,1.11,6.1,2.22,7.21,3.89C375.94,669.85,375.38,669.85,376.49,666.52Zm-7.76-38.82c2.77,2.77,1.11,2.22,5.54,3.33C371.5,626.59,374.83,628.81,368.73,627.7ZM376.49,539c-2.22-1.66-1.66-1.11-5.55-1.66C372.61,538.41,372.61,538.41,376.49,539Zm18.3,108.7c-6.65-2.77-12.75-3.32-23.85-3.32,2.78,2.22,7.77,3.32,11.1,5.54h12.75ZM383.7,472.41v-1.66c-2.77-1.11-4.44-1.66-9.43-1.66C377.6,472.41,377,471.86,383.7,472.41ZM378.15,504h-3.88a13.32,13.32,0,0,0,3.88,1.67Zm-3.88,104.82c2.22,1.67,1.67,1.67,5.55,2.22C378.15,609.4,378.15,610,374.27,608.84Zm13.31,72.1c-2.77-1.66-5-1.66-9.43-1.66C380.37,680.94,382.59,680.94,387.58,680.94Zm-7.76-286.17c2.22,1.66,1.66,1.66,5.54,2.22C383.7,395.32,383.7,395.88,379.82,394.77Zm0,52.13h3.88c-1.11-6.1-.55-5-3.88-7.76Zm7.76,51.58v-2.22c-2.77-.55-3.33-1.11-7.76-1.66v3.88Zm5.55,31h-2.22c-2.77-1.66-4.44-1.1-11.09-1.66.55,5,3.33,3.88,13.31,3.88ZM385.36,539c-1.66-.55-3.32-1.11-5.54-1.66,2.77,2.77,1.11,1.66,5.54,3.33Zm0,127.56c-2.77,4.44,0,2.22-5.54,1.66v3.89c11.09-.56,15,0,27.73,0C402.56,667.63,395.9,666.52,385.36,666.52ZM398.67,524v-1.66H385.36v-1.67H382c1.66,1.11.55.56,3.32,1.67,3.33,2.21,7.77,2.77,9.43,1.66Zm-2.21-16.64c-3.89-.55-8.32-1.11-12.76-1.66a34.39,34.39,0,0,1,5.55,3.88h7.21Zm-5.55,79.31h-3.33c1.67,1.66,0,1.11,3.33,2.22Zm-1.66,42.7c-2.22,2.77-1.11,5.55,3.88,3.88Zm0-147.52c2.22,1.11,1.66,1.11,5.54,1.66C392.57,482.39,393.13,482.39,389.25,481.84Zm3.88,61V539h-3.88v3.89ZM389.25,565c2.22,1.11,3.32,1.11,7.21,1.66C394.24,565,393.68,565,389.25,565Zm1.66,36.6c2.22,1.67,3.33,1.67,7.76,1.67C396.46,602.19,395.35,602.19,390.91,601.63Zm3.88-154.73h1.67c-1.11-3.33,0-2.22-1.67-3.88Zm11.09,206.31v-3.33c-3.32-.55-6.1-1.66-9.42-2.22,2.21,2.78,5,3.33,7.76,5.55Zm3.89-168v-3.33H402l-1.66,1.66c-.56,1.11,6.65,1.11,7.21,1.67Zm-5.55-71.55h-3.88c1.66,1.11.55.56,3.88,1.67Zm3.33,47.7-1.67-1.66c-2.21-4.44,1.11-1.11-3.88-3.89C402.56,460.76,399.78,459.66,407.55,461.32ZM409.77,524c-2.78-.56-3.33-1.11-7.77-1.66.56,5-.55,3.32,7.77,3.88Zm0-108.7h-3.89c1.67,1.66.56.55,3.89,1.66Zm5.54,237.92a24.3,24.3,0,0,1-3.88-3.33C408.66,652.1,410.32,654.87,415.31,653.21Zm5.55-121.46a4.3,4.3,0,0,1-2.22-2.22c-2.22-2.77-1.11-2.21-5.55-3.32a39,39,0,0,0,2.22,5.54Zm3.32-33.27a39,39,0,0,1-5.54-2.22c1.11,3.33.55,2.22,2.22,3.88v1.67h3.32Zm-3.32,12.75c1.66,1.67,2.77,1.67,7.21,1.67C425.85,511.79,424.74,511.79,420.86,511.23ZM426.4,443h-3.88c1.66,1.66.56.55,3.88,1.66Zm-3.88,15c1.66,1.11,1.66,1.11,5.55,1.67C425.85,458,426.4,458.55,422.52,458Zm23.85,75.43v-3.89c-7.76-.55-16.08-1.1-23.85-1.66,2.77,5,8.32,2.77,12.76,5.55ZM432,544.51c-2.22-1.66-3.33-1.66-7.77-1.66C426.4,544,427.51,544,432,544.51Zm-3.88-68.22c1.66,1.67.55.56,3.88,1.67v-1.67ZM432,501.81h-3.88c1.66,1.66.55,1.1,3.88,2.21Zm0,153.62h-3.88c1.66,1.11.55.55,3.88,1.66ZM432,458c2.77,4.44,3.88,3.33,10.54,3.33C440.27,459.66,435.28,458.55,432,458ZM448,516.78c-2.77-2.22-9.42-3.33-14.42-3.88C437.5,516.78,440.82,516.78,448,516.78Zm-8.87,29.39c-2.22-1.11-1.66-1.11-5.55-1.66C435.28,545.62,435.28,545.62,439.16,546.17Zm-1.66-49.91c-1.67-2.77-.56-1.66-2.22-3.33v3.33Zm3.32-18.3H437.5c1.66,1.66,0,.55,3.32,1.66Zm-1.66,188.56h5.55V664.3c-2.22-.55-3.89-1.11-5.55-1.66ZM448,546.17h-3.32c1.66,1.67.55,1.11,3.32,2.22Zm-1.66,109.26c2.77,2.77,1.11,1.66,5.55,3.33C449.14,654.32,452.47,656.54,446.37,655.43Zm12.76-173.59H455.8c1.66,1.11.55.55,3.33,1.66Zm31.61,64.33c13.31,6.1,11.64-7.76,20.52,2.22h7.21c-1.67-2.77-3.89-5-5.55-7.76-11.09-.56-12.2-2.22-16.64,3.88-5-3.33-2.77,0-1.66-5.55-11.65-1.66-23.29-3.88-35.49-5.54,6.65,11.64,19.41,3.33,26.06,5.54C486.85,541.18,489.07,544,490.74,546.17Zm-5.55,7.77v-2.22H478c1.11,2.22,1.67,3.88,3.33,5.55v-3.33Zm0-9.43c-2.22-1.66-1.66-1.11-5.54-1.66C481.86,544,481.31,544,485.19,544.51Zm3.88,38.82c-2.77-4.44.56-2.22-5.54-3.88C485.75,582.22,484.64,581.67,489.07,583.33Zm3.33-29.39h-3.33c-1.11,2.77-.55,1.66-2.22,3.33,2.22,1.66,1.67,1.1,5.55,2.21ZM559,579.45h-3.88l-1.66-1.66c-2.78-4.44-52.69-11.65-62.67-11.1,13.31,11.1,49.91,3.33,59.34,12.76h5c2.22,1.66.55.55,3.88,2.22Zm-64.33-25.51c1.66,1.11,0,.55,3.33,1.66v-1.66Zm8.87,5.54a16.41,16.41,0,0,0-5.54-2.21c.55,5-1.11,2.77,5.54,3.88Zm2.22-38.82h-3.88c1.66,1.11.55.56,3.88,1.67Zm1.66,62.67c-2.21-2.22-1.66-1.11-5.54-1.66C505.16,583.89,502.94,585.55,507.37,583.33ZM509,600v-2.22c-1.67-.55-3.33-1.11-5.55-1.66V600Zm22.18,11.09c-3.33,1.66-5,2.22-7.21,5.55-8.32-1.67-13.86-6.1-18.3-11.09,8.32,1.1,17.19,2.21,25.51,3.32ZM507.37,498.48c2.22,2.77,1.11,2.22,5.55,3.33C510.15,497.37,513.47,500.14,507.37,498.48Zm18.31,88.18c-1.67-1.11-1.67-1.11-5.55-1.67C522.35,586.66,521.79,586.1,525.68,586.66Zm-3.33-36.61c5.54-.55,6.1,0,14.42,0,1.11-3.32.55-1.66,2.22-3.88-3.33-1.66-4.44-1.66-7.77,0-5.54-1.11-5-1.66-8.87-3.32Zm8.87,36.61h-3.33c1.67,1.66,0,1.11,3.33,2.22Zm2.22-27.18h-3.88c1.66,1.11.55.56,3.88,1.67Zm8.88-11.09H539v3.33h3.33Zm3.88-41h-3.88c2.21,1.67.55,1.11,3.88,2.22Zm3.88,5.55c-3.33-.56-3.33-1.11-7.76-1.67,1.1,1.11,2.77,2.22,3.88,3.89h3.88Zm-2.22,33.27h-3.33v3.88h3.33Zm7.21-69.88h-3.33c1.67,1.67.56.56,3.33,1.67Zm2.22,22.19v1.66h3.33v-3.88c-1.67-.55-3.33-1.11-5.55-1.66C556.73,497.92,555.62,496.26,557.29,498.48Zm8.87,57.12v-1.66a27.2,27.2,0,0,0-7.21-2.22v3.88Zm0-40.48h-3.32c1.66,1.11.55.55,3.32,1.66ZM603.32,504c-12.76-1.11-20.52-2.77-34.94-2.21,7.76,5.54,25,2.21,33.28,7.76C602.77,507.35,602.77,507.91,603.32,504ZM582.8,472.41c-1.66-3.88-5-5-8.87-7.21,1.1,4.44,1.66,3.89,3.32,7.21ZM684.29,573.9v2.22s1.11,3.33,2.22-3.88c6.1,1.66,4.44,1.11,7.21,5.55,1.66-3.89.55-1.67,0-5.55,8.87,1.11,21.07,7.76,27.73,3.88h1.66c0,16.64,1.67,33.28,2.22,47.7-5.54-.56-15-1.11-18.86-3.89h-5.54c1.66,3.33.55,2.22,2.22,3.89,6.1,3.88,18.3,4.43,23.84,3.88,5,3.88,5.55,12.75,11.1,16.64,7.76,5,21.63,3.32,29.39,8.87,2.77-2.22,5-5,7.21-7.21h2.22c-.56,11.65-4.44,16.64-16.64,16.64,1.66,1.11,1.66,1.11,5.55,1.66-6.66,15.53-79.31,34.39-88.74,3.88-7.76,3.33-11.65,11.65-20,15-38.27,13.86-69.33-13.87-83.19-31.61V646c19.41,8.87,33.83-1.11,46-9.43,5-18.85,7.76-42.15,7.21-69.88,7.21.56,39.93,9.43,44.37,7.21,2.77-1.11,3.32-3.88,7.2-5.54Zm-107-92.06c3.33-1.66,2.22-.55,0-3.88Zm3.89,7.21h-3.89c2.22,1.66.56.56,3.89,1.66Zm5.54-9.43H582.8c2.22,1.67.56,1.11,3.88,2.22ZM585,472.41h5.54v-1.66c-2.21-.56-3.88-1.11-5.54-1.66Zm1.66-8.87h5.55v-2.22c-1.67-.56-3.88-1.11-5.55-1.66Zm1.67-11.09c2.21,1.11,3.32,1.11,7.76,1.66,2.22,1.66,4.44,1.66,8.87,1.66-2.21-1.66-4.43-1.66-8.87-1.66C593.89,452.45,592.78,452.45,588.35,452.45Zm7.76,84.85h-3.88c1.66,1.11.55.55,3.88,1.66Zm0-72.1h1.66a13.24,13.24,0,0,0-1.66-3.88Zm5.55,7.21h-3.89c1.67,1.67.56.56,3.89,2.22Zm0,197.44h-3.89c1.67,1.66.56.55,3.89,2.22Zm25.51-180.8v-1.66c-7.77-1.11-16.09-2.78-23.85-3.89,3.33,5,10,2.78,15,5.55Zm-23.85,1.66v3.89h3.88v-3.89Zm86.52,29.95v-2.22a101.18,101.18,0,0,0-36.61-5.54c-8.32-4.44-30.5-7.77-46-8.88v5.55c9.43.55,66,6.1,73.76,11.09Zm-73.76-72.09h-3.33c1.66,1.66,0,.55,3.33,1.66Zm5.54,47.69c-2.77-4.44.56-1.66-5.54-3.33C618.85,495.71,617.18,495.15,621.62,496.26Zm0-57.12h-3.33c1.67,1.66,0,1.1,3.33,2.21Zm0,214.07h-3.33c1.67,1.66,0,1.11,3.33,2.22Zm3.88-8.87c2.22,1.11,3.33,1.11,7.21,1.66C630.5,644.34,629.94,644.34,625.5,644.34Zm1.67-214.08c2.22,1.11,1.66,1.11,5.54,1.67C631.05,430.26,631.05,430.82,627.17,430.26Zm0,11.09c2.22,1.11,1.66,1.11,5.54,1.67C631.05,441.35,631.05,441.91,627.17,441.35Zm3.88,27.74h-3.88a13.51,13.51,0,0,0,3.88,1.66Zm57.12,197.43V664.3c-14.42-5.54-39.93-8.32-61-8.87,12.2,10.54,34.38,3.33,46,11.09ZM629.39,459.66c10,7.76,41,8.32,53.24,7.21C674.31,461.32,643.8,459.1,629.39,459.66Zm3.32,29.39,3.89,3.88h3.88v-3.88Zm0,92.62h7.77v-3.88H636.6c-2.22,1.66-.56.55-3.89,1.66Zm3.89-140.32c-1.67,1.67.55,1.67,1.66,1.67a7.59,7.59,0,0,1,2.22-1.67Zm5.54,14.42c-2.77-4.43.56-2.21-5.54-3.32a23.43,23.43,0,0,0,3.88,3.32Zm-3.88-25.51c2.22,1.11,3.33,1.11,7.76,1.67C643.8,430.26,642.7,430.26,638.26,430.26Zm3.88,171.37h-3.88c2.22,1.67.55.56,3.88,1.67Zm0,31.61h-3.88a13.2,13.2,0,0,0,3.88,1.67Zm-1.66-18.85c1.66,1.66,0,1.11,3.32,2.22v-2.22Zm7.21-169.71V443c-1.67-.56-3.89-1.11-5.55-1.67v3.33ZM646,634.91h5.55c-2.77-4.44,0-2.22-5.55-3.88Zm5.55-180.8h-3.88c1.66,1.66.55.55,3.88,1.66Zm12.75-20.52c-2.77-1.66-11.09-2.77-15-3.33,0,5.55,1.67,1.11,7.77,5.55,3.32-1.11,3.32-.56,5-2.22Zm-11.09,11.09c1.67,1.67,1.67,1.11,5.55,2.22C656.56,445.24,657.12,445.24,653.23,444.68Zm11.09,55.46c3.33-1.66,2.22-.55,0-3.88V494.6l1.67-1.67h-1.67a13.72,13.72,0,0,0-2.21-3.88h-5c-1.11,2.77-1.67,3.33-2.22,7.21,5.54-.55,4.43-1.11,9.42,0Zm25.52-49.91c-5-4.44-17.75-6.1-25.52-7.21-2.21-1.67-1.66-1.11-5.54-1.67,1.66,1.11,1.66,1.11,5.54,1.67,3.33,6.1,10.54,3.88,16.64,7.21Zm-12.76-46c-5-2.22-9.43-3.33-16.64-3.89,2.78,4.44,5.55,3.33,9.43,5.55h7.21Zm-12.76,7.21h-3.88c2.22,1.66.56,1.11,3.88,2.21Zm-2.21-18.31c2.21,1.67,2.21,1.11,5.54,1.67C666,393.66,666,393.66,662.11,393.1Zm3.88,203h-3.88c2.21,1.66.55.55,3.88,1.66Zm-1.67,51.57c3.33,3.89,3.89,3.89,11.1,3.89C672.64,649.33,668.21,648.77,664.32,647.66ZM666,458c2.22,1.11,3.33,1.11,7.21,1.67C671.54,458,670.43,458,666,458Zm3.88,32.72c1.11,3.33,0,2.22,1.67,3.89v1.66s1.1,3.88,1.66-3.33h3.88v-2.22Zm8.87,127.56c-1.66-.55-3.32-1.11-5.54-1.66,2.77,2.77,1.11,2.22,5.54,3.32ZM681,398.65c-2.77-4.44.56-2.22-5.54-3.88a24.81,24.81,0,0,0,3.32,3.88Zm-3.88,240.14v1.66h1.66c-1.1-4.43-.55-2.77-3.32-5.54C676.53,638.24,675.42,636.57,677.08,638.79Zm7.21-216.29h-7.21c4.44,4.44,1.11,2.22,7.21,2.22Zm18.86,76c2.77-1.11,1.66-.56,3.32-2.22l-1.66-1.66c-7.21.55-7.76,0-11.09,3.88h-5.55l3.89-3.88c-3.33-.56-6.11-1.11-9.43-1.67C681,494,681,494,677.08,494.6a13.65,13.65,0,0,0,1.66,3.88C684.29,501.81,694.27,505.13,703.15,498.48ZM681,600h-3.88a13.36,13.36,0,0,0,3.88,1.66Zm1.67-140.31h-3.89c2.22,1.66.56.55,3.89,1.66Zm7.21,160.27c-3.33-1.1-4.44-2.21-8.88-3.32.56,1.66,1.11,3.32,1.67,5.54h7.21Zm7.76-221.28c-4.44-1.66-8.87-3.33-15-3.88,2.21,4.44,2.77,2.77,5.54,5.54h9.43ZM692.06,600h-9.43c1.66,1.11,4.43,2.22,5.54,3.33h3.89Zm-7.77-191.89h7.77V404.2h-7.77Zm15,230.71c-3.32-.55-6.1-1.66-9.42-2.22v-1.66h-3.33c1.66,1.66.55.55,3.33,1.66.55,2.77,2.22,7.77,7.76,3.88Zm-9.42,38.82v-3.88h-3.33v3.88Zm7.76-251.23v-1.66c-4.44-1.67-4.44-2.22-7.76-3.89-.56,1.67-1.11,3.89-1.67,5.55Zm5.55,44.37c-3.89-3.33-7.77-3.88-15-3.88C692.06,470.19,695.38,470.75,703.15,470.75Zm40.48,201.32c-17.19-2.78-34.38-5-51.57-7.77,2.77,4.44,46,11.09,49.91,9.43ZM693.72,522.33h5.54c-2.77-4.44.56-2.22-5.54-3.89Zm7.21,5.54c-2.22-1.66-2.77-1.66-7.21-1.66C695.94,527.32,697.05,527.32,700.93,527.87Zm-5.55,92.06v3.89h3.88v-3.89Zm3.88-221.28c2.78,2.77,1.11,2.22,5.55,3.88C702,397.54,705.36,400.31,699.26,398.65Zm18.31,11.09c-6.1-1.11-12.21-2.22-18.31-3.88,3.89,6.1,8.32,6.1,18.31,5.55Zm-18.31,9.43c2.78,2.22,1.67,2.77,3.89,0Zm3.89,217.4h-3.89c1.67,1.67.56,1.11,3.89,2.22Zm0-182.46H712v-1.66a64,64,0,0,0-11.09-3.88C701.48,453.56,699.82,449.12,703.15,454.11Zm3.32,101.49v-1.66a16.42,16.42,0,0,0-5.54-2.22v3.88Zm-5.54,95.95c.55,6.1,3.33,6.1,15,5.54C712.58,654.87,704.81,652.66,700.93,651.55ZM712,527.87c-2.22-.55-5-1.11-7.21-1.66.55,3.88-1.66,1.66,1.66,3.32v2.22c3.89.56,2.78-1.11,3.89-2.22Zm-7.21-169.7c2.22,1.11,1.66,1.11,5.55,1.66C708.14,358.72,708.69,358.72,704.81,358.17Zm15,245.13H706.47c1.67,1.66,4.44,2.77,5.55,3.88h7.77ZM712,485.17h-3.33c1.67,1.66.56,1.11,3.33,2.22Zm2.22,153.62c-2.22-.55-3.88-1.66-5.55-2.22,2.22,3.33,1.11,2.22,5.55,3.88Zm3.33-266.21h-3.33c1.66,1.67,0,1.11,3.33,2.22Zm-3.33,120.35v3.33h3.33v-3.33Zm0,68.22c3.33-1.67,1.66-.56,0-3.88Zm7.21-15h-3.88c2.22,1.67.55,1.11,3.88,2.22Zm-1.66-34.94h1.66a13.65,13.65,0,0,0-1.66-3.88Zm3.32,169.71h-3.32c1.66,1.66,0,.55,3.32,2.22Zm-1.66-23.85c2.22,1.11,1.66,1.11,5.54,1.67C724.78,657.65,725.33,657.65,721.45,657.09Zm7.21-140.31h3.88c-1.66-6.1,1.11-2.77-3.88-5.55Zm2.22,142c2.21,1.66,2.77,1.66,7.21,2.21C735.87,659.31,734.76,659.31,730.88,658.76Zm8.87-5.55c2.77,1.66,4.44,1.66,9.43,2.22a24.3,24.3,0,0,0,3.88,3.33h3.33v-1.67c-2.78-1.11-2.78-1.11-7.21-1.66C747,653.76,744.74,653.76,739.75,653.21Zm18.86,11.09v-1.66c-2.22-.56-3.89-1.11-5.55-1.67v3.33Z"/><path class="cls-22" d="M616,397.2c21.63-16.64,37.71-36.05,62.67-49.91-2.22-1.67-2.22-3.89,0-5.55,7.76-6.1,16.64-10,22.18-18.3,1.67,1.11,8.32,17.19,3.33,25.51h-3.33c10,10,.56,58.23,3.33,64.89-1.66,1.11-1.66,1.11-5.55,1.66-3.32,1.67-3.32.56-8.87,0v-1.66c3.88.55,3.33,0,5.55,1.66,4.43-2.77,2.22.56,3.32-5.55-10.53,0-10.53-1.66-11.09,5.55-2.21-.55-5-1.11-7.21-1.66v3.33c7.21.55,15,1.66,22.19,2.21l1.66,1.67v9.42c-11.65-1.66-23.29-2.21-29.39-5.54h-9.43a7.73,7.73,0,0,1,2.22,1.66c6.65,5.55,23.85,7.21,34.94,7.21a7.73,7.73,0,0,1,1.66,2.22c-1.11,6.66.56,5-5.55,7.21,2.22,1.11,1.67,1.11,5.55,1.66.56,9.43,1.11,13.87-5.55,16.64,2.78,4.44,0,2.22,5.55,3.88v1.67c-2.22.55-5,1.11-7.21,1.66,2.22,3.33,3.88,3.88,7.21,5.55-1.66,1.66-.55,1.11-3.33,2.22,2.78,3.32,5.55,8.32,8.88,11.09v1.66l-18.3-1.66c3.32,5,2.21,1.66,1.66,8.87,5-2.22,2.22.56,3.88-5.54,11.65,0,16.64,1.66,22.18,7.76a8.74,8.74,0,0,0,2.22.56c.56,0,.56.55,1.67,1.1-10.54,5.55-11.65,17.2-26.07,18.31,2.22,1.66,3.33,1.66,7.21,2.21v40.49c-27.17,0-36.05-6.66-57.12-11.09-7.21-1.67-8.32,3.32-12.76,3.88a65.81,65.81,0,0,1-3.88-5.55c-7.21-3.32-12.2,3.33-18.3,0h-3.88V526.42c23.29,7.76,56.57,9.43,77.64,8.87-11.65-8.32-29.95-2.77-46-7.21-26.62-7.21-46.59-10-77.65-9.42,7.21,5,21.63,2.77,29.4,7.76H601v1.66c-15.53,10-27.73,24.41-42.71,34.94-8.87,6.66-19.41,11.65-25.51,20.52a101.69,101.69,0,0,0-18.3,0l1.66,1.67c2.22,1.66,2.22-.56,5.55,1.66C523.39,588,524,588,524,588c.55,0,.55.56,1.66,1.11-5.54,2.22-6.65,2.22-9.43,7.21-22.18-1.11-38.26-4.44-49.91-16.64h-1.66V578c10,3.32,27.73,1.66,36.6,7.21H512.3v-1.67c-17.75-8.32-40.48-4.43-57.12-11.09-.56-3.88-1.67-.55,0-3.88-4.44-6.66-16.64-7.77-22.19-14.42h-3.88v-2.22c10,.56,28.29,1.11,35.5,5.55h3.32c-6.65-11.65-32.72-3.33-46-8.88-6.65-2.77-30.5-23.84-34.94-29.94h-3.88c3.33,7.21,6.1,10,5.55,22.18-11.09,0-18.31-.56-25.51-3.33v1.66c-.56.56-1.67,1.11-2.22,1.67,8.32,2.22,18.3,5,27.73,5.55,0,11.09-2.22,17.19,0,18.85V578c-4.44-1.67-7.21-1.11-11.09-2.22,3.88,6.1,8.87,1.66,11.09,5.54,6.65,10.54-3.33,28.29,5.54,38.83-1.66,1.66-1.66,1.1-5.54,2.21,11.09,12.76,29.95,17.75,51.57,14.42-1.66,15.53-13.31,26.07-31.05,26.07,1.66,1.66.55.55,3.88,1.66v2.22c-28.29,7.21-44.37,10.54-68.77-3.88-.56-4.44,0-1.66,0-7.21-8.87-3.33-25.51-1.11-32.72-5.55h-3.88v3.33c5,.56,16.08,1.11,20,3.88h11.09V659c-5.54,3.88-10,10.53-16.63,13.31-17.75,6.65-51-2.22-68.22-11.09-6.65-3.89-11.09-15-16.64-20.52v-5.55c28.29,11.09,36-8.87,53.8-9.43-5.55-8.32,0-47.69,0-71.54,7.21,0,20.52,0,25.51,3.33h3.88v-1.67c-10.54-4.43-15-4.43-29.39-3.88v-5.54h7.21v-1.67c-2.22-.55-5-1.11-7.21-1.66,0-10-1.11-18.3-1.66-26.07,3.88.56,5,.56,7.2,1.67h3.89V517a55.89,55.89,0,0,0-15-1.66c-1.11-3.33-.55-2.22-1.66-3.88,2.22-1.67,2.77-1.67,7.21-1.67v-2.22c-8.32-1.11-11.65-.55-16.64-7.21H270.5c3.33-1.66,2.77-1.66,5.54,0,8.88-9.42,15.53-18.3,15-36.6,7.76,0,22.18,0,27.73,3.33h3.33v-1.67c-9.43-3.88-22.19-6.1-31.06-5.54V411.62h5.54c-2.77-2.77-1.1-2.22-5.54-3.33V391.65a22.62,22.62,0,0,0,2.22,1.67c.55.55.55,1.66,1.66,3.88,2.77-1.11,1.66-.56,3.33-2.22a7.59,7.59,0,0,1,2.22-1.66h-2.22a27.17,27.17,0,0,1-1.67-3.88H291c.55-17.2,2.22-37.72,0-40.49V323.44c25.51,13.31,45.48,38.26,68.21,54.9,12.76,10,29.95,18.3,38.83,31.61-16.09-5-59.9-9.42-79.31-9.42,6.65,5,16.08,1.66,25.51,3.88,22.74,5.54,54.91,8.32,72.1,18.3v3.88C382.53,418.27,336.5,409.4,298.23,410v3.89c17.75,0,32.16,5,46,7.21,10,1.66,27.73,1.11,38.82,3.88,14.42,1.66,28.28,3.33,42.71,5.54,6.65,2.78,11.09,12.21,16.63,16.64,8.32,6.1,17.19,9.43,25.51,16.64,3.89,2.77-1.66,4.44,2.22,7.21,2.78.55,6.1,1.11,8.88,1.66,7.21,5,12.2,12.21,20.52,16.64,3.32,1.67,6.65-1.11,9.42-5.54,7.77,1.11,8.88,3.32,12.76,7.21h9.43v-1.67c-5-1.66-10-5.54-13.31-9.43l-1.67-1.66c8.88-6.1,16.64-17.19,25.51-22.18h9.43c-5.54-1.67,3.89-11.65,5.55-12.76,10.54-7.76,16.64-13.87,29.39-15-1.66-1.11-1.66-1.11-5.54-1.67C588.83,413.84,603.81,406.07,616,397.2ZM257.74,644.55h-3.88a13.24,13.24,0,0,0,3.88,1.66Zm38.82,27.73V668.4h-7.2c1.1,1.1,3.88,2.21,5.54,3.88ZM313.2,548.6a7.52,7.52,0,0,0-1.66-2.21c-3.33-3.89-5-4.44-11.09-5.55,0,6.1,0,2.77,5.54,7.76Zm-5.54,20c-2.78-1.11-3.33-1.11-7.21-1.66,1.66,1.66,3.32,3.88,5.54,5.54h1.67ZM303.77,639h-3.32c1.66,1.11,0,.56,3.32,1.67Zm7.77-286.17h-9.43c1.11,3.33.55,1.67,1.66,3.33v2.22a16.68,16.68,0,0,0,5.55-2.22,7.42,7.42,0,0,1,2.22-1.66Zm-7.77,228.49c2.22,1.67,1.67,1.67,5.55,2.22C307.66,581.88,307.66,582.43,303.77,581.32Zm7.77,46.59v-2.22c-2.77-.55-5-1.11-7.77-1.66v3.88Zm-2.22-227.38c3.33-1.67,2.22-.56,0-3.33Zm0,70.43h5.55a13.11,13.11,0,0,0,3.88,1.66V471h-3.88v-2.22c-1.67-.55-3.33-1.11-5.55-1.66Zm11.09,114.25c-2.22-1.67-4.43-1.67-8.87-1.67C313.76,585.21,316,585.21,320.41,585.21Zm-3.88-136.43H313.2c1.67,1.66.56.55,3.33,1.66ZM321,538.07s0-.56,1.11-.56h9.42v-2.22L313.2,532c2.78,3.32,2.22,3.88,7.21,5.54Zm-7.77,98.71c2.78,2.22,1.67,3.33,3.33,0Zm1.67-280.62c.55,5.54-1.11,2.77,3.88,3.88v-3.88Zm3.88,42.7h-3.88c2.21,1.67.55.56,3.88,1.67Zm0,153.07V548.6h-3.88v3.33Zm0,77.64v-3.88h-3.88v3.88Zm3.33-58.78c-1.67-1.67-1.67-1.67-5.55-2.22C318.75,570.23,318.75,569.68,322.08,570.79Zm-1.67,3.32h-3.88c2.22,1.67.55.56,3.88,1.67Zm3.88-180.79h-3.88c2.22,1.66.56.55,3.88,1.66Zm3.33,79.3h-3.33c1.67,1.67.56.56,3.33,1.67Zm-3.33,81.53c3.89-1.11,2.22-1.66,5.55,0h8.87c-2.77-4.44-9.43-4.44-14.42-5.55ZM326,642.33c3.32-1.66,2.22-.55,0-3.33Zm11.09-271.2c-2.77-1.11-2.77-1.11-7.21-1.66l3.33,3.33h3.88Zm-7.21,258.44c2.77,2.22,1.11,2.78,3.33,0Zm1.66-157c2.22,1.67,1.67,1.11,5.55,1.67C335.39,473.18,335.39,473.18,331.5,472.62Zm0,98.17a13.32,13.32,0,0,0,3.89,1.66v-1.66Zm11.1,43.81H331.5c2.22,1.66,6.66,2.77,9.43,3.88v-1.66h1.67Zm-9.43-149.19v3.33h3.88v-3.33Zm11.09,18.31c-1.66-1.67-2.77-1.67-7.21-1.67C339.27,483.16,340.38,483.16,344.26,483.72Zm-5.55,55.45c-1.11-3.32,0-1.66-1.66-3.88v3.88ZM348.14,502c-2.22-1.67-4.44-1.67-9.43-1.67C341.49,502,343.7,502,348.14,502Zm-1.66,64.89v-1.67a7.73,7.73,0,0,1,1.66-2.22c-2.77-1.11-4.44-1.66-9.43-1.66C341.49,565.24,342,565.24,346.48,566.91ZM348.14,456c-2.77-1.11-2.77-1.11-7.21-1.67,2.77,3.33,1.67,2.78,7.21,3.89Zm-1.66,179.13c-2.78-4.44.55-2.22-5.55-3.88C343.15,634.57,342,633.46,346.48,635.12Zm1.66-107c-2.22-1.66-1.66-1.11-5.54-1.66C344.81,527.53,344.26,527.53,348.14,528.08ZM352,646.21h7.21c-2.77-4.43-11.09-5-16.63-5.54C342.6,646.77,345.92,642.33,352,646.21Zm-7.76-249c5,3.33,14.42,3.88,22.18,3.33,2.22,1.66,1.67,1.11,5.55,2.21-1.67-1.66-1.67-1.1-5.55-2.21C362,397.2,353.13,396.64,344.26,397.2Zm0,29.39a7.73,7.73,0,0,1,2.22,1.67c2.77,1.66,5,1.1,8.87,2.21v-2.21c.56-.56,1.67-1.11,2.22-1.67a22.11,22.11,0,0,0-9.43-1.66C346.48,426,347.59,425.48,344.26,426.59Zm9.43,88.74h-9.43c3.33,3.33,2.77,2.77,9.43,3.33Zm-3.89,23.84c-1.66-1.66-1.66-1.1-5.54-1.66,2.22,1.11,1.66,1.11,5.54,1.66a12.89,12.89,0,0,1,3.89,3.89h3.88v-3.89Zm11.1,16.64v-3.88c-6.66,1.11-8.32.56-16.64,0C346.48,557.48,352,556.92,360.9,555.81ZM349.8,598h-3.32c1.66,1.67.55,1.11,3.32,2.22ZM348.14,372.8c2.22,1.66,1.66,1.66,5.55,2.22C351.47,373.35,352,373.91,348.14,372.8Zm5.55,122c-2.22-1.11-1.67-1.11-5.55-1.67C350.36,494.25,349.8,494.25,353.69,494.81Zm-5.55,92.06c2.22,1.67,1.66,1.67,5.55,2.22C351.47,587.43,352,588,348.14,586.87Zm9.43,68.77c-3.88.56-3.88,0-5.55,1.66h-3.88c1.66,1.11,6.1,2.22,7.21,3.89C357,659,356.46,659,357.57,655.64Zm-7.77-38.82c2.78,2.77,1.11,2.22,5.55,3.33C352.58,615.71,355.91,617.93,349.8,616.82Zm7.77-88.74c-2.22-1.66-1.66-1.11-5.55-1.66C353.69,527.53,353.69,527.53,357.57,528.08Zm18.3,108.7c-6.65-2.77-12.75-3.32-23.85-3.32,2.78,2.22,7.77,3.32,11.1,5.54h12.75ZM364.78,461.53v-1.66c-2.77-1.11-4.44-1.66-9.43-1.66C358.68,461.53,358.12,461,364.78,461.53Zm-5.55,31.61h-3.88a13.32,13.32,0,0,0,3.88,1.67ZM355.35,598c2.22,1.67,1.67,1.67,5.55,2.22C359.23,598.52,359.23,599.07,355.35,598Zm13.31,72.1c-2.77-1.66-5-1.66-9.43-1.66C361.45,670.06,363.67,670.06,368.66,670.06ZM360.9,383.89c2.22,1.66,1.66,1.66,5.54,2.22C364.78,384.44,364.78,385,360.9,383.89Zm0,52.13h3.88c-1.11-6.1-.56-5-3.88-7.76Zm7.76,51.58v-2.22c-2.77-.55-3.33-1.11-7.76-1.66v3.88Zm5.55,31.06H372c-2.77-1.67-4.44-1.11-11.09-1.67.55,5,3.32,3.88,13.31,3.88Zm-7.77,9.42c-1.66-.55-3.32-1.11-5.54-1.66,2.77,2.77,1.11,1.66,5.54,3.33Zm0,127.56c-2.77,4.44,0,2.22-5.54,1.66v3.89c11.09-.56,15,0,27.73,0C383.64,656.75,377,655.64,366.44,655.64Zm13.31-142.53v-1.66H366.44v-1.67h-3.32c1.66,1.11.55.56,3.32,1.67,3.33,2.21,7.77,2.77,9.43,1.66Zm-2.21-16.64c-3.89-.55-8.32-1.11-12.76-1.66a33.89,33.89,0,0,1,5.54,3.88h7.22ZM372,575.78h-3.33c1.66,1.66,0,1.11,3.33,2.22Zm-1.67,42.7c-2.21,2.77-1.1,5.55,3.89,3.88Zm0-147.52c2.22,1.11,1.67,1.11,5.55,1.66C373.65,471.51,374.21,471.51,370.32,471Zm3.89,61v-3.89h-3.89V532Zm-3.89,22.18c2.22,1.11,3.33,1.11,7.22,1.66C375.32,554.15,374.76,554.15,370.32,554.15Zm1.67,36.6c2.22,1.67,3.33,1.67,7.76,1.67C377.54,591.31,376.43,591.31,372,590.75ZM375.87,436h1.67c-1.11-3.33,0-2.22-1.67-3.88ZM387,642.33V639c-3.32-.55-6.1-1.66-9.42-2.22,2.21,2.78,5,3.33,7.76,5.55Zm3.88-168V471h-7.76l-1.66,1.66c-.56,1.11,6.65,1.11,7.21,1.67Zm-5.54-71.55h-3.88c1.66,1.11.55.56,3.88,1.67Zm3.33,47.7L387,448.78c-2.22-4.44,1.11-1.11-3.88-3.89C383.64,449.88,380.86,448.78,388.63,450.44Zm2.21,62.67c-2.77-.56-3.32-1.11-7.76-1.66.56,5-.55,3.32,7.76,3.88Zm0-108.7H387c1.67,1.66.56.55,3.88,1.66Zm5.55,237.92a24.3,24.3,0,0,1-3.88-3.33C389.74,641.22,391.4,644,396.39,642.33Zm5.55-121.46a4.31,4.31,0,0,1-2.22-2.21c-2.22-2.78-1.11-2.22-5.55-3.33a38.55,38.55,0,0,0,2.22,5.54Zm3.32-33.27a39,39,0,0,1-5.54-2.22c1.11,3.33.55,2.22,2.22,3.88v1.67h3.32Zm-3.32,12.75c1.66,1.67,2.77,1.67,7.21,1.67C406.93,500.91,405.82,500.91,401.94,500.35Zm5.54-68.21H403.6c1.66,1.66.56.55,3.88,1.66Zm-3.88,15c1.66,1.11,1.66,1.11,5.55,1.67C406.93,447.11,407.48,447.67,403.6,447.11Zm23.85,75.43v-3.88c-7.77-.56-16.09-1.11-23.85-1.67,2.77,5,8.32,2.77,12.76,5.55ZM413,533.63c-2.22-1.66-3.33-1.66-7.77-1.66C407.48,533.07,408.59,533.07,413,533.63Zm-3.88-68.22c1.66,1.67.55.56,3.88,1.67v-1.67ZM413,490.93h-3.88c1.66,1.66.55,1.1,3.88,2.21Zm0,153.62h-3.88c1.66,1.11.55.55,3.88,1.66Zm0-197.44c2.77,4.44,3.88,3.33,10.54,3.33C421.35,448.78,416.36,447.67,413,447.11Zm16.08,58.79c-2.77-2.22-9.43-3.33-14.42-3.88C418.58,505.9,421.9,505.9,429.11,505.9Zm-8.87,29.39c-2.22-1.11-1.66-1.11-5.55-1.66C416.36,534.74,416.36,534.74,420.24,535.29Zm-1.66-49.91c-1.67-2.77-.56-1.66-2.22-3.33v3.33Zm3.32-18.3h-3.32c1.66,1.66,0,.55,3.32,1.66Zm-1.66,188.56h5.55v-2.22c-2.22-.55-3.89-1.11-5.55-1.66Zm8.87-120.35h-3.32c1.66,1.67.55,1.11,3.32,2.22Zm-1.66,109.26c2.77,2.77,1.11,1.66,5.54,3.33C430.22,643.44,433.55,645.66,427.45,644.55ZM440.2,471h-3.32c1.66,1.11.55.55,3.32,1.66Zm31.62,64.33c13.31,6.1,11.64-7.76,20.52,2.22h7.21c-1.67-2.77-3.89-5-5.55-7.76-11.09-.56-12.2-2.22-16.64,3.88-5-3.33-2.77,0-1.66-5.55-11.65-1.66-23.29-3.88-35.5-5.54,6.66,11.64,19.41,3.33,26.07,5.54C467.93,530.3,470.15,533.07,471.82,535.29Zm-5.55,7.77v-2.22h-7.21c1.11,2.22,1.66,3.88,3.33,5.55v-3.33Zm0-9.43c-2.22-1.66-1.66-1.11-5.55-1.66C462.94,533.07,462.39,533.07,466.27,533.63Zm3.88,38.82c-2.77-4.44.56-2.22-5.54-3.88C466.83,571.34,465.72,570.79,470.15,572.45Zm3.33-29.39h-3.33c-1.11,2.77-.55,1.66-2.22,3.33,2.22,1.66,1.67,1.1,5.55,2.21ZM540,568.57h-3.88l-1.66-1.66c-2.78-4.44-52.69-11.65-62.67-11.1,13.31,11.1,49.91,3.33,59.34,12.76h5c2.22,1.66.55.55,3.88,2.22ZM475.7,543.06c1.66,1.11,0,.55,3.33,1.66v-1.66Zm8.87,5.54a16.49,16.49,0,0,0-5.54-2.21c.55,5-1.11,2.77,5.54,3.88Zm2.22-38.82h-3.88c1.66,1.11.55.56,3.88,1.67Zm1.66,62.67c-2.21-2.22-1.66-1.11-5.54-1.66C486.24,573,484,574.67,488.45,572.45Zm1.67,16.64v-2.22c-1.67-.55-3.33-1.11-5.55-1.66v3.88Zm22.18,11.09c-3.33,1.66-5,2.22-7.21,5.55-8.32-1.67-13.86-6.1-18.3-11.09,8.32,1.1,17.19,2.21,25.51,3.32ZM488.45,487.6c2.22,2.77,1.11,2.22,5.55,3.33C491.23,486.49,494.55,489.26,488.45,487.6Zm18.31,88.18c-1.67-1.11-1.67-1.11-5.55-1.67C503.43,575.78,502.87,575.22,506.76,575.78Zm-3.33-36.61c5.54-.55,6.1,0,14.42,0,1.11-3.32.55-1.66,2.22-3.88-3.33-1.66-4.44-1.66-7.77,0-5.54-1.11-5-1.66-8.87-3.32Zm8.87,36.61H509c1.67,1.66,0,1.11,3.33,2.22Zm2.22-27.18h-3.88c1.66,1.11.55.56,3.88,1.67Zm8.87-11.09h-3.32v3.33h3.32Zm3.89-41h-3.89c2.22,1.67.56,1.11,3.89,2.22Zm3.88,5.55c-3.33-.56-3.33-1.11-7.77-1.67,1.11,1.11,2.78,2.22,3.89,3.89h3.88Zm-2.22,33.27h-3.33v3.88h3.33Zm7.21-69.88h-3.33c1.67,1.67.56.56,3.33,1.67Zm2.22,22.19v1.66h3.32v-3.88c-1.66-.55-3.32-1.11-5.54-1.66C537.81,487,536.7,485.38,538.37,487.6Zm8.87,57.12v-1.66a27.31,27.31,0,0,0-7.21-2.22v3.88Zm0-40.48h-3.33c1.67,1.11.56.55,3.33,1.66Zm37.16-11.1c-12.76-1.11-20.52-2.77-34.94-2.21,7.76,5.54,25,2.21,33.27,7.76C583.84,496.47,583.84,497,584.4,493.14Zm-20.52-31.61c-1.67-3.88-5-5-8.87-7.21,1.1,4.44,1.66,3.89,3.32,7.21ZM665.37,563v2.22s1.11,3.33,2.22-3.88c6.1,1.66,4.43,1.11,7.21,5.55,1.66-3.89.55-1.67,0-5.55,8.87,1.11,21.07,7.76,27.73,3.88h1.66c0,16.64,1.67,33.28,2.22,47.7-5.55-.56-15-1.11-18.86-3.89H682c1.66,3.33.55,2.22,2.22,3.89,6.1,3.88,18.3,4.43,23.84,3.88,5,3.88,5.55,12.75,11.09,16.64,7.77,5,21.63,3.32,29.4,8.87,2.77-2.22,5-5,7.21-7.21H758c-.56,11.65-4.44,16.64-16.64,16.64,1.66,1.11,1.66,1.11,5.55,1.66-6.66,15.53-79.31,34.39-88.74,3.88-7.76,3.33-11.65,11.65-20,15-38.26,13.86-69.32-13.87-83.18-31.61v-5.55c19.41,8.87,33.82-1.11,46-9.43,5-18.85,7.76-42.15,7.21-69.88,7.21.56,39.93,9.43,44.36,7.21,2.78-1.11,3.33-3.88,7.21-5.54ZM558.33,471c3.33-1.66,2.22-.55,0-3.88Zm3.88,7.21h-3.88c2.22,1.66.56.56,3.88,1.66Zm5.55-9.43h-3.88c2.22,1.67.55,1.11,3.88,2.22Zm-1.66-7.21h5.54v-1.66c-2.22-.56-3.88-1.11-5.54-1.66Zm1.66-8.87h5.55v-2.22c-1.67-.56-3.89-1.11-5.55-1.66Zm1.66-11.09c2.22,1.11,3.33,1.11,7.77,1.66,2.22,1.66,4.44,1.66,8.87,1.66-2.22-1.66-4.43-1.66-8.87-1.66C575,441.57,573.86,441.57,569.42,441.57Zm7.77,84.85h-3.88c1.66,1.11.55.55,3.88,1.66Zm0-72.1h1.66a13.24,13.24,0,0,0-1.66-3.88Zm5.54,7.21h-3.88c1.67,1.67.56.56,3.88,2.22Zm0,197.44h-3.88c1.67,1.66.56.55,3.88,2.22Zm25.52-180.8v-1.66c-7.77-1.11-16.09-2.78-23.85-3.89,3.33,5,10,2.78,15,5.55Zm-23.85,1.66v3.89h3.88v-3.89Zm86.52,29.95v-2.22A101.18,101.18,0,0,0,634.31,502c-8.32-4.44-30.5-7.77-46-8.88v5.55c9.43.56,66,6.1,73.76,11.09Zm-73.76-72.09h-3.33c1.66,1.66,0,.55,3.33,1.66Zm5.54,47.69c-2.77-4.44.56-1.66-5.54-3.33C599.93,484.83,598.26,484.27,602.7,485.38Zm0-57.12h-3.33c1.67,1.66,0,1.1,3.33,2.21Zm0,214.07h-3.33c1.67,1.66,0,1.11,3.33,2.22Zm3.88-8.87c2.22,1.11,3.33,1.11,7.21,1.66C611.57,633.46,611,633.46,606.58,633.46Zm1.67-214.08c2.21,1.11,1.66,1.11,5.54,1.67C612.13,419.38,612.13,419.94,608.25,419.38Zm0,11.09c2.21,1.11,1.66,1.11,5.54,1.67C612.13,430.47,612.13,431,608.25,430.47Zm3.88,27.74h-3.88a13.38,13.38,0,0,0,3.88,1.66Zm57.12,197.43v-2.22c-14.42-5.54-39.93-8.32-61-8.87,12.2,10.54,34.38,3.33,46,11.09ZM610.46,448.78c10,7.76,41,8.32,53.25,7.21C655.39,450.44,624.88,448.22,610.46,448.78Zm3.33,29.39,3.89,3.88h3.88v-3.88Zm0,92.62h7.77v-3.88h-3.88c-2.22,1.66-.56.55-3.89,1.66Zm3.89-140.32c-1.67,1.67.55,1.67,1.66,1.67a7.59,7.59,0,0,1,2.22-1.67Zm5.54,14.42c-2.77-4.43.56-2.21-5.54-3.32a23.43,23.43,0,0,0,3.88,3.32Zm-3.88-25.51c2.22,1.11,3.33,1.11,7.76,1.67C624.88,419.38,623.78,419.38,619.34,419.38Zm3.88,171.37h-3.88c2.22,1.67.55.56,3.88,1.67Zm0,31.61h-3.88a13.2,13.2,0,0,0,3.88,1.67Zm-1.66-18.85c1.66,1.66,0,1.11,3.32,2.22v-2.22Zm7.21-169.71v-1.66c-1.67-.56-3.89-1.11-5.55-1.67v3.33ZM627.1,624h5.55c-2.77-4.44,0-2.22-5.55-3.88Zm5.55-180.8h-3.88c1.66,1.66.55.55,3.88,1.66Zm12.75-20.52c-2.77-1.66-11.09-2.77-15-3.33,0,5.55,1.66,1.11,7.76,5.55,3.33-1.11,3.33-.56,5-2.22ZM634.31,433.8c1.67,1.67,1.67,1.11,5.55,2.22C637.64,434.36,638.19,434.36,634.31,433.8Zm11.09,55.46c3.33-1.66,2.22-.55,0-3.88v-1.66l1.67-1.67H645.4a13.72,13.72,0,0,0-2.21-3.88h-5c-1.1,2.77-1.66,3.33-2.21,7.21,5.54-.55,4.43-1.11,9.42,0Zm25.52-49.91c-5-4.44-17.75-6.1-25.52-7.21-2.21-1.67-1.66-1.11-5.54-1.67,1.66,1.11,1.66,1.11,5.54,1.67,3.33,6.1,10.54,3.88,16.64,7.21Zm-12.76-46c-5-2.22-9.43-3.33-16.64-3.88,2.78,4.43,5.55,3.32,9.43,5.54h7.21Zm-12.76,7.21h-3.88c2.22,1.66.56,1.11,3.88,2.21Zm-2.21-18.31c2.21,1.67,2.21,1.11,5.54,1.67C647.07,382.78,647.07,382.78,643.19,382.22Zm3.88,203h-3.88c2.21,1.66.55.55,3.88,1.66Zm-1.67,51.57c3.33,3.89,3.89,3.89,11.1,3.89C653.72,638.45,649.29,637.89,645.4,636.78Zm1.67-189.67c2.22,1.11,3.33,1.11,7.21,1.67C652.61,447.11,651.5,447.11,647.07,447.11ZM651,479.83c1.11,3.33,0,2.22,1.66,3.89v1.66s1.11,3.88,1.67-3.33h3.88v-2.22Zm8.87,127.56c-1.66-.55-3.32-1.11-5.54-1.66,2.77,2.77,1.11,2.22,5.54,3.32ZM662,387.77c-2.77-4.44.56-2.22-5.54-3.88a23.78,23.78,0,0,0,3.32,3.88Zm-3.88,240.14v1.66h1.66c-1.11-4.43-.55-2.77-3.32-5.54C657.6,627.36,656.5,625.69,658.16,627.91Zm7.21-216.29h-7.21c4.44,4.44,1.11,2.22,7.21,2.22Zm18.86,76c2.77-1.11,1.66-.56,3.32-2.22l-1.66-1.66c-7.21.55-7.77,0-11.09,3.88h-5.55l3.88-3.88c-3.32-.56-6.1-1.11-9.42-1.67-1.67,1.11-1.67,1.11-5.55,1.67a13.36,13.36,0,0,0,1.66,3.88C665.37,490.93,675.35,494.25,684.23,487.6ZM662,589.09h-3.88a13.24,13.24,0,0,0,3.88,1.66Zm1.67-140.31h-3.89c2.22,1.66.56.55,3.89,1.66Zm7.21,160.27c-3.33-1.1-4.44-2.21-8.88-3.32.56,1.66,1.11,3.32,1.67,5.54h7.21Zm7.76-221.28c-4.44-1.66-8.87-3.33-15-3.88,2.21,4.44,2.77,2.77,5.54,5.55h9.43Zm-5.55,201.32h-9.42c1.66,1.11,4.43,2.22,5.54,3.33h3.88ZM665.37,397.2h7.76v-3.88h-7.76Zm15,230.71c-3.32-.55-6.1-1.66-9.42-2.22V624h-3.33c1.66,1.66.55.55,3.33,1.66.55,2.77,2.21,7.77,7.76,3.88Zm-9.42,38.82v-3.88h-3.33v3.88Zm7.76-251.23v-1.66c-4.44-1.67-4.44-2.22-7.76-3.89-.56,1.67-1.11,3.89-1.67,5.55Zm5.55,44.37c-3.89-3.33-7.77-3.88-15-3.88C673.13,459.31,676.46,459.87,684.23,459.87Zm40.48,201.32c-17.19-2.78-34.38-5-51.58-7.77,2.78,4.44,46,11.09,49.92,9.43ZM674.8,511.45h5.54c-2.77-4.44.56-2.22-5.54-3.89ZM682,517c-2.22-1.66-2.78-1.66-7.21-1.66C677,516.44,678.12,516.44,682,517Zm-5.55,92.06v3.89h3.88v-3.89Zm3.88-221.28c2.78,2.77,1.11,2.22,5.55,3.88C683.12,386.66,686.44,389.44,680.34,387.77Zm18.3,11.09c-6.1-1.11-12.2-2.22-18.3-3.88,3.89,6.1,8.32,6.1,18.3,5.55Zm-18.3,9.43c2.78,2.22,1.67,2.77,3.89,0Zm3.89,217.4h-3.89c1.67,1.67.56,1.11,3.89,2.22Zm0-182.46h8.87v-1.66A64,64,0,0,0,682,437.69C682.56,442.68,680.9,438.24,684.23,443.23Zm3.32,101.49v-1.66a16.42,16.42,0,0,0-5.54-2.22v3.88ZM682,640.67c.55,6.1,3.33,6.1,15,5.54C693.65,644,685.89,641.78,682,640.67ZM693.1,517c-2.22-.55-5-1.11-7.21-1.66.55,3.88-1.66,1.66,1.66,3.33v2.21c3.89.56,2.78-1.11,3.89-2.21Zm-7.21-169.7c2.22,1.11,1.66,1.11,5.55,1.66C689.22,347.84,689.77,347.84,685.89,347.29Zm15,245.13H687.55c1.67,1.66,4.44,2.77,5.55,3.88h7.76ZM693.1,474.29h-3.33c1.67,1.66.56,1.11,3.33,2.22Zm2.22,153.62c-2.22-.55-3.88-1.66-5.55-2.22,2.22,3.33,1.11,2.22,5.55,3.88Zm3.32-266.21h-3.32c1.66,1.67,0,1.11,3.32,2.22Zm-3.32,120.35v3.33h3.32v-3.33Zm0,68.22c3.32-1.67,1.66-.56,0-3.88Zm7.21-15h-3.89c2.22,1.67.56,1.11,3.89,2.22Zm-1.67-34.94h1.67a13.32,13.32,0,0,0-1.67-3.88Zm3.33,169.71h-3.33c1.67,1.66,0,.55,3.33,2.22Zm-1.66-23.85c2.22,1.11,1.66,1.11,5.54,1.67C705.86,646.77,706.41,646.77,702.53,646.21Zm7.21-140.31h3.88c-1.66-6.1,1.11-2.77-3.88-5.55Zm2.22,142c2.21,1.66,2.77,1.66,7.2,2.21C717,648.43,715.84,648.43,712,647.88Zm8.87-5.55c2.77,1.66,4.44,1.66,9.43,2.22a24.3,24.3,0,0,0,3.88,3.33h3.33v-1.67c-2.78-1.11-2.78-1.11-7.21-1.66C728,642.88,725.82,642.88,720.83,642.33Zm18.85,11.09v-1.66c-2.21-.56-3.88-1.11-5.54-1.67v3.33Z"/><path class="cls-23" d="M922.58,230.74a10.85,10.85,0,0,0-20.23,5.48,10.71,10.71,0,0,0,1.4,5.24l0,0,.3.46a6.53,6.53,0,0,0,.35.56,470.23,470.23,0,0,1,75.72,256.6c0,261-211.56,472.54-472.53,472.54S35,760.08,35,499.1,246.58,26.57,507.55,26.57A470.5,470.5,0,0,1,799.26,127.34,10.73,10.73,0,1,0,811.81,110c-194-151.64-475.1-138.22-653.64,40.32-193.09,193.1-193.09,506.16,0,699.26s506.16,193.09,699.25,0C1025.56,681.48,1047.26,422.39,922.58,230.74Z"/><polygon class="cls-22" points="1949.96 426.68 1513.81 426.68 1513.81 465.86 1711.58 465.86 1711.58 676 1751.49 676 1751.49 465.86 1949.96 465.86 1949.96 426.68"/><path class="cls-22" d="M1815.9,676.36h340.94l-35-38.82H1904.46l135.47-151,7.35,8.19C2079.83,531,2209,674.58,2210.75,676.36H2264c-54.61-61.26-199.17-222.61-224-249.32Z"/><path class="cls-22" d="M2287.77,551a66.59,66.59,0,0,1,1.75-13.18l1.05-5c8.75-38.82,45.15-67,83.3-67h310.49V426.68H2376c-68.25,0-128.46,54.5-128.46,124.31S2307,675.65,2376.32,675.65h308.39V636.82H2376.32C2325.92,636.82,2287.77,595.51,2287.77,551Z"/><rect class="cls-22" x="2719.73" y="426.68" width="40.25" height="249.32"/><path class="cls-22" d="M3015.15,616.52,2844.69,426.68h-53.21L3015.15,676c35.71-40.24,185.17-206.22,224-249.67l-53.21.35C3126.12,491.86,3071.16,553.48,3015.15,616.52Z"/><rect class="cls-22" x="3270.7" y="426.68" width="40.25" height="249.32"/><path class="cls-22" d="M3478.27,636.82c-50.41,0-88.56-41.31-88.56-85.83a66.59,66.59,0,0,1,1.75-13.18l1.05-5c8.75-38.82,45.15-67,83.31-67H3786.3V426.68H3477.92c-68.26,0-128.47,54.5-128.47,124.31S3409,675.65,3478.27,675.65h308.38V636.82Z"/><rect class="cls-22" x="1040.55" y="531.75" width="415.84" height="38.47"/><polygon class="cls-22" points="1040.55 465.15 1477.39 465.15 1477.39 426.33 1040.55 425.97 1040.55 465.15"/><rect class="cls-22" x="1040.55" y="636.82" width="436.85" height="39.18"/></svg>