<svg id="tractor-2" xmlns="http://www.w3.org/2000/svg" width="32.655" height="27.744" viewBox="0 0 32.655 27.744">
  <path id="Path_2680" data-name="Path 2680" d="M7.653,195a7.653,7.653,0,1,0,7.653,7.653A7.653,7.653,0,0,0,7.653,195Zm0,10.523a2.87,2.87,0,1,1,2.87-2.87A2.873,2.873,0,0,1,7.653,205.523Zm0,0" transform="translate(0 -182.563)" fill="#fac668"/>
  <path id="Path_2681" data-name="Path 2681" d="M105.957,300a.957.957,0,1,0,.957.957A.958.958,0,0,0,105.957,300Zm0,0" transform="translate(-98.303 -280.866)" fill="#fac668"/>
  <path id="Path_2682" data-name="Path 2682" d="M363.913,47.87a.958.958,0,0,1,.957-.957V45A2.873,2.873,0,0,0,362,47.87v2.87h1.913Zm0,0" transform="translate(-338.912 -42.13)" fill="#fac668"/>
  <path id="Path_2683" data-name="Path 2683" d="M25.39,144.567a7.647,7.647,0,0,1,10.453-2.8V140.74a3.831,3.831,0,0,0-3.827-3.827H19.094a11.47,11.47,0,0,0-13.644.711L6.667,139.1a9.568,9.568,0,0,1,15.462,5.467Zm0,0" transform="translate(-5.102 -126.39)" fill="#fac668"/>
  <path id="Path_2684" data-name="Path 2684" d="M272.283,315H270v2.87h2.1a7.68,7.68,0,0,1,.182-2.87Zm0,0" transform="translate(-252.78 -294.91)" fill="#fac668"/>
  <path id="Path_2685" data-name="Path 2685" d="M337.74,255a5.74,5.74,0,1,0,5.74,5.74A5.74,5.74,0,0,0,337.74,255Zm0,6.7a.957.957,0,1,1,.957-.957A.957.957,0,0,1,337.74,261.7Zm0,0" transform="translate(-310.825 -238.736)" fill="#fac668"/>
  <path id="Path_2686" data-name="Path 2686" d="M46.913,7.009a13.365,13.365,0,0,1,9.762,1.6H60.4l-1.758-6.7h1.662V0H45V1.913h1.913Zm0,0" transform="translate(-42.13)" fill="#fac668"/>
</svg>
