<svg id="save-money-2" xmlns="http://www.w3.org/2000/svg" width="33.95" height="20.887" viewBox="0 0 33.95 20.887">
  <path id="Path_2687" data-name="Path 2687" d="M153.294,14.588A7.294,7.294,0,1,0,146,7.294,7.3,7.3,0,0,0,153.294,14.588Zm0,0" transform="translate(-136.319)" fill="#fac668"/>
  <path id="Path_2688" data-name="Path 2688" d="M90,187.652h5.719A9.357,9.357,0,0,1,93.172,185H90Zm0,0" transform="translate(-84.032 -172.733)" fill="#fac668"/>
  <path id="Path_2689" data-name="Path 2689" d="M335.746,187.652h5.719V185h-3.172A9.358,9.358,0,0,1,335.746,187.652Zm0,0" transform="translate(-313.483 -172.733)" fill="#fac668"/>
  <path id="Path_2690" data-name="Path 2690" d="M26.2,95a9.277,9.277,0,0,1-.439,3.979h4.205v6.631H3.979V98.979H8.184A9.279,9.279,0,0,1,7.745,95H0v14.588H33.95V95Zm0,0" transform="translate(0 -88.701)" fill="#fac668"/>
</svg>
