<svg id="transfer" xmlns="http://www.w3.org/2000/svg" width="28.245" height="28.245" viewBox="0 0 28.245 28.245">
  <g id="Group_611" data-name="Group 611">
    <path id="Path_2679" data-name="Path 2679" d="M23.2,0H5.044A5.05,5.05,0,0,0,0,5.044V23.2a5.05,5.05,0,0,0,5.044,5.044H23.2A5.05,5.05,0,0,0,28.245,23.2V5.044A5.05,5.05,0,0,0,23.2,0Zm1.775,12.762a1.006,1.006,0,0,1-.11.11l-7.061,6.052a1.009,1.009,0,0,1-1.665-.767V15.131H10.087a1.009,1.009,0,0,1-1.009-1.009v-1.6L5.461,16.14l3.617,3.617v-1.6a1.009,1.009,0,0,1,1.009-1.009h3.026a1.009,1.009,0,1,1,0,2.018H11.1v3.026a1.009,1.009,0,0,1-.622.932,1,1,0,0,1-.386.077,1.009,1.009,0,0,1-.713-.295L3.322,16.854a1.009,1.009,0,0,1,0-1.427h0L9.374,9.374a1.009,1.009,0,0,1,1.722.713v3.026h6.052a1.009,1.009,0,0,1,1.009,1.009v1.843l4.5-3.86-4.5-3.859v1.841A1.009,1.009,0,0,1,17.149,11.1H14.122a1.009,1.009,0,1,1,0-2.018H16.14V6.052a1.009,1.009,0,0,1,1.665-.766l7.061,6.052A1.009,1.009,0,0,1,24.977,12.762Z" fill="#fac668"/>
  </g>
</svg>
