<svg id="Group_596" data-name="Group 596" xmlns="http://www.w3.org/2000/svg" width="31.985" height="29.784" viewBox="0 0 31.985 29.784">
  <g id="Group_609" data-name="Group 609" transform="translate(0 0)">
    <g id="Group_608" data-name="Group 608">
      <path id="Path_2677" data-name="Path 2677" d="M22.935,21.992l-3.609-3.609a4.823,4.823,0,0,0-6.668,0L.537,30.506A1.834,1.834,0,0,0,3.131,33.1L15.25,20.978a1.082,1.082,0,0,1,1.483,0L28.855,33.1a1.834,1.834,0,1,0,2.594-2.593L26.6,25.659Z" transform="translate(0 -17.047)" fill="#fac668"/>
      <path id="Path_2678" data-name="Path 2678" d="M80.825,128.012a.9.9,0,0,0-1.273,0L68.891,138.67a.9.9,0,0,0-.264.638v7.774a3.3,3.3,0,0,0,3.3,3.3h5.278V142.21h5.959v8.174h5.278a3.3,3.3,0,0,0,3.3-3.3v-7.774a.9.9,0,0,0-.264-.638Z" transform="translate(-64.196 -120.6)" fill="#fac668"/>
    </g>
  </g>
</svg>
