<svg xmlns="http://www.w3.org/2000/svg" width="27.072" height="26.611" viewBox="0 0 27.072 26.611">
  <g id="sprout" transform="translate(-57.141 -22)">
    <path id="Path_5" data-name="Path 5" d="M103.126,13.231V11.2A7.247,7.247,0,0,0,107.7,9.376c2-2,1.843-5.277,1.835-5.415a.8.8,0,0,0-.753-.753c-.138-.008-3.416-.164-5.415,1.835a5.161,5.161,0,0,0-.567.676A7.491,7.491,0,0,0,100.931,2.2C98.543-.19,94.614,0,94.448.007a.8.8,0,0,0-.753.753c-.009.166-.2,4.1,2.191,6.483a8.778,8.778,0,0,0,5.644,2.184v3.8a7.1,7.1,0,0,1,1.6,0Z" transform="translate(-31.651 22)" fill="#fac668"/>
    <path id="Path_6" data-name="Path 6" d="M82.125,335.55a5.2,5.2,0,0,0-1.63.261,7.287,7.287,0,0,0-13.405,0,5.2,5.2,0,0,0-6.833,4.942v2.083a1.037,1.037,0,0,0,1.037,1.037h25a1.037,1.037,0,0,0,1.037-1.037v-2.083a5.209,5.209,0,0,0-5.2-5.2Z" transform="translate(-3.116 -295.263)" fill="#fac668"/>
  </g>
</svg>
