<svg xmlns="http://www.w3.org/2000/svg" width="29.24" height="29.24" viewBox="0 0 29.24 29.24">
  <g id="wheel" transform="translate(-26)">
    <g id="Group_906" data-name="Group 906" transform="translate(33.501 8.934)">
      <g id="Group_905" data-name="Group 905">
        <g id="Group_904" data-name="Group 904">
          <path id="Path_3218" data-name="Path 3218" d="M144.576,143.281a7.2,7.2,0,0,0-.573,2h5.468l-2.732-4.732A7.226,7.226,0,0,0,144.576,143.281Z" transform="translate(-144.003 -140.55)" fill="#fac668"/>
          <path id="Path_3219" data-name="Path 3219" d="M230.019,215h0Z" transform="translate(-224.551 -210.267)" fill="#fac668"/>
        </g>
      </g>
    </g>
    <g id="Group_908" data-name="Group 908" transform="translate(33.501 15.574)">
      <g id="Group_907" data-name="Group 907">
        <path id="Path_3220" data-name="Path 3220" d="M144,245a7.168,7.168,0,0,0,2.735,4.732L149.472,245Z" transform="translate(-144.004 -245)" fill="#fac668"/>
      </g>
    </g>
    <g id="Group_910" data-name="Group 910" transform="translate(37.886 16.527)">
      <g id="Group_909" data-name="Group 909">
        <path id="Path_3221" data-name="Path 3221" d="M215.728,260l-2.734,4.735a7.177,7.177,0,0,0,5.467,0Z" transform="translate(-212.994 -260)" fill="#fac668"/>
      </g>
    </g>
    <g id="Group_912" data-name="Group 912" transform="translate(42.272 15.574)">
      <g id="Group_911" data-name="Group 911">
        <path id="Path_3222" data-name="Path 3222" d="M281.98,245l2.732,4.732A7.168,7.168,0,0,0,287.448,245Z" transform="translate(-281.98 -245)" fill="#fac668"/>
      </g>
    </g>
    <g id="Group_914" data-name="Group 914" transform="translate(42.272 8.934)">
      <g id="Group_913" data-name="Group 913">
        <path id="Path_3223" data-name="Path 3223" d="M286.876,143.282a7.225,7.225,0,0,0-2.163-2.731l-2.732,4.732h5.468A7.2,7.2,0,0,0,286.876,143.282Z" transform="translate(-281.981 -140.551)" fill="#fac668"/>
      </g>
    </g>
    <g id="Group_916" data-name="Group 916" transform="translate(39.251 4.146)">
      <g id="Group_915" data-name="Group 915">
        <path id="Path_3224" data-name="Path 3224" d="M234.455,65.217l1.37,2.43,1.37-2.43Z" transform="translate(-234.455 -65.217)" fill="#fac668"/>
      </g>
    </g>
    <g id="Group_918" data-name="Group 918" transform="translate(26)">
      <g id="Group_917" data-name="Group 917" transform="translate(0)">
        <path id="Path_3225" data-name="Path 3225" d="M50.958,4.282A14.62,14.62,0,0,0,30.282,24.958,14.62,14.62,0,0,0,50.958,4.282ZM47.632,6.26a.953.953,0,1,1,0,1.348A.953.953,0,0,1,47.632,6.26Zm-15.372,0a.953.953,0,1,1,0,1.348A.953.953,0,0,1,32.26,6.26ZM29.75,15.574a.953.953,0,1,1,.953-.953A.954.954,0,0,1,29.75,15.574Zm3.858,7.407a.953.953,0,1,1,0-1.348A.953.953,0,0,1,33.608,22.98Zm7.012,3.463a.953.953,0,1,1,.953-.953A.954.954,0,0,1,40.62,26.443Zm8.36-3.463a.953.953,0,1,1,0-1.348A.953.953,0,0,1,48.98,22.98Zm.725-8.085c0,.022,0,.045,0,.067q0,.113-.011.225c0,.017,0,.034,0,.051a9.023,9.023,0,0,1-.663,2.842l-.011.027c-.035.085-.071.169-.109.252-.013.029-.027.057-.04.086-.021.045-.042.089-.063.134s-.052.105-.078.157l-.019.038c-.068.132-.138.263-.212.391a9.1,9.1,0,0,1-3.327,3.327h-.006a9.075,9.075,0,0,1-9.078,0h-.006a9.1,9.1,0,0,1-3.327-3.327c-.074-.129-.144-.259-.212-.391l-.019-.038c-.027-.052-.053-.1-.078-.157s-.042-.089-.063-.134c-.013-.029-.027-.057-.04-.086-.038-.083-.074-.167-.109-.252l-.011-.027a9.022,9.022,0,0,1-.663-2.842c0-.017,0-.034,0-.051q-.007-.112-.011-.225c0-.022,0-.045,0-.067,0-.091,0-.183,0-.275s0-.184,0-.275c0-.022,0-.045,0-.067q0-.113.011-.225c0-.017,0-.034,0-.05a9.022,9.022,0,0,1,.664-2.843l.011-.026c.035-.085.072-.169.11-.253l.039-.083c.021-.046.043-.091.064-.136s.051-.1.078-.156l.02-.039c.068-.132.137-.262.211-.391a9.1,9.1,0,0,1,3.327-3.327h0A9.044,9.044,0,0,1,38.051,5.9L35.987,2.238h9.266L43.189,5.9a9.042,9.042,0,0,1,1.97.846h.006a9.1,9.1,0,0,1,3.327,3.327c.074.129.144.259.212.391l.019.038c.027.052.053.1.078.157s.042.089.063.134c.013.029.027.057.04.086.038.083.074.167.109.252l.011.028A9.024,9.024,0,0,1,49.688,14c0,.017,0,.034,0,.051q.007.112.011.225c0,.022,0,.045,0,.067,0,.092,0,.183,0,.275S49.708,14.8,49.705,14.9Zm1.784.678a.953.953,0,1,1,.953-.953A.954.954,0,0,1,51.49,15.574Z" transform="translate(-26)" fill="#fac668"/>
      </g>
    </g>
    <g id="Group_922" data-name="Group 922" transform="translate(37.886 7.618)">
      <g id="Group_921" data-name="Group 921">
        <path id="Path_3227" data-name="Path 3227" d="M217.329,119.84l-1.6,2.842-1.6-2.842a7.13,7.13,0,0,0-1.132.36l2.734,4.735,2.734-4.735A7.129,7.129,0,0,0,217.329,119.84Z" transform="translate(-212.994 -119.84)" fill="#fac668"/>
      </g>
    </g>
  </g>
</svg>
