<svg xmlns="http://www.w3.org/2000/svg" width="24.829" height="28.25" viewBox="0 0 24.829 28.25">
  <g id="Group_924" data-name="Group 924" transform="translate(-905.801 -286.008)">
    <circle id="Ellipse_184" data-name="Ellipse 184" cx="5.005" cy="5.005" r="5.005" transform="translate(918.966 302.594)" fill="#fac668"/>
    <circle id="Ellipse_185" data-name="Ellipse 185" cx="3.058" cy="3.058" r="3.058" transform="translate(922.86 296.709)" fill="#fac668"/>
    <g id="Group_923" data-name="Group 923" transform="translate(905.801 286.008)">
      <path id="Path_3229" data-name="Path 3229" d="M960.541,286.008H942.976a.644.644,0,0,0-.644.644v2.487a.644.644,0,0,0,.68.643l16.92-.936a.644.644,0,0,0,.609-.643Z" transform="translate(-939.022 -286.008)" fill="#fac668"/>
      <path id="Path_3230" data-name="Path 3230" d="M927.32,337.252v-.935a.644.644,0,0,0-.68-.643l-8.425.465h0l-8.5.47a.644.644,0,0,0-.609.643h0a.641.641,0,0,1-.5.627,3.591,3.591,0,0,0-2.81,3.5v13.812a4.231,4.231,0,0,0,4.231,4.231H926.4a4.231,4.231,0,0,0,4.231-4.231V341.38a3.591,3.591,0,0,0-2.81-3.5A.641.641,0,0,1,927.32,337.252Zm1.655,17.94a2.575,2.575,0,0,1-2.575,2.575H910.032a2.575,2.575,0,0,1-2.575-2.575V342.024a2.575,2.575,0,0,1,2.575-2.575H926.4a2.575,2.575,0,0,1,2.575,2.575Z" transform="translate(-905.801 -331.172)" fill="#fac668"/>
    </g>
  </g>
</svg>
