<svg width="16" height="16" viewBox="0 0 16 16" fill="none" xmlns="http://www.w3.org/2000/svg">
<path d="M8 6.5C10.175 6.5 12.5 5.825 12.5 4.25C12.5 2.675 10.175 2 8 2C5.825 2 3.5 2.675 3.5 4.25C3.5 5.825 5.825 6.5 8 6.5Z" fill="white"/>
<path d="M3.5 6.875V8C3.5 9.575 5.825 10.25 8 10.25C10.175 10.25 12.5 9.575 12.5 8V6.875C11.45 7.55 9.875 8 8 8C6.125 8 4.55 7.55 3.5 6.875Z" fill="white"/>
<path d="M3.5 10.625V11.75C3.5 13.325 5.825 14 8 14C10.175 14 12.5 13.325 12.5 11.75V10.625C11.45 11.375 9.875 11.75 8 11.75C6.125 11.75 4.55 11.3 3.5 10.625Z" fill="white"/>
</svg>
