<svg width="16" height="16" viewBox="0 0 16 16" fill="none" xmlns="http://www.w3.org/2000/svg">
<g clip-path="url(#clip0_816_4903)">
<path d="M9 1C9 0.734784 8.89464 0.48043 8.70711 0.292893C8.51957 0.105357 8.26522 0 8 0C7.73478 0 7.48043 0.105357 7.29289 0.292893C7.10536 0.48043 7 0.734784 7 1V4H9V1Z" fill="white"/>
<path d="M14.956 6.55617C14.8626 5.89284 14.5486 5.28028 14.0646 4.81713C13.5806 4.35398 12.9549 4.0672 12.2881 4.003C11.6213 3.93879 10.9523 4.10088 10.3889 4.46317C9.82541 4.82546 9.4003 5.36686 9.182 6.00017H6.818C6.59971 5.36686 6.1746 4.82546 5.61115 4.46317C5.0477 4.10088 4.37871 3.93879 3.71192 4.003C3.04513 4.0672 2.41936 4.35398 1.9354 4.81713C1.45143 5.28028 1.13744 5.89284 1.044 6.55617C1.044 6.55617 3.18859e-06 13.3802 3.18859e-06 13.5002C-0.000572755 13.7789 0.0768851 14.0522 0.223609 14.2892C0.370334 14.5262 0.580465 14.7173 0.83022 14.8411C1.07997 14.9648 1.35938 15.0162 1.63681 14.9893C1.91423 14.9625 2.17861 14.8585 2.4 14.6892L6.419 12.0002H9.581L13.6 14.6892C13.8214 14.8585 14.0858 14.9625 14.3632 14.9893C14.6406 15.0162 14.92 14.9648 15.1698 14.8411C15.4195 14.7173 15.6297 14.5262 15.7764 14.2892C15.9231 14.0522 16.0006 13.7789 16 13.5002C16 13.3802 14.956 6.55617 14.956 6.55617ZM4 8.00017C3.80222 8.00017 3.60888 7.94152 3.44443 7.83164C3.27998 7.72175 3.15181 7.56558 3.07612 7.38285C3.00044 7.20012 2.98063 6.99906 3.01922 6.80508C3.0578 6.61109 3.15304 6.43291 3.2929 6.29306C3.43275 6.15321 3.61093 6.05797 3.80491 6.01938C3.99889 5.9808 4.19996 6.0006 4.38269 6.07629C4.56541 6.15197 4.72159 6.28015 4.83147 6.4446C4.94135 6.60905 5 6.80238 5 7.00017C5 7.26538 4.89465 7.51974 4.70711 7.70727C4.51957 7.89481 4.26522 8.00017 4 8.00017ZM12 8.00017C11.8022 8.00017 11.6089 7.94152 11.4444 7.83164C11.28 7.72175 11.1518 7.56558 11.0761 7.38285C11.0004 7.20012 10.9806 6.99906 11.0192 6.80508C11.0578 6.61109 11.153 6.43291 11.2929 6.29306C11.4327 6.15321 11.6109 6.05797 11.8049 6.01938C11.9989 5.9808 12.2 6.0006 12.3827 6.07629C12.5654 6.15197 12.7216 6.28015 12.8315 6.4446C12.9414 6.60905 13 6.80238 13 7.00017C13 7.26538 12.8946 7.51974 12.7071 7.70727C12.5196 7.89481 12.2652 8.00017 12 8.00017Z" fill="white"/>
</g>
<defs>
<clipPath id="clip0_816_4903">
<rect width="16" height="16" fill="white"/>
</clipPath>
</defs>
</svg>
