<svg id="Layer_1" data-name="Layer 1" xmlns="http://www.w3.org/2000/svg" xmlns:xlink="http://www.w3.org/1999/xlink" viewBox="0 0 48 48"><defs><style>.cls-1{fill:url(#linear-gradient);}.cls-2{fill:url(#linear-gradient-2);}.cls-3{fill:url(#linear-gradient-3);}.cls-4{fill:url(#linear-gradient-4);}.cls-5{fill:url(#linear-gradient-5);}.cls-6{fill:url(#linear-gradient-6);}.cls-7{fill:url(#linear-gradient-7);}.cls-8{fill:url(#linear-gradient-8);}.cls-9{fill:url(#linear-gradient-9);}.cls-10{fill:url(#linear-gradient-10);}.cls-11{fill:url(#linear-gradient-11);}.cls-12{fill:url(#linear-gradient-12);}.cls-13{fill:url(#linear-gradient-13);}.cls-14{fill:url(#linear-gradient-14);}.cls-15{fill:url(#linear-gradient-15);}.cls-16{fill:url(#linear-gradient-16);}.cls-17{fill:url(#linear-gradient-17);}.cls-18{fill:url(#linear-gradient-18);}.cls-19{fill:url(#linear-gradient-19);}.cls-20{fill:url(#linear-gradient-20);}.cls-21{fill:url(#linear-gradient-21);}.cls-22{fill:#fff;}.cls-23{fill:url(#linear-gradient-22);}</style><linearGradient id="linear-gradient" x1="45.7" y1="42.9" x2="3.38" y2="6.12" gradientUnits="userSpaceOnUse"><stop offset="0.12" stop-color="#ef070e"/><stop offset="0.26" stop-color="#bd060b"/><stop offset="0.49" stop-color="#6d0306"/><stop offset="0.68" stop-color="#320103"/><stop offset="0.82" stop-color="#0e0001"/><stop offset="0.9"/></linearGradient><linearGradient id="linear-gradient-2" x1="40.43" y1="25.34" x2="16.01" y2="4.11" gradientUnits="userSpaceOnUse"><stop offset="0.14" stop-color="#ed0f14"/><stop offset="0.56" stop-color="#fff"/><stop offset="0.97" stop-color="#250000"/></linearGradient><linearGradient id="linear-gradient-3" x1="39.27" y1="48.35" x2="4.34" y2="17.98" xlink:href="#linear-gradient-2"/><linearGradient id="linear-gradient-4" x1="31.8" y1="43.81" x2="7.38" y2="22.58" xlink:href="#linear-gradient-2"/><linearGradient id="linear-gradient-5" x1="44.15" y1="26.78" x2="15.32" y2="1.72" xlink:href="#linear-gradient-2"/><linearGradient id="linear-gradient-6" x1="31.8" y1="29.91" x2="11.33" y2="12.12" xlink:href="#linear-gradient-2"/><linearGradient id="linear-gradient-7" x1="32.48" y1="46.19" x2="3.65" y2="21.13" xlink:href="#linear-gradient-2"/><linearGradient id="linear-gradient-8" x1="36.49" y1="35.81" x2="16.02" y2="18.02" xlink:href="#linear-gradient-2"/><linearGradient id="linear-gradient-9" x1="38.66" y1="29.11" x2="14.25" y2="7.89" xlink:href="#linear-gradient-2"/><linearGradient id="linear-gradient-10" x1="40.13" y1="44.58" x2="5.19" y2="14.21" xlink:href="#linear-gradient-2"/><linearGradient id="linear-gradient-11" x1="33.56" y1="40.03" x2="9.15" y2="18.8" xlink:href="#linear-gradient-2"/><linearGradient id="linear-gradient-12" x1="42.59" y1="33.68" x2="7.65" y2="3.31" xlink:href="#linear-gradient-2"/><linearGradient id="linear-gradient-13" x1="32.84" y1="31.22" x2="12.37" y2="13.43" xlink:href="#linear-gradient-2"/><linearGradient id="linear-gradient-14" x1="35.06" y1="41.89" x2="6.23" y2="16.83" xlink:href="#linear-gradient-2"/><linearGradient id="linear-gradient-15" x1="35.45" y1="34.5" x2="14.99" y2="16.71" xlink:href="#linear-gradient-2"/><linearGradient id="linear-gradient-16" x1="41.57" y1="31.07" x2="12.73" y2="6.01" xlink:href="#linear-gradient-2"/><linearGradient id="linear-gradient-17" x1="40.76" y1="41.76" x2="5.83" y2="11.39" xlink:href="#linear-gradient-2"/><linearGradient id="linear-gradient-18" x1="34.88" y1="37.21" x2="10.46" y2="15.98" xlink:href="#linear-gradient-2"/><linearGradient id="linear-gradient-19" x1="41.95" y1="36.5" x2="7.01" y2="6.13" xlink:href="#linear-gradient-2"/><linearGradient id="linear-gradient-20" x1="43.44" y1="29.91" x2="8.5" y2="-0.46" xlink:href="#linear-gradient-2"/><linearGradient id="linear-gradient-21" x1="37.35" y1="31.94" x2="12.93" y2="10.71" xlink:href="#linear-gradient-2"/><linearGradient id="linear-gradient-22" x1="43.21" y1="47.82" x2="3.29" y2="-1.48" gradientUnits="userSpaceOnUse"><stop offset="0.07" stop-color="#ed0f14"/><stop offset="0.12" stop-color="#f14347"/><stop offset="0.17" stop-color="#f57477"/><stop offset="0.22" stop-color="#f89fa1"/><stop offset="0.27" stop-color="#fac2c3"/><stop offset="0.32" stop-color="#fcdddd"/><stop offset="0.37" stop-color="#fef0f0"/><stop offset="0.43" stop-color="#fffbfb"/><stop offset="0.48" stop-color="#fff"/><stop offset="0.61" stop-color="#9e8d8d"/><stop offset="0.72" stop-color="#472828"/><stop offset="0.77" stop-color="#250000"/></linearGradient></defs><title>logo update</title><circle class="cls-1" cx="23.94" cy="23.99" r="20.53"/><path class="cls-2" d="M33.32,11.46l0,.06a.73.73,0,0,0,.48.18.74.74,0,0,0,.54-1.23l-.11-.1a14.93,14.93,0,0,0-21,1,15,15,0,0,1,20,.09Z"/><path class="cls-3" d="M11.42,14.62l.05,0a.75.75,0,0,0,.18-.48.74.74,0,0,0-.74-.74.76.76,0,0,0-.48.19l-.1.11a14.94,14.94,0,0,0,1,21,14.92,14.92,0,0,1,.09-20Z"/><path class="cls-4" d="M14.57,36.52s0,0-.05-.05a.75.75,0,0,0-.48-.18.74.74,0,0,0-.74.73.72.72,0,0,0,.2.49l.11.1a14.93,14.93,0,0,0,21-1,14.92,14.92,0,0,1-20-.09Z"/><path class="cls-5" d="M37,22.32v-.11A11.48,11.48,0,0,0,25,11.34,11.49,11.49,0,0,1,35.86,22.28v0a.56.56,0,0,0,1.12,0Z"/><path class="cls-6" d="M22.27,11h-.11a11.48,11.48,0,0,0-10.87,12A11.47,11.47,0,0,1,22.23,12.08h.05a.56.56,0,0,0,.36-1A.49.49,0,0,0,22.27,11Z"/><path class="cls-7" d="M10.91,25.66v.12a11.5,11.5,0,0,0,12,10.87A11.49,11.49,0,0,1,12,25.71v-.06a.56.56,0,0,0-1.12,0Z"/><path class="cls-8" d="M25.61,37h.12a11.48,11.48,0,0,0,10.87-12A11.51,11.51,0,0,1,25.66,35.91H25.6a.56.56,0,0,0-.36,1A.61.61,0,0,0,25.61,37Z"/><path class="cls-9" d="M30.05,15.94a8.83,8.83,0,0,0-12.4.59,8.81,8.81,0,0,1,11.83.06l0,0a.44.44,0,0,0,.28.11.44.44,0,0,0,.32-.73Z"/><path class="cls-10" d="M16.57,18.42a.46.46,0,0,0,.11-.28.43.43,0,0,0-.73-.32l-.06.06a8.85,8.85,0,0,0,.59,12.41,8.85,8.85,0,0,1,.06-11.84Z"/><path class="cls-11" d="M30.24,31.45A8.84,8.84,0,0,1,18.4,31.4l0,0a.39.39,0,0,0-.28-.11.44.44,0,0,0-.44.43.41.41,0,0,0,.12.29l.06.06a8.82,8.82,0,0,0,12.41-.59Z"/><path class="cls-12" d="M31.32,29.56a.44.44,0,0,0-.11.29.43.43,0,0,0,.43.43.4.4,0,0,0,.29-.11L32,30.1a8.81,8.81,0,0,0-.59-12.4,8.83,8.83,0,0,1,0,11.83Z"/><path class="cls-13" d="M23,16.73H23a6.41,6.41,0,0,0-6.06,6.67,6.39,6.39,0,0,1,6.1-6h0a.28.28,0,0,0,.2-.09.31.31,0,0,0,0-.44A.29.29,0,0,0,23,16.73Z"/><path class="cls-14" d="M18.55,29.18a6.39,6.39,0,0,0,4.8,1.87A6.41,6.41,0,0,1,17.3,25v0a.25.25,0,0,0-.09-.2.3.3,0,0,0-.44,0,.27.27,0,0,0-.09.2V25A6.38,6.38,0,0,0,18.55,29.18Z"/><path class="cls-15" d="M24.87,31.26h.07A6.41,6.41,0,0,0,31,24.59a6.4,6.4,0,0,1-1.87,4.17,6.34,6.34,0,0,1-4.23,1.87h0a.37.37,0,0,0-.2.09.32.32,0,0,0,0,.45A.28.28,0,0,0,24.87,31.26Z"/><path class="cls-16" d="M29.34,18.81a6.39,6.39,0,0,0-4.8-1.87,6.39,6.39,0,0,1,6,6.1v0a.28.28,0,0,0,.09.2.31.31,0,0,0,.44,0,.29.29,0,0,0,.09-.21V23A6.38,6.38,0,0,0,29.34,18.81Z"/><path class="cls-17" d="M20.38,21.3a.22.22,0,0,0,.05-.14.2.2,0,0,0-.21-.2.24.24,0,0,0-.14.05l0,0a4.25,4.25,0,0,0,.28,6,4.24,4.24,0,0,1,0-5.71Z"/><path class="cls-18" d="M27,27.59a4.26,4.26,0,0,1-5.71,0l0,0a.19.19,0,0,0-.13-.05.21.21,0,0,0-.21.21.22.22,0,0,0,.05.14l0,0a4.27,4.27,0,0,0,6-.29Z"/><path class="cls-19" d="M27.51,26.68a.2.2,0,0,0-.06.14.21.21,0,0,0,.21.21A.2.2,0,0,0,27.8,27l0,0a4.22,4.22,0,0,0,1.09-2.85A4.28,4.28,0,0,0,27.55,21a4.28,4.28,0,0,1,0,5.72Z"/><path class="cls-20" d="M36.56,13.35a14.92,14.92,0,0,1-.09,20l0,.05A.73.73,0,0,0,37,34.63a.71.71,0,0,0,.49-.19l.1-.11a14.93,14.93,0,0,0-1-21Z"/><path class="cls-21" d="M20.9,20.39a4.25,4.25,0,0,1,5.72,0h0a.24.24,0,0,0,.14.05.21.21,0,0,0,.21-.21.24.24,0,0,0-.05-.14l0,0a4.25,4.25,0,0,0-6,.28Z"/><path d="M30.1,19.59a24.58,24.58,0,0,1,3-2.39.15.15,0,0,1,0-.27,4.08,4.08,0,0,0,1.06-.87,1.42,1.42,0,0,1,.16,1.22h-.16c.48.48,0,2.79.16,3.11-.08.05-.08.05-.26.08s-.16,0-.43,0v-.08c.19,0,.16,0,.27.08.21-.13.1,0,.16-.27-.51,0-.51-.07-.54.27l-.34-.08v.16l1.06.11.08.08v.45a5.33,5.33,0,0,1-1.41-.27h-.45l.11.08a3.2,3.2,0,0,0,1.67.35.21.21,0,0,1,.08.1c0,.32,0,.24-.26.35a.57.57,0,0,0,.26.08c0,.45.06.66-.26.8.13.21,0,.1.26.18v.08L34,23a.65.65,0,0,0,.34.27c-.08.08,0,.05-.16.11.14.15.27.39.43.53V24l-.88-.08c.16.24.11.08.08.42.24-.1.11,0,.19-.26a1.19,1.19,0,0,1,1.06.37l.11,0s0,0,.08.05c-.51.26-.56.82-1.25.88.1.08.16.08.34.1v1.94a9.94,9.94,0,0,1-2.74-.53c-.34-.08-.39.16-.61.19l-.18-.27c-.35-.16-.59.16-.88,0h-.19V25.79a12.22,12.22,0,0,0,3.73.42c-.56-.4-1.44-.13-2.21-.34a11.69,11.69,0,0,0-3.72-.45c.34.24,1,.13,1.41.37h.45v.08c-.75.48-1.33,1.17-2.05,1.67a4.77,4.77,0,0,0-1.22,1,4.31,4.31,0,0,0-.88,0l.08.08c.11.08.11,0,.27.08l.1,0s0,0,.08.05c-.26.11-.32.11-.45.35a3.3,3.3,0,0,1-2.39-.8h-.08v-.08c.48.16,1.33.08,1.75.35h.53v-.08c-.85-.4-1.94-.22-2.73-.54,0-.18-.08,0,0-.18-.22-.32-.8-.37-1.07-.69h-.18V27a4.82,4.82,0,0,1,1.7.27H23c-.32-.56-1.57-.16-2.21-.43a8.73,8.73,0,0,1-1.68-1.43h-.18a1.64,1.64,0,0,1,.26,1.06A3.31,3.31,0,0,1,18,26.32v.08s-.08.05-.1.08a6.71,6.71,0,0,0,1.32.27c0,.53-.1.82,0,.9v.61c-.21-.08-.34-.05-.53-.11.19.3.43.08.53.27.32.51-.15,1.36.27,1.86-.08.08-.08,0-.27.11a2.67,2.67,0,0,0,2.48.69,1.38,1.38,0,0,1-1.49,1.25c.08.08,0,0,.18.08v.1c-1.35.35-2.12.51-3.29-.18,0-.21,0-.08,0-.35-.43-.16-1.23-.05-1.57-.26h-.19v.16a2.73,2.73,0,0,1,1,.18h.53v.08c-.26.19-.48.51-.8.64a5.12,5.12,0,0,1-3.27-.53c-.32-.19-.53-.72-.79-1V31c1.35.53,1.72-.43,2.58-.45-.27-.4,0-2.29,0-3.43a3,3,0,0,1,1.22.16h.18V27.2a2.47,2.47,0,0,0-1.4-.19v-.26h.34v-.08l-.34-.08c0-.48-.06-.88-.08-1.25a.74.74,0,0,1,.34.08H15v-.08a2.47,2.47,0,0,0-.72-.08c-.05-.16,0-.11-.08-.19.11-.08.13-.08.35-.08v-.11c-.4-.05-.56,0-.8-.34h-.19c.16-.08.13-.08.27,0a2.21,2.21,0,0,0,.72-1.76,3.45,3.45,0,0,1,1.32.16H16v-.08a3.77,3.77,0,0,0-1.48-.26V20.28h.26c-.13-.13,0-.1-.26-.15v-.8c.05.05.08.05.1.08s0,.08.08.18c.13-.05.08,0,.16-.1a.24.24,0,0,1,.11-.08h-.11a1.82,1.82,0,0,1-.08-.19h-.26a9.74,9.74,0,0,0,0-1.94V16.06a28.51,28.51,0,0,1,3.27,2.63,8.36,8.36,0,0,1,1.86,1.51,19.79,19.79,0,0,0-3.81-.45c.32.24.78.08,1.23.19a15.12,15.12,0,0,1,3.45.88V21a24.46,24.46,0,0,0-5.66-.8v.19a12.19,12.19,0,0,1,2.21.35c.48.08,1.33.05,1.86.18.69.08,1.35.16,2.05.27.31.13.53.58.79.8s.83.45,1.23.79c.18.14-.08.22.1.35l.43.08a10,10,0,0,0,1,.8c.16.08.32-.06.45-.27a.82.82,0,0,1,.62.35H26V24a1.55,1.55,0,0,1-.64-.46l-.08-.07c.42-.3.8-.83,1.22-1.07H27c-.26-.08.19-.56.27-.61a2.66,2.66,0,0,1,1.41-.72c-.08,0-.08,0-.27-.08A6.35,6.35,0,0,1,30.1,19.59ZM12.92,31.45h-.19a.71.71,0,0,0,.19.08Zm1.86,1.33v-.19h-.34c.05.06.18.11.26.19Zm.8-5.93a.29.29,0,0,0-.08-.1.67.67,0,0,0-.53-.27c0,.29,0,.13.26.37Zm-.27,1a1.31,1.31,0,0,0-.34-.08,2.13,2.13,0,0,0,.26.26h.08Zm-.18,3.38H15c.08,0,0,0,.16.08Zm.37-13.72h-.45c0,.16,0,.08.08.16v.1a.74.74,0,0,0,.26-.1.31.31,0,0,1,.11-.08Zm-.37,11c.1.08.08.08.26.11C15.31,28.45,15.31,28.47,15.13,28.42Zm.37,2.23v-.1l-.37-.08v.18Zm-.11-10.9c.16-.08.11,0,0-.16Zm0,3.38h.27a.62.62,0,0,0,.18.08v-.08h-.18V23l-.27-.08Zm.53,5.48c-.1-.08-.21-.08-.42-.08A.63.63,0,0,0,15.92,28.61Zm-.18-6.54h-.16c.08.08,0,0,.16.08ZM16,26.35s0,0,.05,0h.46v-.11l-.88-.16c.13.16.11.19.34.27Zm-.37,4.73c.13.11.08.16.16,0Zm.08-13.45c0,.26-.05.13.18.18v-.18Zm.18,2h-.18c.1.08,0,0,.18.08Zm0,7.34v-.16h-.18V27Zm0,3.72v-.18h-.18v.18ZM16,27.92c-.08-.08-.08-.08-.26-.11C15.84,27.89,15.84,27.86,16,27.92Zm-.08.15h-.18c.1.08,0,0,.18.08Zm.19-8.66h-.19c.11.08,0,0,.19.08Zm.16,3.8h-.16c.08.08,0,0,.16.08Zm-.16,3.91c.19-.06.11-.08.27,0h.42c-.13-.22-.45-.22-.69-.27Zm.08,4.22c.16-.07.11,0,0-.15Zm.53-13a1.06,1.06,0,0,0-.34-.08l.16.16h.18Zm-.34,12.39c.13.11.05.14.16,0Zm.08-7.52c.1.08.08.05.26.08C16.64,23.24,16.64,23.24,16.46,23.21Zm0,4.71a.55.55,0,0,0,.18.07v-.07ZM17,30h-.53a2,2,0,0,0,.45.18v-.08H17Zm-.45-7.16V23h.18v-.16Zm.53.88c-.08-.08-.14-.08-.35-.08A1.13,1.13,0,0,0,17.07,23.74ZM16.8,26.4c-.05-.16,0-.08-.08-.19v.19Zm.45-1.78c-.1-.08-.21-.08-.45-.08A.76.76,0,0,0,17.25,24.62Zm-.08,3.11v-.08l.08-.11a1,1,0,0,0-.45-.08C16.93,27.65,17,27.65,17.17,27.73Zm.08-5.32a1.06,1.06,0,0,0-.34-.08c.13.16.08.13.34.19ZM17.17,31c-.13-.21,0-.11-.26-.19C17,31,17,30.92,17.17,31Zm.08-5.13c-.1-.08-.08-.06-.26-.08A.57.57,0,0,0,17.25,25.87Zm.19,5.66h.35c-.14-.21-.54-.24-.8-.26C17,31.56,17.15,31.34,17.44,31.53Zm-.37-11.94a1.88,1.88,0,0,0,1.06.16c.11.08.08.06.27.11-.08-.08-.08-.05-.27-.11A1.84,1.84,0,0,0,17.07,19.59Zm0,1.41.1.08a1.58,1.58,0,0,0,.43.11v-.11l.11-.08a1.15,1.15,0,0,0-.46-.08C17.17,21,17.23,21,17.07,21Zm.45,4.26h-.45c.16.16.13.13.45.16Zm-.19,1.14c-.08-.08-.08,0-.26-.08a.57.57,0,0,0,.26.08.58.58,0,0,1,.19.19h.19V26.4Zm.54.8V27a2.67,2.67,0,0,1-.8,0C17.17,27.28,17.44,27.25,17.87,27.2Zm-.54,2h-.16c.08.08,0,.05.16.1Zm-.08-10.8a.38.38,0,0,0,.27.11C17.41,18.45,17.44,18.48,17.25,18.42Zm.27,5.85a.62.62,0,0,0-.27-.08A.43.43,0,0,0,17.52,24.27Zm-.27,4.42c.11.08.08.08.27.1C17.41,28.71,17.44,28.74,17.25,28.69ZM17.71,32c-.19,0-.19,0-.27.08h-.19c.08.06.3.11.35.19C17.68,32.14,17.65,32.14,17.71,32Zm-.38-1.86c.14.13.06.11.27.16C17.47,30.07,17.63,30.18,17.33,30.12Zm.38-4.25c-.11-.08-.08-.06-.27-.08C17.52,25.84,17.52,25.84,17.71,25.87Zm.87,5.21a2.78,2.78,0,0,0-1.14-.16c.13.11.37.16.53.27h.61Zm-.53-8.4V22.6a.88.88,0,0,0-.45-.08C17.76,22.68,17.73,22.65,18.05,22.68Zm-.26,1.51H17.6a.49.49,0,0,0,.19.08Zm-.19,5c.11.08.08.08.27.1C17.79,29.24,17.79,29.27,17.6,29.22Zm.64,3.45a.78.78,0,0,0-.45-.08C17.89,32.67,18,32.67,18.24,32.67ZM17.87,19c.1.08.08.08.26.1C18.05,19,18.05,19,17.87,19Zm0,2.49h.18c-.05-.29,0-.23-.18-.37Zm.37,2.48v-.11a3.17,3.17,0,0,0-.37-.08v.19Zm.26,1.49h-.1c-.14-.08-.22-.06-.53-.08,0,.24.15.18.63.18Zm-.37.45a1.6,1.6,0,0,0-.26-.08c.13.13.05.08.26.16Zm0,6.11c-.13.22,0,.11-.26.08v.19c.53,0,.71,0,1.32,0A1.48,1.48,0,0,0,18.13,32Zm.64-6.83v-.08h-.64V25H18a.46.46,0,0,0,.16.08.5.5,0,0,0,.45.08Zm-.11-.8-.61-.08a2.22,2.22,0,0,1,.27.19h.34Zm-.26,3.8h-.16c.08.08,0,.06.16.11Zm-.08,2.05c-.11.13-.06.27.18.19Zm0-7.07a.57.57,0,0,0,.26.08A.57.57,0,0,0,18.32,23.13Zm.18,2.92v-.18h-.18v.18Zm-.18,1.07a1.06,1.06,0,0,0,.34.08C18.56,27.12,18.53,27.12,18.32,27.12Zm.08,1.75c.1.08.16.08.37.08A1.14,1.14,0,0,0,18.4,28.87Zm.18-7.42h.08c-.05-.16,0-.1-.08-.18Zm.53,9.89v-.15l-.45-.11a1.7,1.7,0,0,0,.38.26Zm.19-8v-.16h-.37l-.08.08c0,.05.32.05.34.08ZM19,19.86h-.19c.08.05,0,0,.19.08Zm.15,2.29-.08-.08c-.1-.22.06-.06-.18-.19C19,22.12,18.82,22.07,19.19,22.15Zm.11,3a2.76,2.76,0,0,0-.37-.08c0,.24,0,.16.37.19Zm0-5.21h-.19c.08.08,0,0,.19.08Zm.27,11.4a1,1,0,0,1-.19-.15C19.25,31.29,19.33,31.42,19.57,31.34Zm.26-5.82a.17.17,0,0,1-.1-.1c-.11-.14-.06-.11-.27-.16a1.33,1.33,0,0,0,.11.26ZM20,23.93l-.26-.11c.05.16,0,.11.1.19v.08H20Zm-.16.61c.08.08.14.08.35.08A1.13,1.13,0,0,0,19.83,24.54Zm.27-3.27h-.19c.08.08,0,0,.19.08Zm-.19.72c.08.05.08.05.27.08C20.07,22,20.1,22,19.91,22Zm1.15,3.61v-.18l-1.15-.08c.14.24.4.13.61.26Zm-.7.53c-.1-.08-.16-.08-.37-.08A.78.78,0,0,0,20.36,26.13Zm-.18-3.27c.08.08,0,0,.18.08v-.08Zm.18,1.23h-.18c.08.08,0,.05.18.1Zm0,7.36h-.18c.08.05,0,0,.18.08Zm0-9.46c.14.21.19.16.51.16A1.33,1.33,0,0,0,20.36,22Zm.78,2.81a1.71,1.71,0,0,0-.7-.18C20.63,24.8,20.79,24.8,21.14,24.8Zm-.43,1.41a.62.62,0,0,0-.27-.08C20.52,26.19,20.52,26.19,20.71,26.21Zm-.08-2.39c-.08-.13,0-.08-.11-.16v.16Zm.16-.88h-.16c.08.08,0,0,.16.08Zm-.08,9H21v-.1l-.27-.08Zm.43-5.77H21c.08.08,0,.06.16.11Zm-.08,5.24c.13.13.05.08.26.16C21.19,31.4,21.35,31.5,21.06,31.45Zm.61-8.32h-.16a.38.38,0,0,0,.16.08Zm1.51,3.08c.64.3.56-.37,1,.11h.34c-.08-.13-.18-.24-.26-.37-.54,0-.59-.11-.8.18-.24-.16-.13,0-.08-.26-.56-.08-1.12-.19-1.7-.27.32.56.93.16,1.25.27Zm-.26.38v-.11h-.35a.81.81,0,0,0,.16.27v-.16Zm0-.46c-.11-.08-.08-.05-.27-.08A.43.43,0,0,0,22.92,26.13ZM23.1,28c-.13-.21,0-.1-.26-.18C22.94,27.94,22.89,27.92,23.1,28Zm.16-1.4H23.1c-.05.13,0,.08-.1.16.1.07.08.05.26.1Zm3.19,1.22h-.18l-.08-.08a10.54,10.54,0,0,0-3-.53c.64.53,2.4.16,2.85.61h.24c.1.08,0,0,.18.11Zm-3.08-1.22c.08.05,0,0,.16.08v-.08Zm.42.26a.74.74,0,0,0-.26-.1c0,.23-.05.13.26.18ZM23.9,25h-.19c.08.05,0,0,.19.08ZM24,28c-.11-.1-.08,0-.27-.07C23.87,28,23.77,28.1,24,28Zm.08.8v-.1a1.46,1.46,0,0,0-.27-.08v.18Zm1.06.53a.65.65,0,0,0-.34.27,1.54,1.54,0,0,1-.88-.53l1.22.16ZM24,23.93c.11.13.05.1.27.16C24.11,23.87,24.27,24,24,23.93Zm.88,4.22c-.08,0-.08,0-.27-.08C24.7,28.15,24.67,28.13,24.86,28.15ZM24.7,26.4a5.17,5.17,0,0,1,.69,0c.05-.16,0-.08.11-.19a.33.33,0,0,0-.38,0,1.19,1.19,0,0,1-.42-.16Zm.42,1.75H25c.08.08,0,.06.16.11Zm.11-1.3H25c.08,0,0,0,.19.08Zm.43-.53H25.5v.16h.16Zm.18-2h-.18c.1.08,0,.06.18.11Zm.19.27c-.16,0-.16-.05-.37-.08a1,1,0,0,1,.18.18H26Zm-.11,1.59h-.16v.19h.16Zm.35-3.35h-.16c.08.08,0,0,.16.08Zm.1,1.07V24h.16v-.19l-.26-.08C26.35,23.9,26.29,23.82,26.37,23.93Zm.43,2.74v-.08a1.2,1.2,0,0,0-.35-.11v.19Zm0-2h-.16c.08.06,0,0,.16.08Zm1.78-.53a11.08,11.08,0,0,0-1.68-.1c.38.26,1.2.1,1.6.37A.62.62,0,0,0,28.58,24.19Zm-1-1.51c-.08-.19-.24-.24-.43-.35a1,1,0,0,0,.16.35Zm4.86,4.86v.11s0,.16.11-.19c.29.08.21.06.34.27.08-.19,0-.08,0-.27.43.06,1,.38,1.33.19h.08c0,.8.08,1.59.11,2.29a2.54,2.54,0,0,1-.91-.19h-.26c.08.16,0,.11.11.19a2.21,2.21,0,0,0,1.14.18c.24.19.26.61.53.8s1,.16,1.41.42A3.76,3.76,0,0,0,36.8,31h.1c0,.56-.21.8-.8.8.08.05.08.05.27.08-.32.74-3.8,1.64-4.25.18-.38.16-.56.56-1,.72-1.84.67-3.32-.66-4-1.51V31a2.1,2.1,0,0,0,2.21-.45,12.12,12.12,0,0,0,.34-3.35,14.56,14.56,0,0,0,2.13.34c.13-.05.16-.18.35-.26Zm-5.13-4.41c.16-.08.11,0,0-.19Zm.19.35h-.19c.11.07,0,0,.19.07Zm.26-.46H27.6c.1.08,0,.06.18.11Zm-.08-.34H28V22.6l-.27-.08Zm.08-.43h.27v-.1l-.27-.08Zm.08-.53a1.14,1.14,0,0,0,.37.08.66.66,0,0,0,.43.08c-.11-.08-.21-.08-.43-.08S28.07,21.72,27.86,21.72Zm.37,4.07h-.18c.08.05,0,0,.18.08Zm0-3.46h.08c0-.16,0-.08-.08-.18Zm.27.35h-.19c.08.08,0,0,.19.1Zm0,9.46h-.19c.08.08,0,0,.19.11Zm1.22-8.66V23.4c-.37-.06-.77-.14-1.14-.19.16.24.48.13.72.27Zm-1.14.07v.19h.19v-.19ZM32.73,25v-.11A4.91,4.91,0,0,0,31,24.62a7.84,7.84,0,0,0-2.2-.43v.27A19.38,19.38,0,0,1,32.3,25Zm-3.54-3.46H29c.08.08,0,0,.16.08Zm.27,2.29c-.14-.21,0-.08-.27-.16C29.32,23.79,29.24,23.77,29.46,23.82Zm0-2.74H29.3c.08.08,0,.06.16.11Zm0,10.26H29.3c.08.08,0,.06.16.11Zm.18-.42A1.13,1.13,0,0,0,30,31C29.88,30.92,29.86,30.92,29.64,30.92Zm.08-10.26a.62.62,0,0,0,.27.08C29.91,20.66,29.91,20.68,29.72,20.66Zm0,.53a.62.62,0,0,0,.27.08C29.91,21.19,29.91,21.22,29.72,21.19Zm.19,1.33h-.19l.19.08ZM32.65,32v-.1a10.3,10.3,0,0,0-2.93-.43c.59.51,1.65.16,2.21.53Zm-2.82-9.91a5.22,5.22,0,0,0,2.55.34A6.8,6.8,0,0,0,29.83,22.07ZM30,23.48l.19.18h.18v-.18Zm0,4.44h.37v-.19h-.18c-.11.08,0,0-.19.08Zm.19-6.73c-.08.08,0,.08.07.08l.11-.08Zm.26.69c-.13-.21,0-.11-.26-.16a1,1,0,0,0,.18.16Zm-.19-1.22a1.15,1.15,0,0,0,.38.08C30.52,20.66,30.47,20.66,30.25,20.66Zm.19,8.21h-.19c.11.08,0,0,.19.08Zm0,1.52h-.19l.19.08Zm-.08-.91c.08.08,0,.06.16.11v-.11Zm.35-8.13v-.08l-.27-.08v.16Zm-.08,9.12h.26c-.13-.22,0-.11-.26-.19Zm.26-8.67h-.18c.08.08,0,0,.18.08Zm.61-1a2.55,2.55,0,0,0-.71-.16c0,.26.08.05.37.26.16-.05.16,0,.24-.1Zm-.53.53c.08.08.08,0,.27.1C31.13,21.37,31.16,21.37,31,21.35ZM31.5,24c.16-.08.11,0,0-.19v-.08l.08-.08H31.5a.54.54,0,0,0-.1-.18h-.24a1.13,1.13,0,0,0-.11.34.86.86,0,0,1,.45,0Zm1.23-2.4a2.86,2.86,0,0,0-1.23-.34c-.1-.08-.08-.05-.26-.08.08,0,.08,0,.26.08.16.29.51.18.8.34Zm-.61-2.2a2.24,2.24,0,0,0-.8-.19c.13.21.26.16.45.27h.35Zm-.62.34h-.18c.1.08,0,.06.18.11Zm-.1-.87c.1.08.1.05.26.08C31.58,18.9,31.58,18.9,31.4,18.88Zm.18,9.73H31.4c.1.08,0,0,.18.08Zm-.08,2.47c.16.19.19.19.54.19A1.5,1.5,0,0,0,31.5,31.08ZM31.58,22a1.13,1.13,0,0,0,.35.08C31.85,22,31.8,22,31.58,22Zm.19,1.56c.05.16,0,.11.08.19v.08s0,.19.08-.16h.19v-.11Zm.43,6.12-.27-.08c.13.13.05.11.27.16Zm.1-10.53c-.13-.21,0-.1-.26-.18a.71.71,0,0,0,.16.18Zm-.18,11.51v.08h.08c-.06-.21,0-.13-.16-.26C32.09,30.63,32,30.55,32.12,30.65Zm.34-10.37h-.34c.21.22.05.11.34.11Zm.91,3.65c.13-.06.08,0,.15-.11l-.07-.08c-.35,0-.38,0-.54.19h-.26l.18-.19-.45-.08c-.08.05-.08.05-.26.08a.49.49,0,0,0,.08.19A1,1,0,0,0,33.37,23.93ZM32.3,28.79h-.18c.1.06,0,0,.18.08Zm.08-6.72H32.2c.1.08,0,0,.18.08Zm.35,7.68a4,4,0,0,0-.43-.16,1.46,1.46,0,0,1,.08.27h.35Zm.37-10.61a2.37,2.37,0,0,0-.72-.18c.11.21.13.13.27.26h.45Zm-.27,9.65h-.45c.08.06.21.11.27.16h.18Zm-.37-9.2h.37v-.18h-.37Zm.72,11.06c-.16,0-.29-.08-.45-.1v-.08h-.16c.08.08,0,0,.16.08s.1.37.37.18Zm-.45,1.86v-.18h-.16v.18Zm.37-12v-.08a2.51,2.51,0,0,1-.37-.19,2.76,2.76,0,0,0-.08.27Zm.27,2.13a1,1,0,0,0-.72-.19A.92.92,0,0,0,33.37,22.6Zm1.94,9.65-2.48-.37a6.81,6.81,0,0,0,2.4.45Zm-2.4-7.18h.27c-.13-.21,0-.11-.27-.19Zm.35.27c-.11-.08-.13-.08-.35-.08A1.13,1.13,0,0,0,33.26,25.34ZM33,29.75v.19h.19v-.19Zm.19-10.61c.13.13,0,.11.27.19C33.31,19.09,33.47,19.22,33.18,19.14Zm.88.53a8.57,8.57,0,0,1-.88-.18c.19.29.4.29.88.26Zm-.88.46c.13.1.08.13.19,0Zm.19,10.42h-.19c.08.08,0,.05.19.1Zm0-8.75h.42v-.08a3.65,3.65,0,0,0-.53-.19C33.29,21.77,33.21,21.56,33.37,21.8Zm.15,4.87v-.08a.62.62,0,0,0-.26-.11v.19Zm-.26,4.6c0,.29.16.29.72.26A2.94,2.94,0,0,0,33.26,31.27Zm.53-5.93-.34-.08c0,.18-.08.08.07.16v.1c.19,0,.14-.05.19-.1Zm-.34-8.14a.52.52,0,0,0,.26.08A.61.61,0,0,0,33.45,17.2ZM34.16,29h-.64c.08.08.22.13.27.19h.37Zm-.37-5.66h-.16c.08.08,0,.05.16.11Zm.11,7.36a2.64,2.64,0,0,1-.27-.1c.11.16,0,.1.27.18Zm.16-12.76H33.9c.08.08,0,.05.16.11Zm-.16,5.77v.16h.16v-.16Zm0,3.27c.16-.08.08,0,0-.18Zm.34-.72h-.18c.1.08,0,.06.18.11Zm-.08-1.67h.08a.49.49,0,0,0-.08-.19Zm.16,8.13h-.16c.08.08,0,0,.16.11Zm-.08-1.14a.62.62,0,0,0,.27.08A.62.62,0,0,0,34.24,31.53Zm.35-6.73h.18c-.08-.29.06-.13-.18-.26Zm.1,6.81c.11.08.14.08.35.11A.63.63,0,0,0,34.69,31.61Zm.43-.27a1,1,0,0,0,.45.11,1.6,1.6,0,0,0,.19.16h.16v-.08a1.21,1.21,0,0,0-.35-.08C35.47,31.37,35.36,31.37,35.12,31.34Zm.9.54V31.8l-.26-.08v.16Z"/><path class="cls-22" d="M29.19,19.07a24.2,24.2,0,0,1,3-2.39.16.16,0,0,1,0-.27,4.53,4.53,0,0,0,1.07-.87,1.45,1.45,0,0,1,.16,1.22h-.16c.47.48,0,2.79.16,3.11-.08.05-.08.05-.27.08s-.16,0-.43,0v-.08c.19,0,.16,0,.27.08.21-.13.11,0,.16-.27-.51,0-.51-.08-.53.27l-.35-.08V20l1.07.11.08.08v.45A5.25,5.25,0,0,1,32,20.4h-.46a.35.35,0,0,1,.11.08,3.22,3.22,0,0,0,1.68.35.49.49,0,0,1,.08.1c-.06.32,0,.24-.27.35a.62.62,0,0,0,.27.08c0,.45,0,.66-.27.8.13.21,0,.1.27.18v.08l-.35.08a.71.71,0,0,0,.35.27c-.08.08,0,.05-.16.1a4.34,4.34,0,0,0,.42.54v.08l-.88-.08c.16.23.11.08.08.42.24-.11.11,0,.19-.26.56,0,.8.07,1.06.37l.11,0s0,0,.08.06c-.51.26-.56.82-1.25.87a.63.63,0,0,0,.35.11v1.94a9.87,9.87,0,0,1-2.74-.53c-.35-.08-.4.16-.61.19a2.86,2.86,0,0,1-.19-.27c-.35-.16-.59.16-.88,0h-.18V25.27a12.16,12.16,0,0,0,3.72.42c-.56-.4-1.44-.13-2.21-.34a11.94,11.94,0,0,0-3.72-.46c.34.24,1,.14,1.41.38h.45v.08c-.74.47-1.33,1.17-2,1.67a5.15,5.15,0,0,0-1.22,1,6.46,6.46,0,0,0-.88,0l.08.08c.11.08.11,0,.27.08s.1.06.1.06,0,0,.08.05c-.26.11-.31.11-.45.35a3.35,3.35,0,0,1-2.39-.8h-.08v-.08c.48.16,1.33.08,1.75.34h.54V28c-.85-.39-1.94-.21-2.74-.53,0-.18-.08,0,0-.18-.21-.32-.8-.38-1.07-.69h-.18v-.11a4.78,4.78,0,0,1,1.7.27h.16c-.32-.56-1.57-.16-2.21-.43a8.12,8.12,0,0,1-1.67-1.44H18A1.76,1.76,0,0,1,18.29,26a3.37,3.37,0,0,1-1.23-.16v.08s-.08.05-.1.08a7,7,0,0,0,1.33.26c0,.54-.11.83,0,.91v.61c-.22-.08-.35,0-.53-.11.18.3.42.08.53.27.32.5-.16,1.35.26,1.86-.08.08-.08,0-.26.11a2.64,2.64,0,0,0,2.47.69,1.38,1.38,0,0,1-1.49,1.25c.08.08,0,0,.19.08V32c-1.36.35-2.13.51-3.3-.18,0-.22,0-.08,0-.35-.42-.16-1.22-.05-1.57-.26h-.18v.15a2.87,2.87,0,0,1,.95.19h.53v.08c-.26.19-.47.51-.79.64a5.11,5.11,0,0,1-3.27-.53c-.32-.19-.53-.72-.8-1v-.26c1.36.53,1.73-.43,2.58-.45-.27-.4,0-2.29,0-3.43a3,3,0,0,1,1.22.16H15v-.08a2.52,2.52,0,0,0-1.41-.19v-.27H14v-.08l-.34-.08c0-.47-.06-.87-.08-1.25a1.06,1.06,0,0,1,.34.08h.19v-.08a2.86,2.86,0,0,0-.72-.08c-.05-.15,0-.1-.08-.18.11-.08.14-.08.35-.08v-.11c-.4-.05-.56,0-.8-.34h-.19c.16-.08.14-.08.27,0a2.17,2.17,0,0,0,.72-1.76,3.53,3.53,0,0,1,1.33.16h.16v-.08a3.81,3.81,0,0,0-1.49-.26V19.76h.26c-.13-.13,0-.1-.26-.16v-.79c.05.05.08.05.1.08s0,.08.08.18c.14-.05.08,0,.16-.1a.31.31,0,0,1,.11-.08H14c0-.06,0-.11-.08-.19h-.26a9.74,9.74,0,0,0,0-1.94V15.54a27.48,27.48,0,0,1,3.27,2.63,8.36,8.36,0,0,1,1.86,1.51,19,19,0,0,0-3.8-.45c.32.24.77.08,1.22.19a15.91,15.91,0,0,1,3.46.87v.19a24.55,24.55,0,0,0-5.67-.8v.19a12,12,0,0,1,2.21.35c.48.07,1.33.05,1.86.18.69.08,1.36.16,2.05.27.32.13.53.58.8.79s.82.46,1.22.8c.19.14-.08.21.11.35l.42.08c.35.24.59.58,1,.8.16.08.32-.06.46-.27a.81.81,0,0,1,.61.35h.45v-.08a1.55,1.55,0,0,1-.64-.46L24.4,23c.43-.29.8-.82,1.23-1.06h.45c-.27-.08.18-.56.26-.61a2.59,2.59,0,0,1,1.41-.72c-.08,0-.08,0-.26-.08A6.31,6.31,0,0,1,29.19,19.07ZM12,30.93h-.18A.51.51,0,0,0,12,31Zm1.86,1.33v-.19h-.34c.05.06.18.11.26.19Zm.8-5.93a.31.31,0,0,0-.08-.11.7.7,0,0,0-.53-.26c0,.29,0,.13.27.37Zm-.26,1a.86.86,0,0,0-.35-.08,2.25,2.25,0,0,0,.27.26h.08Zm-.19,3.37h-.16c.08.06,0,0,.16.08Zm.37-13.72h-.45c0,.16,0,.08.08.16v.11a.73.73,0,0,0,.27-.11.49.49,0,0,1,.1-.08Zm-.37,11c.11.08.08.08.27.1C14.41,27.93,14.41,28,14.22,27.9Zm.37,2.23V30L14.22,30v.18Zm-.1-10.9c.16-.08.1,0,0-.16Zm0,3.38h.26l.19.08v-.08h-.19V22.5l-.26-.08ZM15,28.08a.66.66,0,0,0-.43-.08C14.7,28.08,14.8,28.08,15,28.08Zm-.19-6.54h-.16c.08.08,0,0,.16.08ZM15,25.82s0,0,.06,0h.45v-.11l-.88-.16c.13.16.11.19.35.27Zm-.37,4.74c.13.1.08.16.16,0Zm.08-13.46c0,.27-.05.14.19.19V17.1Zm.19,2h-.19c.11.08,0,0,.19.08Zm0,7.34v-.16h-.19v.16Zm0,3.72V30h-.19v.18Zm.16-2.82c-.08-.08-.08-.08-.27-.1C14.94,27.37,14.94,27.34,15.1,27.39Zm-.08.16h-.19c.11.08,0,0,.19.08Zm.18-8.66H15c.1.08,0,0,.18.08Zm.16,3.8H15.2c.08.08,0,0,.16.08ZM15.2,26.6c.19-.06.11-.08.27,0h.42c-.13-.22-.45-.22-.69-.27Zm.08,4.22c.16-.08.11,0,0-.16Zm.53-13a1.06,1.06,0,0,0-.34-.08l.16.16h.18Zm-.34,12.39c.13.11,0,.13.16,0Zm.08-7.52c.11.08.08,0,.26.08C15.74,22.71,15.74,22.71,15.55,22.69Zm0,4.7a.49.49,0,0,0,.19.08v-.08Zm.53,2.1h-.53a2.25,2.25,0,0,0,.45.19V29.6h.08Zm-.45-7.15v.16h.18v-.16Zm.53.88c-.08-.08-.13-.08-.35-.08A1.13,1.13,0,0,0,16.16,23.22Zm-.27,2.66c-.05-.16,0-.08-.08-.19v.19Zm.46-1.78c-.11-.08-.22-.08-.46-.08A.79.79,0,0,0,16.35,24.1Zm-.08,3.11v-.08a.24.24,0,0,1,.08-.11,1.08,1.08,0,0,0-.46-.08A.56.56,0,0,0,16.27,27.21Zm.08-5.32a1.21,1.21,0,0,0-.35-.08c.13.16.08.13.35.19Zm-.08,8.59c-.14-.22,0-.11-.27-.19C16.11,30.45,16.05,30.4,16.27,30.48Zm.08-5.13c-.11-.08-.08-.06-.27-.08A.62.62,0,0,0,16.35,25.35ZM16.53,31h.35c-.13-.21-.53-.24-.8-.27C16.08,31,16.24,30.82,16.53,31Zm-.37-11.94a1.88,1.88,0,0,0,1.06.16c.11.08.08.05.27.11-.08-.08-.08-.06-.27-.11A1.83,1.83,0,0,0,16.16,19.07Zm0,1.41.11.08c.13.08.24.05.42.11v-.11l.11-.08a1.1,1.1,0,0,0-.45-.08C16.27,20.45,16.32,20.43,16.16,20.48Zm.45,4.25h-.45c.16.16.13.14.45.16Zm-.18,1.15c-.08-.08-.08-.06-.27-.08a.62.62,0,0,0,.27.08.52.52,0,0,1,.18.18h.19v-.18Zm.53.8v-.19a2.67,2.67,0,0,1-.8,0C16.27,26.76,16.53,26.73,17,26.68Zm-.53,2h-.16c.08.08,0,.05.16.1Zm-.08-10.8c.1.08.08.08.26.11C16.51,17.93,16.53,18,16.35,17.9Zm.26,5.85a.57.57,0,0,0-.26-.08A.57.57,0,0,0,16.61,23.75Zm-.26,4.41c.1.08.08.08.26.11C16.51,28.19,16.53,28.22,16.35,28.16Zm.45,3.3c-.19,0-.19,0-.27.08h-.18c.08.05.29.11.34.19C16.77,31.62,16.75,31.62,16.8,31.46Zm-.37-1.86c.13.13.05.11.26.16C16.56,29.55,16.72,29.65,16.43,29.6Zm.37-4.25c-.11-.08-.08-.06-.27-.08C16.61,25.32,16.61,25.32,16.8,25.35Zm.88,5.21a2.67,2.67,0,0,0-1.15-.16c.14.1.38.16.53.26h.62Zm-.54-8.4v-.08a.88.88,0,0,0-.45-.08C16.85,22.16,16.83,22.13,17.14,22.16Zm-.26,1.51h-.19a.71.71,0,0,0,.19.08Zm-.19,5c.11.08.08.08.27.1C16.88,28.72,16.88,28.75,16.69,28.7Zm.64,3.45a.76.76,0,0,0-.45-.08C17,32.15,17.09,32.15,17.33,32.15ZM17,18.43c.1.08.08.08.26.11C17.14,18.46,17.14,18.49,17,18.43Zm0,2.5h.18c-.05-.29,0-.24-.18-.37Zm.37,2.48V23.3a2.76,2.76,0,0,0-.37-.08v.19Zm.27,1.48h-.11c-.13-.08-.21-.05-.53-.08,0,.24.16.19.64.19Zm-.38.46a1.6,1.6,0,0,0-.26-.08c.13.13.05.08.26.16Zm0,6.11c-.13.21,0,.11-.26.08v.19c.53,0,.72,0,1.33,0A1.48,1.48,0,0,0,17.22,31.46Zm.64-6.83v-.08h-.64v-.08h-.16a.46.46,0,0,0,.16.08.52.52,0,0,0,.46.08Zm-.1-.8-.62-.08a1.48,1.48,0,0,1,.27.19h.35Zm-.27,3.8h-.16c.08.08,0,.06.16.11Zm-.08,2.05c-.11.13-.05.27.19.19Zm0-7.07a.62.62,0,0,0,.27.08A.43.43,0,0,0,17.41,22.61Zm.19,2.92v-.18h-.19v.18Zm-.19,1.07a1.13,1.13,0,0,0,.35.08C17.65,26.6,17.62,26.6,17.41,26.6Zm.08,1.75c.11.08.16.08.37.08A1.08,1.08,0,0,0,17.49,28.35Zm.19-7.42h.08c-.06-.16,0-.1-.08-.18Zm.53,9.89v-.16c-.16,0-.29-.08-.45-.1.1.13.24.16.37.26Zm.18-8v-.16H18l-.08.08s.32,0,.35.08Zm-.26-3.43h-.19c.08.05,0,0,.19.08Zm.16,2.28-.08-.08c-.11-.21.05-.05-.19-.18C18.05,21.6,17.92,21.54,18.29,21.62Zm.1,3a2.76,2.76,0,0,0-.37-.08c0,.24,0,.16.37.18Zm0-5.21h-.18c.08.08,0,0,.18.08Zm.27,11.4a1,1,0,0,1-.19-.16C18.34,30.77,18.42,30.9,18.66,30.82ZM18.93,25a.2.2,0,0,1-.11-.11c-.11-.13-.05-.1-.27-.16,0,.08.06.16.11.27Zm.16-1.59-.27-.11c.05.16,0,.11.11.19v.08h.16Zm-.16.61c.08.08.13.08.34.08A.74.74,0,0,0,18.93,24Zm.26-3.27H19c.08.08,0,0,.18.08Zm-.18.71c.08.06.08.06.26.08C19.16,21.46,19.19,21.49,19,21.46Zm1.14,3.62v-.19L19,24.81c.13.24.39.14.61.27Zm-.69.53c-.11-.08-.16-.08-.37-.08A.72.72,0,0,0,19.46,25.61Zm-.19-3.27c.08.08,0,0,.19.08v-.08Zm.19,1.23h-.19c.08.07,0,.05.19.1Zm0,7.36h-.19c.08.05,0,0,.19.08Zm0-9.47c.13.22.18.16.5.16A1.4,1.4,0,0,0,19.46,21.46Zm.77,2.82a1.62,1.62,0,0,0-.69-.18C19.72,24.28,19.88,24.28,20.23,24.28Zm-.43,1.41a.57.57,0,0,0-.26-.08C19.62,25.67,19.62,25.67,19.8,25.69Zm-.08-2.39c-.08-.13,0-.08-.1-.16v.16Zm.16-.88h-.16c.08.08,0,0,.16.08Zm-.08,9h.27v-.11l-.27-.07Zm.43-5.77h-.16c.08.08,0,.06.16.11Zm-.08,5.24c.13.13.05.08.26.16C20.28,30.88,20.44,31,20.15,30.93Zm.61-8.32H20.6a.76.76,0,0,0,.16.08Zm1.52,3.08c.63.29.55-.37,1,.11h.34c-.07-.13-.18-.24-.26-.37-.53,0-.59-.11-.8.18-.24-.16-.13,0-.08-.26-.56-.08-1.11-.19-1.7-.27.32.56.93.16,1.25.27Zm-.27.37V26h-.35a1.13,1.13,0,0,0,.16.26v-.16Zm0-.45c-.11-.08-.08-.05-.27-.08A.43.43,0,0,0,22,25.61Zm.19,1.86c-.14-.21,0-.1-.27-.18C22,27.42,22,27.39,22.2,27.47Zm.16-1.41H22.2c-.06.14,0,.08-.11.16.11.08.08.06.27.11Zm3.19,1.23h-.19l-.08-.08a10.14,10.14,0,0,0-3-.53c.63.53,2.39.16,2.84.61h.24c.11.08,0,0,.19.1Zm-3.09-1.23c.08.06,0,0,.16.08v-.08Zm.43.27a1,1,0,0,0-.27-.11c0,.24-.05.14.27.19Zm.1-1.86h-.18c.08.05,0,0,.18.08Zm.08,3c-.1-.1-.08,0-.26-.08C23,27.5,22.86,27.58,23.07,27.47Zm.08.8v-.11l-.26-.08v.19Zm1.07.53a.71.71,0,0,0-.35.27,1.57,1.57,0,0,1-.88-.53l1.23.16Zm-1.15-5.39c.11.13.06.1.27.16C23.21,23.35,23.37,23.49,23.07,23.41ZM24,27.63c-.08-.05-.08-.05-.27-.08C23.79,27.63,23.76,27.61,24,27.63Zm-.16-1.75a5.19,5.19,0,0,1,.69,0c.06-.16,0-.08.11-.19a.32.32,0,0,0-.37,0,1.25,1.25,0,0,1-.43-.16Zm.43,1.75h-.16c.08.08,0,.06.16.11Zm.1-1.3h-.18c.08.05,0,0,.18.08Zm.43-.53h-.16V26h.16Zm.18-2h-.18c.1.08,0,.05.18.11Zm.19.27a2.33,2.33,0,0,0-.37-.08,1,1,0,0,1,.18.18h.19ZM25,25.69h-.16v.19H25Zm.35-3.35H25.2c.08.08,0,0,.16.08Zm.11,1.07v.08h.16V23.3l-.27-.08A.63.63,0,0,0,25.47,23.41Zm.42,2.73v-.08a1.13,1.13,0,0,0-.34-.1v.18Zm0-1.94h-.16c.08.06,0,0,.16.08Zm1.78-.53a11,11,0,0,0-1.67-.1c.37.26,1.19.1,1.59.37A.43.43,0,0,0,27.67,23.67Zm-1-1.51c-.08-.19-.24-.24-.43-.35a1.27,1.27,0,0,0,.16.35ZM31.55,27v.11s.06.16.11-.19c.29.08.21,0,.35.27.08-.19,0-.08,0-.27.42,0,1,.37,1.33.19h.08c0,.8.08,1.59.1,2.28a2.29,2.29,0,0,1-.9-.18h-.27c.08.16,0,.1.11.18a2.14,2.14,0,0,0,1.14.19c.24.19.27.61.53.8s1,.16,1.41.42a3.8,3.8,0,0,0,.35-.34H36c0,.56-.21.8-.79.8.08,0,.08,0,.26.07-.32.75-3.8,1.65-4.25.19-.37.16-.56.56-1,.72-1.83.66-3.32-.67-4-1.52v-.26A2.12,2.12,0,0,0,28.47,30a12.52,12.52,0,0,0,.35-3.35,14.24,14.24,0,0,0,2.12.34c.14-.05.16-.18.35-.26Zm-5.13-4.41c.16-.08.11,0,0-.19Zm.19.34h-.19c.11.08,0,0,.19.08Zm.27-.45h-.19c.11.08,0,.05.19.11Zm-.08-.34h.26v-.08L26.8,22Zm.08-.43h.26v-.11l-.26-.08ZM27,21.2a1.15,1.15,0,0,0,.38.08c.1.08.21.08.42.08-.1-.08-.21-.08-.42-.08S27.17,21.2,27,21.2Zm.38,4.07h-.19c.08.05,0,0,.19.08Zm0-3.46h.08a1.35,1.35,0,0,0-.08-.19Zm.26.35h-.18c.08.08,0,0,.18.1Zm0,9.46h-.18c.08.08,0,0,.18.11ZM28.82,23v-.08l-1.15-.18c.16.24.48.13.72.26ZM27.67,23v.19h.19V23Zm4.15,1.44v-.11a4.89,4.89,0,0,0-1.75-.26,7.26,7.26,0,0,0-2.21-.43v.27a18.55,18.55,0,0,1,3.53.53ZM28.28,21h-.16c.08.08,0,0,.16.08Zm.27,2.29c-.13-.21,0-.08-.27-.16C28.42,23.27,28.34,23.25,28.55,23.3Zm0-2.74h-.16c.08.08,0,.05.16.11Zm0,10.26h-.16c.08.08,0,.06.16.11Zm.19-.42a1.06,1.06,0,0,0,.34.08C29,30.4,29,30.4,28.74,30.4Zm.08-10.26a.57.57,0,0,0,.26.08C29,20.14,29,20.16,28.82,20.14Zm0,.53a.57.57,0,0,0,.26.08C29,20.67,29,20.69,28.82,20.67ZM29,22h-.18a.81.81,0,0,0,.18.08Zm2.74,9.46v-.11a10.61,10.61,0,0,0-2.92-.42c.58.5,1.64.16,2.2.53Zm-2.82-9.92a5.11,5.11,0,0,0,2.55.35A6.75,6.75,0,0,0,28.92,21.54ZM29.08,23l.19.19h.18V23Zm0,4.44h.37v-.18h-.18c-.11.08,0,0-.19.08Zm.19-6.72c-.08.08,0,.08.08.08a.21.21,0,0,1,.1-.08Zm.26.69c-.13-.21,0-.11-.26-.16a1,1,0,0,0,.18.16Zm-.18-1.22a1.08,1.08,0,0,0,.37.08C29.61,20.14,29.56,20.14,29.35,20.14Zm.18,8.21h-.18c.1.08,0,0,.18.08Zm0,1.52h-.18a.81.81,0,0,0,.18.08ZM29.45,29c.08.08,0,.06.16.11V29Zm.35-8.13v-.08l-.27-.08v.16ZM29.72,30H30c-.14-.22,0-.11-.27-.19ZM30,21.28H29.8c.08.08,0,0,.19.08Zm.61-1a3.05,3.05,0,0,0-.72-.15c0,.26.08.05.37.26.16,0,.16,0,.24-.11Zm-.53.54c.08.08.08.05.26.1C30.23,20.85,30.25,20.85,30.07,20.83Zm.53,2.66c.16-.08.1,0,0-.19v-.08l.08-.08H30.6a1.3,1.3,0,0,0-.11-.19h-.24a1,1,0,0,0-.1.35.86.86,0,0,1,.45,0Zm1.22-2.4a2.86,2.86,0,0,0-1.22-.34c-.11-.08-.08-.06-.27-.08.08,0,.08,0,.27.08.16.29.5.18.79.34Zm-.61-2.2a2.19,2.19,0,0,0-.8-.19c.13.21.27.16.45.27h.35Zm-.61.34h-.19c.11.08,0,.05.19.11Zm-.11-.88c.11.08.11.06.27.08C30.68,18.38,30.68,18.38,30.49,18.35Zm.19,9.73h-.19c.11.08,0,0,.19.08Zm-.08,2.48c.16.18.18.18.53.18A1.66,1.66,0,0,0,30.6,30.56Zm.08-9.1a.71.71,0,0,0,.34.08C30.94,21.46,30.89,21.46,30.68,21.46ZM30.86,23c.06.16,0,.11.08.19v.08s.06.19.08-.16h.19V23Zm.43,6.12L31,29.07c.14.13.06.1.27.16Zm.1-10.53c-.13-.21,0-.11-.26-.19a1.06,1.06,0,0,0,.16.19Zm-.18,11.51v.08h.08c-.05-.21,0-.13-.16-.26C31.18,30.11,31.13,30,31.21,30.13Zm.34-10.37h-.34c.21.22.05.11.34.11Zm.91,3.65c.13-.06.08,0,.16-.11l-.08-.08c-.35,0-.37,0-.53.19h-.27l.19-.19-.46-.08c-.08.05-.08.05-.26.08a.71.71,0,0,0,.08.19A1,1,0,0,0,32.46,23.41Zm-1.07,4.86h-.18a.78.78,0,0,0,.18.08Zm.08-6.73h-.18c.1.08,0,0,.18.08Zm.35,7.69a2.3,2.3,0,0,0-.43-.16,1.6,1.6,0,0,1,.08.26h.35Zm.37-10.61a2.59,2.59,0,0,0-.72-.19c.11.22.14.14.27.27h.45Zm-.26,9.65h-.46a2.14,2.14,0,0,1,.27.16h.19Zm-.38-9.2h.38v-.18h-.38Zm.72,11.06c-.16,0-.29-.08-.45-.1V30h-.16c.08.08,0,0,.16.08s.11.37.37.18ZM31.82,32v-.18h-.16V32Zm.37-12v-.08a2.51,2.51,0,0,1-.37-.19c0,.08-.05.19-.08.27Zm.27,2.13a1,1,0,0,0-.72-.19A.94.94,0,0,0,32.46,22.08Zm1.94,9.65c-.82-.14-1.65-.24-2.47-.38a6.51,6.51,0,0,0,2.39.46ZM32,24.55h.26c-.13-.21,0-.11-.26-.19Zm.34.26c-.1-.08-.13-.08-.34-.08A.71.71,0,0,0,32.35,24.81Zm-.26,4.42v.18h.18v-.18Zm.18-10.61c.14.13.06.11.27.19C32.41,18.57,32.56,18.7,32.27,18.62Zm.88.53c-.29,0-.59-.1-.88-.18.19.29.4.29.88.26Zm-.88.45c.14.11.08.14.19,0ZM32.46,30h-.19c.08.08,0,0,.19.1Zm0-8.75h.42V21.2a3.65,3.65,0,0,0-.53-.19C32.38,21.25,32.3,21,32.46,21.28Zm.16,4.86v-.08a.72.72,0,0,0-.27-.1v.18Zm-.27,4.6c0,.3.16.3.72.27A3.45,3.45,0,0,0,32.35,30.74Zm.53-5.93-.34-.08c0,.19-.08.08.08.16V25c.18,0,.13-.05.18-.11Zm-.34-8.13a.57.57,0,0,0,.26.08A.57.57,0,0,0,32.54,16.68Zm.72,11.75h-.64c.08.08.21.13.26.19h.38Zm-.38-5.66h-.16c.08.08,0,.05.16.1ZM33,30.13a2.64,2.64,0,0,1-.27-.1c.11.16.06.1.27.18Zm.16-12.76H33c.08.08,0,.05.16.11ZM33,23.14v.16h.16v-.16Zm0,3.27c.16-.08.08,0,0-.19Zm.35-.72h-.19c.11.08,0,.06.19.11ZM33.26,24h.08a1.35,1.35,0,0,0-.08-.19Zm.16,8.13h-.16c.08.08,0,0,.16.11ZM33.34,31a.57.57,0,0,0,.26.08A.57.57,0,0,0,33.34,31Zm.34-6.73h.19c-.08-.29.05-.13-.19-.26Zm.11,6.81c.1.08.13.08.34.11C34,31.12,34,31.12,33.79,31.09Zm.42-.27a1,1,0,0,0,.46.11,1,1,0,0,0,.18.16H35V31a1.06,1.06,0,0,0-.34-.08A.93.93,0,0,0,34.21,30.82Zm.91.53v-.07l-.27-.08v.15Z"/><path class="cls-23" d="M43.88,11.09a.52.52,0,0,0-.44-.26.53.53,0,0,0-.53.52.56.56,0,0,0,.07.26h0v0l0,0a22.69,22.69,0,1,1-5-5.52.56.56,0,0,0,.34.12.51.51,0,0,0,.26-1,23.68,23.68,0,1,0,5.31,5.78Z"/></svg>