<svg width="16" height="16" viewBox="0 0 16 16" fill="none" xmlns="http://www.w3.org/2000/svg">
<g clip-path="url(#clip0_7_606)">
<path d="M7.25 8.41479L3 5.75879V10.4998C3 10.6694 3.04314 10.8362 3.12536 10.9846C3.20758 11.1329 3.32617 11.2579 3.47 11.3478L7.25 13.7098V8.41479Z" fill="white"/>
<path d="M7.99992 7.115L12.2359 4.468L8.52992 2.152C8.37098 2.05267 8.18734 2 7.99992 2C7.8125 2 7.62885 2.05267 7.46992 2.152L3.76392 4.469L7.99992 7.115Z" fill="white"/>
<path d="M8.75 8.41479V13.7148L12.53 11.3528C12.6745 11.2625 12.7936 11.1367 12.8759 10.9874C12.9581 10.8381 13.0009 10.6702 13 10.4998V5.75879L8.75 8.41479Z" fill="white"/>
</g>
<defs>
<clipPath id="clip0_7_606">
<rect width="12" height="12" fill="white" transform="translate(2 2)"/>
</clipPath>
</defs>
</svg>
